<?xml version="1.0" encoding="utf-8"?>
<!-- Generator: Adobe Illustrator 16.0.0, SVG Export Plug-In . SVG Version: 6.00 Build 0)  -->
<!DOCTYPE svg PUBLIC "-//W3C//DTD SVG 1.1//EN" "http://www.w3.org/Graphics/SVG/1.1/DTD/svg11.dtd">
<svg version="1.1" id="Layer_1" xmlns="http://www.w3.org/2000/svg" xmlns:xlink="http://www.w3.org/1999/xlink" x="0px" y="0px"
	 width="64px" height="64px" viewBox="0 0 64 64" enable-background="new 0 0 64 64" xml:space="preserve">
<g>
	<path d="M43.968,10.944c-5.255,0-9.53,4.274-9.53,9.529c0,0.782,0.105,1.538,0.283,2.266l-11.114-2.266L10.52,27.396l0.116,0.221
		l-0.133-0.028v21.306l17.63,4.161l13.55-7.456V29.715c0.733,0.182,1.496,0.289,2.285,0.289c5.255,0,9.529-4.275,9.529-9.53
		S49.223,10.944,43.968,10.944z M27.245,51.787L11.44,48.148V28.749l15.805,3.402V51.787z M28.087,31.374l-16.311-3.511
		l11.981-6.338l11.301,2.303c0.405,1.072,0.995,2.051,1.734,2.898L28.087,31.374z M40.121,24.293c-0.947,0-1.763-0.264-2.183-0.54
		l0.336-1.115c0.3,0.18,1.031,0.479,1.774,0.479c1.128,0,1.584-0.636,1.571-1.247c0-0.924-0.863-1.319-1.763-1.319h-0.684v-1.079
		h0.659c0.684,0,1.548-0.313,1.548-1.092c0-0.527-0.396-0.972-1.248-0.972c-0.635,0-1.271,0.276-1.595,0.492l-0.336-1.067
		c0.444-0.312,1.308-0.6,2.243-0.6c1.606,0,2.435,0.888,2.435,1.907c0,0.815-0.479,1.486-1.439,1.822v0.024
		c0.947,0.168,1.715,0.888,1.715,1.942C43.155,23.249,42.052,24.293,40.121,24.293z M49.892,23.142
		c-0.804,0.731-2.087,1.104-3.658,1.104c-0.863,0-1.512-0.048-1.991-0.108v-7.951c0.647-0.108,1.476-0.168,2.351-0.168
		c1.512,0,2.555,0.312,3.299,0.936c0.779,0.636,1.259,1.595,1.259,2.974C51.15,21.366,50.659,22.446,49.892,23.142z"/>
	<path d="M46.725,17.169c-0.468,0-0.803,0.036-1.007,0.084v5.78c0.204,0.036,0.516,0.036,0.815,0.036
		c1.919,0.012,3.059-1.043,3.059-3.094C49.604,18.188,48.572,17.169,46.725,17.169z"/>
</g>
</svg>
