<?xml version="1.0" encoding="UTF-8" standalone="no"?>
<!-- Generator: Adobe Illustrator 16.0.4, SVG Export Plug-In . SVG Version: 6.00 Build 0)  -->

<svg
   xmlns:dc="http://purl.org/dc/elements/1.1/"
   xmlns:cc="http://creativecommons.org/ns#"
   xmlns:rdf="http://www.w3.org/1999/02/22-rdf-syntax-ns#"
   xmlns:svg="http://www.w3.org/2000/svg"
   xmlns="http://www.w3.org/2000/svg"
   xmlns:sodipodi="http://sodipodi.sourceforge.net/DTD/sodipodi-0.dtd"
   xmlns:inkscape="http://www.inkscape.org/namespaces/inkscape"
   version="1.1"
   id="Layer_1"
   x="0px"
   y="0px"
   width="140"
   height="140"
   viewBox="0 0 140 140"
   enable-background="new 0 0 226.77 155.91"
   xml:space="preserve"
   inkscape:version="0.48.2 r9819"
   sodipodi:docname="angle.svg"><metadata
   id="metadata21"><rdf:RDF><cc:Work
       rdf:about=""><dc:format>image/svg+xml</dc:format><dc:type
         rdf:resource="http://purl.org/dc/dcmitype/StillImage" /></cc:Work></rdf:RDF></metadata><defs
   id="defs19" /><sodipodi:namedview
   pagecolor="#ffffff"
   bordercolor="#666666"
   borderopacity="1"
   objecttolerance="10"
   gridtolerance="10"
   guidetolerance="10"
   inkscape:pageopacity="0"
   inkscape:pageshadow="2"
   inkscape:window-width="925"
   inkscape:window-height="642"
   id="namedview17"
   showgrid="false"
   inkscape:zoom="1.5136938"
   inkscape:cx="113.385"
   inkscape:cy="77.955002"
   inkscape:window-x="92"
   inkscape:window-y="17"
   inkscape:window-maximized="0"
   inkscape:current-layer="Layer_1" />
<g
   id="g3"
   transform="translate(-44.262586,-10.624919)">
	<path
   d="m 154.709,107.784 c -2.75,0 -4.988,2.239 -4.988,4.989 v 4.007 c -0.04,0 -0.118,0 -0.157,0 l 0,0 -44.232,-0.078 c 0.118,-0.236 0.196,-0.433 0.314,-0.668 0.354,-0.903 -0.079,-1.965 -0.982,-2.318 -0.903,-0.353 -1.964,0.079 -2.318,0.982 -0.275,0.668 -0.589,1.336 -0.982,2.004 H 82.784 L 97.161,99.535 c 0.707,0.511 1.571,1.257 2.475,2.2 0.354,0.393 0.825,0.55 1.296,0.55 0.432,0 0.864,-0.157 1.218,-0.472 0.707,-0.667 0.747,-1.807 0.079,-2.514 -0.982,-1.061 -1.964,-1.886 -2.789,-2.514 l 49.731,-56.645 2.004,2.003 c 0.981,0.982 2.239,1.454 3.496,1.454 1.257,0 2.553,-0.471 3.496,-1.454 1.925,-1.925 1.925,-5.106 0,-7.031 L 146.775,23.72 c -1.925,-1.925 -5.107,-1.925 -7.032,0 -1.925,1.925 -1.925,5.106 0,7.031 l 2.357,2.317 -73.851,85.281 c -1.257,1.492 -1.532,3.574 -0.707,5.343 0.825,1.728 2.593,2.945 4.518,2.945 l 0,0 77.504,-0.117 c 0.039,0 0.078,0 0.157,0 v 2.121 c 0,2.75 2.238,4.988 4.988,4.988 2.75,0 4.989,-2.238 4.989,-4.988 v -15.909 c -0.04,-2.709 -2.239,-4.948 -4.989,-4.948 z"
   id="path5"
   inkscape:connector-curvature="0" />
	<path
   d="m 103.21,103.149 c -0.903,0.393 -1.296,1.61 -0.903,2.514 0.628,1.414 0.864,2.985 0.864,4.95 0.118,0.942 1.021,1.688 2.003,1.571 0.903,-0.118 1.532,-0.864 1.493,-1.729 h 0.039 c 0,-2.004 -0.235,-4.597 -1.1,-6.521 -0.432,-0.863 -1.492,-1.177 -2.396,-0.785 z"
   id="path7"
   inkscape:connector-curvature="0" />
	<g
   id="g9">
		<path
   d="m 122.969,102.796 h -6.874 c -0.981,0 -1.768,-0.707 -1.768,-1.689 0,-0.746 0.314,-1.375 0.864,-2.003 l 7.268,-8.406 c 0.707,-0.825 1.218,-1.257 2.278,-1.257 0.981,0 1.768,0.746 1.768,1.728 v 8.643 h 0.864 c 0.824,0 1.492,0.668 1.492,1.492 0,0.825 -0.668,1.493 -1.492,1.493 h -0.904 v 2.003 c 0,0.982 -0.785,1.729 -1.768,1.729 -0.981,0 -1.729,-0.746 -1.729,-1.729 v -2.004 z m 0,-2.985 v -5.225 l -4.438,5.225 h 4.438 z"
   id="path11"
   inkscape:connector-curvature="0" />
		<path
   d="m 132.083,105.074 c -0.433,-0.314 -0.747,-0.786 -0.747,-1.414 0,-0.943 0.786,-1.768 1.729,-1.768 0.433,0 0.707,0.117 1.021,0.354 1.021,0.746 2.004,1.061 3.182,1.061 1.532,0 2.711,-0.825 2.711,-2.317 v -0.04 c 0,-1.414 -1.218,-2.278 -2.946,-2.278 -1.414,0 -2.043,0.433 -2.514,0.433 -0.511,0 -0.943,-0.196 -1.65,-0.746 -0.511,-0.354 -0.707,-0.864 -0.668,-1.493 l 0.354,-5.656 c 0.04,-0.864 0.747,-1.571 1.611,-1.571 h 7.267 c 0.864,0 1.61,0.746 1.61,1.61 0,0.864 -0.746,1.61 -1.61,1.61 h -5.735 l -0.196,2.946 c 0.668,-0.157 1.257,-0.275 2.2,-0.275 3.3,0 5.853,1.571 5.853,5.343 v 0.039 c 0,3.535 -2.553,5.774 -6.206,5.774 -2.36,-0.04 -3.931,-0.629 -5.266,-1.612 z"
   id="path13"
   inkscape:connector-curvature="0" />
		<path
   d="m 145.91,93.25 v -0.039 c 0,-2.043 1.61,-3.653 3.692,-3.653 2.082,0 3.653,1.61 3.653,3.614 v 0.039 c 0,2.043 -1.61,3.653 -3.692,3.653 -2.082,0.039 -3.653,-1.571 -3.653,-3.614 z m 0.117,5.735 c 0,-0.432 0.354,-0.785 0.786,-0.785 h 5.578 c 0.432,0 0.785,0.354 0.785,0.785 0,0.433 -0.354,0.786 -0.785,0.786 h -5.578 c -0.432,0 -0.786,-0.353 -0.786,-0.786 z m 5.304,-5.735 v -0.039 c 0,-1.021 -0.707,-1.925 -1.729,-1.925 -1.061,0 -1.689,0.864 -1.689,1.925 v 0.039 c 0,1.021 0.707,1.925 1.729,1.925 1.022,0 1.689,-0.864 1.689,-1.925 z"
   id="path15"
   inkscape:connector-curvature="0" />
	</g>
</g>
</svg>