<?xml version="1.0" encoding="utf-8"?>
<!-- Generator: Adobe Illustrator 16.0.0, SVG Export Plug-In . SVG Version: 6.00 Build 0)  -->
<!DOCTYPE svg PUBLIC "-//W3C//DTD SVG 1.1//EN" "http://www.w3.org/Graphics/SVG/1.1/DTD/svg11.dtd">
<svg version="1.1" id="Layer_1" xmlns="http://www.w3.org/2000/svg" xmlns:xlink="http://www.w3.org/1999/xlink" x="0px" y="0px"
	 width="500px" height="500px" viewBox="0 0 500 500" enable-background="new 0 0 500 500" xml:space="preserve">
<g>
	<path d="M496.929,254.466c-0.984-5.004-4.38-17.862-15.495-36.921C452.598,168.107,392.606,81.96,356.271,66.05
		c-48.154-21.089-108.045,35.565-89.512,63.729s45.165-13.977,75.612,8.529c18.762,13.867,37.497,55.633,49.116,85.656H109.189
		c11.619-30.023,30.354-71.789,49.116-85.656c30.448-22.506,57.079,19.635,75.612-8.529c18.534-28.164-41.357-84.818-89.511-63.729
		C108.071,81.96,48.08,168.107,19.245,217.545c-8.136,13.951-12.138,24.581-14.085,31.241C2.77,254.072,1.425,259.93,1.425,266.1
		v130.286c0,23.235,18.905,42.14,42.141,42.14l120.619-0.021c5.085,0,9.952-1.575,14.077-4.554l73.242-52.921l69.834,52.665
		c4.143,3.125,9.286,4.849,14.478,4.849l120.624,0.007c23.233,0,42.136-18.915,42.136-42.165V266.1
		C498.575,262.064,497.994,258.164,496.929,254.466z M450.491,390.467l-106.624-0.009l-77.584-58.508
		c-4.143-3.124-9.283-4.843-14.474-4.843c-5.087,0-9.954,1.574-14.079,4.553l-81.328,58.763l-106.894,0.016V272.048h400.982V390.467
		z"/>
	<path d="M191.988,291.514c-0.065,0-0.123,0.002-0.177,0.003l-129.11,0.061v84.028l84.155-0.013l69.39-50.138
		C213.879,295.019,198.786,291.514,191.988,291.514z"/>
	<path d="M308.01,291.896c-6.798,0-21.889,3.505-24.258,33.941l69.392,50.138l84.153,0.013v-84.029
		C437.297,291.959,308.074,291.896,308.01,291.896z M425.844,364.532l-68.996-0.009l-60.908-44.011
		c1.283-7.452,4.326-16.705,11.531-17.146l118.373,0.046V364.532z"/>
</g>
</svg>
