<?xml version="1.0" encoding="utf-8"?>
<!-- Generator: Adobe Illustrator 17.1.0, SVG Export Plug-In . SVG Version: 6.00 Build 0)  -->
<!DOCTYPE svg PUBLIC "-//W3C//DTD SVG 1.1//EN" "http://www.w3.org/Graphics/SVG/1.1/DTD/svg11.dtd">
<svg version="1.1" id="Layer_1" xmlns="http://www.w3.org/2000/svg" xmlns:xlink="http://www.w3.org/1999/xlink" x="0px" y="0px"
	 viewBox="0 0 128 128" enable-background="new 0 0 128 128" xml:space="preserve">
<g>
	<polygon points="95,84 95,84 95,84 	"/>
	<path d="M90,76H51c-1.7,0-3,1.3-3,3v2c0,1.7,1.3,3,3,3h40c1.7,0,3-1.3,3-3v-1v-1c0-1.7-1.3-3-3-3H90z"/>
	<path d="M105.9,48c-3.5-15.2-17.1-26.6-33.4-26.6c-16.6,0-30.4,11.7-33.6,27.4c5.1,1.9,8.7,6.9,8.7,12.8l0,13.8
		c0.9-0.8,2.1-1.4,3.4-1.4h40c1.6,0,3,0.8,3.9,1.9c0-6.5-0.1-13.7-0.1-14.4C94.8,55.2,99.7,49.4,105.9,48z M56.6,64.1
		c-1.4,1.4-2.7,2.4-2.8,2.3s0.9-1.4,2.3-2.8s2.7-2.4,2.8-2.3C59,61.4,58,62.7,56.6,64.1z M56,56.1c-1.4-1.4-2.4-2.7-2.3-2.8
		s1.4,0.9,2.8,2.3s2.4,2.7,2.3,2.8S57.4,57.5,56,56.1z M56.6,46.1c-1.4,1.4-2.7,2.4-2.8,2.3s0.9-1.4,2.3-2.8s2.7-2.4,2.8-2.3
		C59,43.4,58,44.7,56.6,46.1z M56,38.1c-1.4-1.4-2.4-2.7-2.3-2.8s1.4,0.9,2.8,2.3s2.4,2.7,2.3,2.8S57.4,39.5,56,38.1z M60.4,60.8
		c-0.7,0-1.2-0.5-1.2-1.2s0.5-1.2,1.2-1.2s1.2,0.5,1.2,1.2S61.1,60.8,60.4,60.8z M60.4,42.8c-0.7,0-1.2-0.5-1.2-1.2s0.5-1.2,1.2-1.2
		s1.2,0.5,1.2,1.2S61.1,42.8,60.4,42.8z M64.1,64.1c-1.4-1.4-2.4-2.7-2.3-2.8s1.4,0.9,2.8,2.3c1.4,1.4,2.4,2.7,2.3,2.8
		C66.7,66.5,65.5,65.5,64.1,64.1z M64.6,56.1c-1.4,1.4-2.7,2.4-2.8,2.3s0.9-1.4,2.3-2.8s2.7-2.4,2.8-2.3C67,53.4,66,54.7,64.6,56.1z
		 M64.1,46.1c-1.4-1.4-2.4-2.7-2.3-2.8s1.4,0.9,2.8,2.3c1.4,1.4,2.4,2.7,2.3,2.8C66.7,48.5,65.5,47.5,64.1,46.1z M64.6,38.1
		c-1.4,1.4-2.7,2.4-2.8,2.3s0.9-1.4,2.3-2.8s2.7-2.4,2.8-2.3C67,35.4,66,36.7,64.6,38.1z M78.6,64.1c-1.4,1.4-2.7,2.4-2.8,2.3
		c-0.2-0.2,0.9-1.4,2.3-2.8s2.7-2.4,2.8-2.3C81,61.4,80,62.7,78.6,64.1z M78,56.1c-1.4-1.4-2.4-2.7-2.3-2.8s1.4,0.9,2.8,2.3
		s2.4,2.7,2.3,2.8S79.4,57.5,78,56.1z M78.6,46.1c-1.4,1.4-2.7,2.4-2.8,2.3c-0.2-0.2,0.9-1.4,2.3-2.8s2.7-2.4,2.8-2.3
		C81,43.4,80,44.7,78.6,46.1z M78,38.1c-1.4-1.4-2.4-2.7-2.3-2.8s1.4,0.9,2.8,2.3s2.4,2.7,2.3,2.8S79.4,39.5,78,38.1z M82.4,60.8
		c-0.7,0-1.2-0.5-1.2-1.2s0.5-1.2,1.2-1.2s1.2,0.5,1.2,1.2S83.1,60.8,82.4,60.8z M82.4,42.8c-0.7,0-1.2-0.5-1.2-1.2s0.5-1.2,1.2-1.2
		s1.2,0.5,1.2,1.2S83.1,42.8,82.4,42.8z M86.1,64.1c-1.4-1.4-2.4-2.7-2.3-2.8s1.4,0.9,2.8,2.3s2.4,2.7,2.3,2.8
		C88.7,66.5,87.5,65.5,86.1,64.1z M86.6,56.1c-1.4,1.4-2.7,2.4-2.8,2.3s0.9-1.4,2.3-2.8s2.7-2.4,2.8-2.3C89,53.4,88,54.7,86.6,56.1z
		 M86.1,46.1c-1.4-1.4-2.4-2.7-2.3-2.8s1.4,0.9,2.8,2.3s2.4,2.7,2.3,2.8C88.7,48.5,87.5,47.5,86.1,46.1z M86.6,38.1
		c-1.4,1.4-2.7,2.4-2.8,2.3s0.9-1.4,2.3-2.8s2.7-2.4,2.8-2.3C89,35.4,88,36.7,86.6,38.1z"/>
	<path d="M108.7,49.7c-0.8,0-1.7,0.1-2.5,0.3c-5.2,1.2-9.4,6.1-9.4,11.6C96.8,62.9,97,86,97,86h-6h-1H45.6c0,0-0.1-24-0.1-24.5
		c0-4.7-2.8-9.1-6.9-10.9c-1.3-0.6-2.8-0.9-4.3-0.9C28.1,49.7,23,54.8,23,61s4.4,11.4,10.7,11.4c0.3,0,0.3,0,0.4,0v1V84v18v8h10v-6
		h2h50v6h10v-8V86v-2V72.4c0.3,0,0.6,0,0.8,0c1.1,0,0.8,0,1,0c6.3,0,12.1-5.1,12.1-11.4C119.8,54.8,115,49.7,108.7,49.7z M34.8,62.5
		c-0.9,0-1.7-0.8-1.7-1.7s0.8-1.7,1.7-1.7s1.7,0.8,1.7,1.7S35.8,62.5,34.8,62.5z M108.8,62.5c-0.9,0-1.7-0.8-1.7-1.7
		s0.8-1.7,1.7-1.7s1.7,0.8,1.7,1.7S109.8,62.5,108.8,62.5z"/>
</g>
</svg>
