<?xml version="1.0" encoding="iso-8859-1"?>
<!-- Generator: Adobe Illustrator 16.0.0, SVG Export Plug-In . SVG Version: 6.00 Build 0)  -->
<!DOCTYPE svg PUBLIC "-//W3C//DTD SVG 1.1//EN" "http://www.w3.org/Graphics/SVG/1.1/DTD/svg11.dtd">
<svg version="1.1" id="Capa_1" xmlns="http://www.w3.org/2000/svg" xmlns:xlink="http://www.w3.org/1999/xlink" x="0px" y="0px"
	 width="611.964px" height="611.964px" viewBox="0 0 611.964 611.964" style="enable-background:new 0 0 611.964 611.964;"
	 xml:space="preserve">
<g>
	<g>
		<path d="M284.554,64.019c-8.261-3.391-17.856-1.479-24.26,4.924L125.881,204.276H22.24C9.938,204.276,0,214.232,0,226.534v160.584
			c0,12.302,9.938,22.24,22.24,22.24h103.01l135.134,135.297c4.256,4.292,9.92,6.565,15.728,6.565c2.868,0,5.736-0.56,8.532-1.714
			c8.297-3.409,13.726-11.562,13.726-20.544l-0.036-444.345C298.334,75.581,292.887,67.5,284.554,64.019z M150.286,371.39
			c-4.167-4.167-9.867-6.512-15.765-6.512H44.498V248.792h90.619c5.952,0,11.616-2.345,15.783-6.566l102.938-103.641l0.036,336.627
			L150.286,371.39z"/>
		<path d="M516.15,306.222c0-83.386-49.584-158.51-126.368-191.356c-11.165-4.87-24.332,0.343-29.184,11.652
			c-4.816,11.291,0.433,24.368,11.724,29.202c60.316,25.901,99.331,84.937,99.331,150.52c0,65.222-38.798,124.096-98.826,149.996
			c-11.291,4.87-16.504,17.983-11.651,29.238c3.644,8.424,11.814,13.42,20.418,13.42c2.958,0,5.916-0.559,8.784-1.84
			C466.783,464.172,516.15,389.21,516.15,306.222z"/>
		<path d="M417.632,306.131c0-44.065-26.189-83.602-66.684-100.81c-11.291-4.689-24.35,0.487-29.202,11.814
			c-4.779,11.291,0.523,24.332,11.814,29.166c24.08,10.209,39.573,33.675,39.573,59.829c0,25.847-15.386,49.277-39.194,59.612
			c-11.255,4.87-16.468,18.001-11.508,29.238c3.644,8.388,11.814,13.384,20.418,13.384c2.958,0,5.916-0.56,8.82-1.857
			C391.748,389.121,417.632,349.709,417.632,306.131z"/>
		<path d="M427.643,26.79c-11.255-4.906-24.368,0.397-29.238,11.688c-4.816,11.292,0.415,24.333,11.67,29.202
			c95.651,41.017,157.41,134.647,157.41,238.542c0,103.587-61.597,197.001-156.851,238.108
			c-11.292,4.889-16.504,17.965-11.652,29.202c3.644,8.441,11.814,13.474,20.437,13.474c2.939,0,5.897-0.613,8.766-1.821
			c111.668-48.159,183.78-157.645,183.78-278.962C612,184.507,539.617,74.805,427.643,26.79z"/>
	</g>
</g>
<g>
</g>
<g>
</g>
<g>
</g>
<g>
</g>
<g>
</g>
<g>
</g>
<g>
</g>
<g>
</g>
<g>
</g>
<g>
</g>
<g>
</g>
<g>
</g>
<g>
</g>
<g>
</g>
<g>
</g>
</svg>
