<?xml version="1.0" encoding="iso-8859-1"?>
<!-- Generator: Adobe Illustrator 16.0.0, SVG Export Plug-In . SVG Version: 6.00 Build 0)  -->
<!DOCTYPE svg PUBLIC "-//W3C//DTD SVG 1.1//EN" "http://www.w3.org/Graphics/SVG/1.1/DTD/svg11.dtd">
<svg version="1.1" id="Capa_1" xmlns="http://www.w3.org/2000/svg" xmlns:xlink="http://www.w3.org/1999/xlink" x="0px" y="0px"
	 width="611.98px" height="611.98px" viewBox="0 0 611.98 611.98" style="enable-background:new 0 0 611.98 611.98;"
	 xml:space="preserve">
<g>
	<g>
		<path d="M91.226,414.833h31.025l50.421-50.42h-56.226V232.852h102.681c6.704,0,13.101-2.698,17.884-7.439l116.641-117.438v75.478
			l50.421-50.421V46.844c0-10.199-6.214-19.457-15.677-23.3c-9.36-3.924-20.172-1.757-27.469,5.519L208.582,182.431H91.226
			c-14,0-25.2,11.282-25.2,25.2v181.981C66.025,403.552,77.246,414.833,91.226,414.833z"/>
		<path d="M353.652,489.411l-78.095-78.176l-35.644,35.645L360.989,568.2c4.823,4.824,11.282,7.379,17.884,7.379
			c3.229,0,6.479-0.592,9.605-1.922c9.401-3.883,15.615-13.1,15.615-23.299V282.741l-50.421,50.422v156.248H353.652z"/>
		<path d="M603.855,8.093c-5.396-5.416-12.508-8.073-19.6-8.073s-14.164,2.657-19.601,8.073L404.073,168.696l-50.421,50.421
			L208.316,364.413l-50.421,50.42L8.124,564.646c-10.832,10.832-10.832,28.367,0,39.199c5.416,5.416,12.488,8.115,19.58,8.115
			c7.112,0,14.184-2.719,19.6-8.115l174.787-174.787l35.705-35.686l95.856-95.875l50.421-50.421L603.855,47.273
			C614.688,36.502,614.688,18.926,603.855,8.093z"/>
	</g>
</g>
<g>
</g>
<g>
</g>
<g>
</g>
<g>
</g>
<g>
</g>
<g>
</g>
<g>
</g>
<g>
</g>
<g>
</g>
<g>
</g>
<g>
</g>
<g>
</g>
<g>
</g>
<g>
</g>
<g>
</g>
</svg>
