<?xml version="1.0" encoding="iso-8859-1"?>
<!-- Generator: Adobe Illustrator 17.1.0, SVG Export Plug-In . SVG Version: 6.00 Build 0)  -->
<!DOCTYPE svg PUBLIC "-//W3C//DTD SVG 1.1//EN" "http://www.w3.org/Graphics/SVG/1.1/DTD/svg11.dtd">
<svg version="1.1" id="Layer_1" xmlns="http://www.w3.org/2000/svg" xmlns:xlink="http://www.w3.org/1999/xlink" x="0px" y="0px"
	 viewBox="0 0 64 64" style="enable-background:new 0 0 64 64;" xml:space="preserve">
<g>
	<path d="M15.098,59.465c2.687-0.533,4.526-2.96,5.573-5.465H19.25c-0.606,0-1.206-0.012-1.799-0.039
		c-0.616,1.26-1.551,2.35-2.947,2.568c-0.431-0.373-0.985-0.606-1.6-0.606c-1.357,0-2.457,1.1-2.457,2.457
		c0,1.357,1.1,2.457,2.457,2.457C13.87,60.837,14.697,60.275,15.098,59.465z"/>
	<path d="M53.418,60.837c1.357,0,2.457-1.1,2.457-2.457c0-1.357-1.1-2.457-2.457-2.457c-0.542,0-1.039,0.181-1.445,0.479
		c-1.192-0.397-2.048-1.444-2.643-2.61C48.42,53.95,47.611,54,47.004,54h-0.161H46.75h-0.815c0.858,2.355,2.446,4.642,5.227,5.35
		C51.538,60.224,52.406,60.837,53.418,60.837z"/>
	<path d="M49.395,13.937l-5.022-5.023c-0.922,0.235-3.749,2.058-4.594,2.94l6.683,6.683C47.338,17.699,49.142,14.9,49.395,13.937z"
		/>
	<path d="M39.854,15.818c0.128,0,0.256-0.049,0.354-0.146l0.707-0.707c0.045-0.045,0.076-0.097,0.1-0.151
		c0.082-0.184,0.05-0.405-0.1-0.556s-0.372-0.182-0.556-0.1c-0.054,0.024-0.106,0.056-0.151,0.1L39.5,14.964
		c-0.195,0.195-0.195,0.512,0,0.707C39.598,15.769,39.726,15.818,39.854,15.818z"/>
	<path d="M37.732,17.939c0.128,0,0.256-0.049,0.354-0.146l0.707-0.707c0.195-0.195,0.195-0.512,0-0.707s-0.512-0.195-0.707,0
		l-0.707,0.707c-0.195,0.195-0.195,0.512,0,0.707C37.477,17.891,37.604,17.939,37.732,17.939z"/>
	<path d="M35.611,20.061c0.128,0,0.256-0.049,0.354-0.146l0.707-0.707c0.195-0.195,0.195-0.512,0-0.707s-0.512-0.195-0.707,0
		l-0.707,0.707c-0.195,0.195-0.195,0.512,0,0.707C35.355,20.012,35.483,20.061,35.611,20.061z"/>
	<path d="M42.428,16.227c0.082-0.184,0.051-0.406-0.1-0.556c-0.151-0.151-0.372-0.182-0.556-0.1c-0.054,0.024-0.106,0.056-0.151,0.1
		l-0.707,0.708c-0.195,0.195-0.195,0.512,0,0.707c0.098,0.098,0.226,0.146,0.354,0.146s0.256-0.049,0.354-0.146l0.707-0.708
		C42.373,16.334,42.404,16.282,42.428,16.227z"/>
	<path d="M40.207,17.793c-0.195-0.195-0.512-0.195-0.707,0L38.793,18.5c-0.195,0.195-0.195,0.512,0,0.707
		c0.098,0.098,0.226,0.146,0.354,0.146s0.256-0.049,0.354-0.146l0.707-0.707C40.402,18.305,40.402,17.988,40.207,17.793z"/>
	<path d="M38.086,19.914c-0.195-0.195-0.512-0.195-0.707,0l-0.707,0.708c-0.195,0.195-0.195,0.512,0,0.707
		c0.098,0.098,0.226,0.146,0.354,0.146s0.256-0.049,0.354-0.146l0.707-0.708C38.281,20.426,38.281,20.109,38.086,19.914z"/>
	<path d="M42.682,18.646c0.128,0,0.256-0.049,0.354-0.146l0.707-0.707c0.045-0.045,0.076-0.097,0.1-0.151
		c0.082-0.184,0.05-0.405-0.1-0.556s-0.372-0.182-0.556-0.1c-0.054,0.024-0.107,0.056-0.151,0.1l-0.707,0.707
		c-0.195,0.195-0.195,0.512,0,0.707C42.426,18.598,42.554,18.646,42.682,18.646z"/>
	<path d="M40.561,20.768c0.128,0,0.256-0.049,0.354-0.146l0.707-0.707c0.195-0.195,0.195-0.512,0-0.707s-0.512-0.195-0.707,0
		l-0.707,0.707c-0.195,0.195-0.195,0.512,0,0.707C40.305,20.719,40.433,20.768,40.561,20.768z"/>
	<path d="M38.439,22.889c0.128,0,0.256-0.049,0.354-0.146l0.707-0.707c0.195-0.195,0.195-0.512,0-0.707s-0.512-0.195-0.707,0
		l-0.707,0.707c-0.195,0.195-0.195,0.512,0,0.707C38.184,22.84,38.312,22.889,38.439,22.889z"/>
	<path d="M61,29h-1.5H58V6c0-0.552-0.447-1-1-1h-4.344c-0.251,0-0.493,0.094-0.678,0.264l-3.594,3.309
		c-0.817-0.207-1.749,0.072-2.324,0.306l3.434,3.435c0.248-0.64,0.478-1.514,0.283-2.304L53.047,7H56v22H5.5H4c-1.105,0-2,0.895-2,2
		v2c0,1.105,0.895,2,2,2h0.223h0.44h0.581c0.152,0.774,0.348,1.664,0.596,2.69l1.4,6.708c1.959,7.25,5.926,8.427,10.627,8.579
		C18.322,52.991,18.782,53,19.25,53l1.801,0l24.559,0.001c-0.001-0.005-0.002-0.009-0.004-0.014
		c0.001,0.004,0.002,0.009,0.004,0.013h1.394c0.567,0,1.217-0.036,1.914-0.139c0,0,0,0,0,0c3.075-0.453,7.069-2.207,8.935-7.935
		L60.128,35h0.592H61c0.054,0,0.104-0.012,0.157-0.016C62.187,34.903,63,34.051,63,33v-2C63,29.895,62.105,29,61,29z M45.06,49.897
		L45.06,49.897c0,0.006,0.001,0.013,0.002,0.019C45.061,49.91,45.06,49.903,45.06,49.897z"/>
</g>
</svg>
