<?xml version="1.0" encoding="utf-8"?>
<!-- Generator: Adobe Illustrator 17.1.0, SVG Export Plug-In . SVG Version: 6.00 Build 0)  -->
<!DOCTYPE svg PUBLIC "-//W3C//DTD SVG 1.1//EN" "http://www.w3.org/Graphics/SVG/1.1/DTD/svg11.dtd">
<svg version="1.1" id="Layer_1" xmlns="http://www.w3.org/2000/svg" xmlns:xlink="http://www.w3.org/1999/xlink" x="0px" y="0px"
	 viewBox="0 0 128 128" enable-background="new 0 0 128 128" xml:space="preserve">
<path d="M96.6,41.3H71.9c-1.9,0-3.8,1.3-3.8,3.2V54c0,1.9,1.9,3.8,3.8,3.8h25.8c1.8,0,3.1-1.5,3.3-3.2c0-0.2,0-10.1,0-10.1
	c0-1.9-1.3-3.2-3.3-3.2H96.6z"/>
<path d="M62.4,39.2c1.9,0,3.6,0.9,4.7,2.4c1.1-1.4,2.8-2.4,4.7-2.4h25.9c1.3,0,2.8-0.1,3.3,0.6v-13H33v13c0.7-0.7,2.2-0.6,3.5-0.6
	H62.4z"/>
<path d="M115.7,76.3l-12.9-19.4c-1,1.8-2.9,3-5.1,3H71.9c-1.9,0-3.6-1-4.7-2.4l0,0c-1.2,1.4-3,2.4-4.7,2.4H36.5c-2.2,0-4-1.3-5-3.1
	l-0.3,0.4L16.5,76.3H115.7z"/>
<path d="M21.2,93c0.6,0.6,0.9,1,1.9,1c0,0-0.4,0-0.4,0v5.9c0,1.3,2.2,2.4,4.1,2.4s4.1-1.1,4.1-2.4V89.3c0,0,1.6,0.5,2.2,1
	c1.4,1.4,2.1,3.6,4.5,3.6c3.5,0,3.5-4.7,7-4.7c3.5,0,3.5,4.7,7,4.7c3.5,0,3.5-4.7,7-4.7c3.5,0,3.5,4.7,7,4.7c3.5,0,3.5-4.7,7-4.7
	c3.5,0,3.5,4.7,7,4.7c3.5,0,3.5-4.7,7.1-4.7c3.5,0,3.5,4.7,7.1,4.7c2.6,0,3.3-2.6,5-3.9c0.6-0.4,1.1-0.7,2-0.7c0.1,0,0.1,0,0.1,0
	v10.5c0,1.3,2.2,2.4,4.1,2.4c1.9,0,4.1-1.1,4.1-2.4v-5.9c0,0,1.3-0.4,1.9-0.9c1.7-1.4,2.2-3.7,4.3-3.7V78.4H16.5v10.9
	C19,89.3,19.8,91.6,21.2,93z"/>
<path d="M66,44.5c0-1.9-1.6-3.2-3.6-3.2H36.5c-1.9,0-3.5,1.3-3.5,3.2c0,0,0,9.9,0,10.1c0.2,1.7,1.7,3.2,3.5,3.2h25.9
	c1.9,0,3.5-1.9,3.5-3.8V44.5z"/>
</svg>
