<?xml version="1.0" encoding="utf-8"?>
<!-- Generator: Adobe Illustrator 17.1.0, SVG Export Plug-In . SVG Version: 6.00 Build 0)  -->
<!DOCTYPE svg PUBLIC "-//W3C//DTD SVG 1.1//EN" "http://www.w3.org/Graphics/SVG/1.1/DTD/svg11.dtd">
<svg version="1.1" id="Layer_1" xmlns="http://www.w3.org/2000/svg" xmlns:xlink="http://www.w3.org/1999/xlink" x="0px" y="0px"
	 viewBox="0 0 128 128" enable-background="new 0 0 128 128" xml:space="preserve">
<path d="M29.2,18.1l8.2,1h35v8.2H35.3v-6.4L4.4,17.2v94.3l30.9-7.3V29.3h6.2v8.4c-1.2,0.4-2.1,1.6-2.1,2.9v39.2
	c0,1.7,1.4,3.1,3.1,3.1c1.7,0,3.1-1.4,3.1-3.1V40.7c0-1.3-0.9-2.5-2.1-2.9v-8.4h8.2v8.4c-1.2,0.4-2.1,1.6-2.1,2.9V86
	c0,1.7,1.4,3.1,3.1,3.1s3.1-1.4,3.1-3.1V40.7c0-1.3-0.9-2.5-2.1-2.9v-8.4h8.2v8.4c-1.2,0.4-2.1,1.6-2.1,2.9V86
	c0,1.7,1.4,3.1,3.1,3.1s3.1-1.4,3.1-3.1V40.7c0-1.3-0.9-2.5-2.1-2.9v-8.4h8.2v76.2h-35l-8.2,2.2V120h6.2v-6.2h37.1v6.2h6.2v-6.2
	h37.1v6.2h6.2V12.8H29.2V18.1z M78.6,19h35v86.5h-35V19z"/>
<path d="M80.7,103.5h30.9V21.1H80.7V103.5z M86.6,57.3c1.4,0,2.6,1.2,2.6,2.6c0,1.4-1.2,2.6-2.6,2.6c-1.4,0-2.6-1.2-2.6-2.6
	C84,58.4,85.2,57.3,86.6,57.3z"/>
<polygon points="29.2,10.8 121.9,10.8 126,6.7 25,6.7 "/>
</svg>
