<?xml version="1.0" encoding="iso-8859-1"?>
<!-- Generator: Adobe Illustrator 17.1.0, SVG Export Plug-In . SVG Version: 6.00 Build 0)  -->
<!DOCTYPE svg PUBLIC "-//W3C//DTD SVG 1.1//EN" "http://www.w3.org/Graphics/SVG/1.1/DTD/svg11.dtd">
<svg version="1.1" id="Layer_1" xmlns="http://www.w3.org/2000/svg" xmlns:xlink="http://www.w3.org/1999/xlink" x="0px" y="0px"
	 viewBox="0 0 64 64" style="enable-background:new 0 0 64 64;" xml:space="preserve">
<path d="M51,20H16v6h35V20z M32.875,24.062c-0.69,0-1.25-0.56-1.25-1.25s0.56-1.25,1.25-1.25s1.25,0.56,1.25,1.25
	S33.565,24.062,32.875,24.062z"/>
<path d="M31,31H16v20h15V31z M27.875,43.062c-0.69,0-1.25-0.56-1.25-1.25s0.56-1.25,1.25-1.25s1.25,0.56,1.25,1.25
	S28.565,43.062,27.875,43.062z"/>
<path d="M51,31H36v20h15V31z M38.875,43.062c-0.69,0-1.25-0.56-1.25-1.25s0.56-1.25,1.25-1.25s1.25,0.56,1.25,1.25
	S39.565,43.062,38.875,43.062z"/>
<path d="M56,58v-3v-3V16H11v36v3v3h3v-3h18v3h3v-3h18v3H56z M32,52H15V30h17V52z M52,52H35V30h17V52z M52,27H15v-8h37V27z"/>
<polygon points="56,15 58,13 9,13 11,15 "/>
</svg>
