<?xml version="1.0" encoding="utf-8"?>
<!-- Generator: Adobe Illustrator 16.0.0, SVG Export Plug-In . SVG Version: 6.00 Build 0)  -->
<!DOCTYPE svg PUBLIC "-//W3C//DTD SVG 1.1//EN" "http://www.w3.org/Graphics/SVG/1.1/DTD/svg11.dtd">
<svg version="1.1" id="Layer_2" xmlns="http://www.w3.org/2000/svg" xmlns:xlink="http://www.w3.org/1999/xlink" x="0px" y="0px"
	 width="126px" height="126px" viewBox="0 0 126 126" enable-background="new 0 0 126 126" xml:space="preserve">
<g>
	<circle fill="#010101" cx="30.708" cy="41.959" r="9.144"/>
	<circle fill="#010101" cx="24.169" cy="69.061" r="7.256"/>
	<circle fill="#010101" cx="36.58" cy="94.024" r="6.619"/>
	<circle fill="#010101" cx="62.134" cy="105.169" r="6.289"/>
	<circle fill="#010101" cx="88.873" cy="97.282" r="5.36"/>
	<circle fill="#010101" cx="104.288" cy="74.053" r="4.799"/>
	<path fill="#010101" d="M101.809,50.016c2.025-0.357,3.377-2.288,3.02-4.313c-0.355-2.026-2.287-3.378-4.311-3.021
		c-2.027,0.357-3.379,2.287-3.022,4.313C97.854,49.021,99.783,50.373,101.809,50.016z"/>
	<circle fill="#010101" cx="80.962" cy="27.135" r="2.584"/>
	<circle fill="#010101" cx="53.137" cy="25.402" r="10.862"/>
	<path fill="#010101" d="M49.76,42.859h-3.607c-1.278,0-2.32,1.04-2.32,2.319v7.214c0,1.278,1.042,2.318,2.32,2.318h3.607
		c1.279,0,2.317-1.04,2.317-2.318v-7.214C52.077,43.899,51.039,42.859,49.76,42.859z M50.531,52.393
		c0,0.426-0.346,0.772-0.771,0.772h-3.607c-0.425,0-0.774-0.347-0.774-0.772v-7.214c0-0.426,0.35-0.772,0.774-0.772h3.607
		c0.426,0,0.771,0.347,0.771,0.772V52.393z"/>
	<path fill="#010101" d="M68.955,54.711h3.605c1.279,0,2.32-1.04,2.32-2.318v-7.214c0-1.279-1.041-2.319-2.32-2.319h-3.605
		c-1.279,0-2.318,1.04-2.318,2.319v7.214C66.637,53.671,67.676,54.711,68.955,54.711z M68.183,45.179
		c0-0.426,0.346-0.772,0.772-0.772h3.605c0.427,0,0.774,0.347,0.774,0.772v7.214c0,0.426-0.348,0.772-0.774,0.772h-3.605
		c-0.427,0-0.772-0.347-0.772-0.772V45.179z"/>
	<path fill="#010101" d="M64.574,69.912v-7.215c0-1.277-1.04-2.317-2.318-2.317h-3.608c-1.278,0-2.316,1.04-2.316,2.317v7.215
		c0,1.278,1.038,2.318,2.316,2.318h3.608C63.534,72.23,64.574,71.19,64.574,69.912z M57.875,69.912v-7.215
		c0-0.426,0.348-0.772,0.772-0.772h3.608c0.426,0,0.771,0.347,0.771,0.772v7.215c0,0.426-0.346,0.771-0.771,0.771h-3.608
		C58.223,70.684,57.875,70.338,57.875,69.912z"/>
	<path fill="#010101" d="M49.052,75.951h-3.607c-1.278,0-2.319,1.042-2.319,2.319v7.215c0,1.278,1.041,2.317,2.319,2.317h3.607
		c1.278,0,2.316-1.039,2.316-2.317v-7.215C51.368,76.993,50.33,75.951,49.052,75.951z M49.824,85.485
		c0,0.426-0.346,0.771-0.772,0.771h-3.607c-0.426,0-0.773-0.346-0.773-0.771v-7.215c0-0.426,0.348-0.772,0.773-0.772h3.607
		c0.427,0,0.772,0.347,0.772,0.772V85.485z"/>
	<path fill="#010101" d="M73.475,76.269h-3.607c-1.278,0-2.316,1.041-2.316,2.318v7.215c0,1.279,1.038,2.317,2.316,2.317h3.607
		c1.279,0,2.319-1.038,2.319-2.317v-7.215C75.794,77.31,74.754,76.269,73.475,76.269z M74.247,85.802
		c0,0.426-0.347,0.772-0.772,0.772h-3.607c-0.425,0-0.772-0.347-0.772-0.772v-7.215c0-0.426,0.348-0.771,0.772-0.771h3.607
		c0.426,0,0.772,0.346,0.772,0.771V85.802z"/>
	<path fill="#010101" d="M56.642,46.456l3.038-2.115v9.598c0,0.428,0.346,0.772,0.773,0.772c0.426,0,0.771-0.345,0.771-0.772V42.859
		c0-0.289-0.16-0.553-0.414-0.686c-0.258-0.135-0.565-0.114-0.8,0.051l-4.253,2.962c-0.35,0.245-0.436,0.727-0.19,1.077
		C55.811,46.614,56.293,46.699,56.642,46.456z"/>
	<path fill="#010101" d="M49.373,72.618c0.428,0,0.773-0.346,0.773-0.773V60.766c0-0.287-0.16-0.553-0.416-0.686
		c-0.255-0.134-0.563-0.112-0.799,0.052l-4.252,2.963c-0.35,0.243-0.435,0.727-0.191,1.075c0.244,0.35,0.725,0.436,1.075,0.192
		l3.038-2.115v9.598C48.602,72.272,48.945,72.618,49.373,72.618z"/>
	<path fill="#010101" d="M61.355,88.19c0.428,0,0.773-0.347,0.773-0.773V76.338c0-0.287-0.16-0.553-0.416-0.686
		c-0.256-0.134-0.563-0.113-0.8,0.052l-4.251,2.962c-0.351,0.243-0.436,0.727-0.192,1.076c0.245,0.349,0.726,0.436,1.076,0.192
		l3.037-2.116v9.599C60.583,87.844,60.927,88.19,61.355,88.19z"/>
	<path fill="#010101" d="M72.884,72.618c0.426,0,0.772-0.346,0.772-0.773V60.766c0-0.287-0.161-0.553-0.414-0.686
		c-0.255-0.134-0.564-0.112-0.801,0.052l-4.249,2.963c-0.353,0.243-0.438,0.727-0.194,1.075c0.245,0.35,0.726,0.436,1.076,0.192
		l3.036-2.115v9.598C72.11,72.272,72.457,72.618,72.884,72.618z"/>
	<path fill="#010101" d="M85.457,54.711c1.279,0,2.318-1.04,2.318-2.318v-7.214c0-1.279-1.039-2.319-2.318-2.319H81.85
		c-1.278,0-2.317,1.04-2.317,2.319v7.214c0,1.278,1.039,2.318,2.317,2.318H85.457z M81.078,52.393v-7.214
		c0-0.426,0.346-0.772,0.771-0.772h3.607c0.426,0,0.773,0.347,0.773,0.772v7.214c0,0.426-0.348,0.772-0.773,0.772H81.85
		C81.424,53.165,81.078,52.818,81.078,52.393z"/>
	<path fill="#010101" d="M88.689,85.802v-7.215c0-1.277-1.04-2.318-2.319-2.318h-3.607c-1.278,0-2.316,1.041-2.316,2.318v7.215
		c0,1.279,1.038,2.317,2.316,2.317h3.607C87.649,88.119,88.689,87.081,88.689,85.802z M81.99,85.802v-7.215
		c0-0.426,0.348-0.771,0.772-0.771h3.607c0.426,0,0.772,0.346,0.772,0.771v7.215c0,0.426-0.347,0.772-0.772,0.772h-3.607
		C82.338,86.574,81.99,86.228,81.99,85.802z"/>
	<path fill="#010101" d="M85.779,72.618c0.426,0,0.772-0.346,0.772-0.773V60.766c0-0.287-0.161-0.553-0.413-0.686
		c-0.256-0.134-0.565-0.112-0.802,0.052l-4.249,2.963c-0.352,0.243-0.438,0.727-0.194,1.075c0.245,0.35,0.726,0.436,1.076,0.192
		l3.036-2.115v9.598C85.006,72.272,85.353,72.618,85.779,72.618z"/>
</g>
</svg>
