<?xml version="1.0" encoding="iso-8859-1"?>
<!-- Generator: Adobe Illustrator 17.1.0, SVG Export Plug-In . SVG Version: 6.00 Build 0)  -->
<!DOCTYPE svg PUBLIC "-//W3C//DTD SVG 1.1//EN" "http://www.w3.org/Graphics/SVG/1.1/DTD/svg11.dtd">
<svg version="1.1" id="Layer_1" xmlns="http://www.w3.org/2000/svg" xmlns:xlink="http://www.w3.org/1999/xlink" x="0px" y="0px"
	 viewBox="0 0 800 800" style="enable-background:new 0 0 800 800;" xml:space="preserve">
<path d="M398.714,292.895v329.663l262.454-49.807V412.127c0-6.723,5.857-11.946,12.536-11.18l32.289,4.997
	c5.681,0.652,9.97,5.461,9.97,11.18v186.599c0,5.303-3.703,9.887-8.888,11.002l-287.304,61.775
	c-13.884,2.985-28.24,3.017-42.137,0.094l-284.22-59.784c-5.101-1.073-8.798-5.509-8.933-10.721l-4.91-189.508
	c-0.154-5.943,4.342-10.981,10.264-11.501l241.427-21.213c4.187-0.368,7.82-3.039,9.421-6.925l36.371-88.33
	C381.748,277.212,398.714,280.568,398.714,292.895z M76.841,184.959L1.078,346.902c-3.702,7.913,2.632,16.843,11.324,15.965
	l284.525-28.75c4.021-0.406,7.515-2.937,9.154-6.631l91.549-206.248L85.001,178.66C81.423,179.317,78.383,181.664,76.841,184.959z
	 M397.631,121.238l96.871,212.696c1.693,3.717,5.267,6.225,9.339,6.553l283.987,22.838c8.558,0.688,14.704-8.076,11.14-15.887
	l-74.063-162.369c-1.532-3.358-4.612-5.751-8.245-6.405L397.631,121.238z"/>
</svg>
