<?xml version="1.0" encoding="utf-8"?>
<!-- Generator: Adobe Illustrator 16.0.0, SVG Export Plug-In . SVG Version: 6.00 Build 0)  -->
<!DOCTYPE svg PUBLIC "-//W3C//DTD SVG 1.1//EN" "http://www.w3.org/Graphics/SVG/1.1/DTD/svg11.dtd">
<svg version="1.1" id="Layer_10" xmlns="http://www.w3.org/2000/svg" xmlns:xlink="http://www.w3.org/1999/xlink" x="0px" y="0px"
	 width="100px" height="100px" viewBox="0 0 100 100" enable-background="new 0 0 100 100" xml:space="preserve">
<path d="M89.944,53.674c0-1.572-0.355-3.073-0.995-4.446c-0.066-0.349-0.142-0.698-0.236-1.051l-6.939-8.698l-0.047-0.155
	c-2.429-7.229-5.883-22.42-14.644-22.42H33.091c-8.976,0-11.648,15.357-14.13,22.38l-7.258,8.74c-1.05,1.681-1.646,3.605-1.646,5.65
	v5.351c0,0.827,0.098,1.636,0.284,2.416c-0.181,0.47-0.284,0.979-0.284,1.513V78.87c0,2.335,1.892,4.227,4.226,4.227h6.27
	c2.333,0,4.226-1.892,4.226-4.227v-7.958h50.947v7.958c0,2.335,1.892,4.227,4.226,4.227h5.769c2.334,0,4.226-1.892,4.226-4.227
	V62.953c0-0.533-0.103-1.043-0.284-1.513c0.187-0.78,0.284-1.589,0.284-2.416V53.674z M33.369,20.381c0,0,31.416,0,32.75,0
	s7.334,3.583,9.5,16.5H54.441l11.314-12.948l-1.271-1.482l-3.142,2.433v2.66l-6.16,7.049h-1.408l-1.95,2.289H25.369
	C25.369,32.297,28.494,20.631,33.369,20.381z M28.463,61.057h-9.252c-1.667,0-3.019-1.352-3.019-3.019
	c0-1.666,0.352-5.017,2.019-5.017l10.252,2c1.666,0,3.018,1.351,3.018,3.017C31.48,59.705,30.129,61.057,28.463,61.057z
	 M61.199,60.953H39.676c-1.056,0-1.961-5.855-1.961-6.911c0-1.055,0.855-1.911,1.911-1.911h21.523c1.056,0,1.91,0.856,1.91,1.911
	C63.06,55.098,62.254,60.953,61.199,60.953z M81.439,61.057h-9.252c-1.666,0-3.018-1.352-3.018-3.019
	c0-1.666,1.352-3.017,3.018-3.017l10.252-2c1.667,0,2.019,3.351,2.019,5.017C84.458,59.705,83.106,61.057,81.439,61.057z"/>
</svg>
