<?xml version="1.0" encoding="utf-8"?>
<!-- Generator: Adobe Illustrator 16.0.4, SVG Export Plug-In . SVG Version: 6.00 Build 0)  -->
<!DOCTYPE svg PUBLIC "-//W3C//DTD SVG 1.1//EN" "http://www.w3.org/Graphics/SVG/1.1/DTD/svg11.dtd">
<svg version="1.1" id="Layer_1" xmlns="http://www.w3.org/2000/svg" xmlns:xlink="http://www.w3.org/1999/xlink" x="0px" y="0px"
	 width="32.832px" height="30.52px" viewBox="0 0 32.832 30.52" enable-background="new 0 0 32.832 30.52" xml:space="preserve">
<path d="M19.193,4.402L24.5,28.398l7.732-1.711l-5.574-25.21l-7.465,1.651V2.625h-7.921v25.819h7.921V4.402z M30.941,25.865
	l-5.617,1.241l-0.521-2.364l5.615-1.243L30.941,25.865z M25.833,2.77l3.153,14.258l-5.616,1.242L20.216,4.011L25.833,2.77z
	 M18.109,27.363h-5.753V24.94h5.753V27.363z M18.109,18.313h-5.753V3.709h5.753V18.313z M10.155,2.584H2.234v25.819h7.921V2.584z
	 M9.071,27.321H3.318v-2.422h5.753V27.321z M9.071,18.27H3.318V3.667h5.753V18.27z M32.832,29.231v1.289H0V0h1.289v29.23H32.832z
	 M8.382,5.911H4.138V5.266h4.244V5.911z M17.355,6.233h-4.244V5.588h4.244V6.233z M25.751,5.139L21.6,6.023l-0.134-0.631
	l4.151-0.884L25.751,5.139z"/>
</svg>
