<?xml version="1.0" encoding="utf-8"?>
<!-- Generator: Adobe Illustrator 17.1.0, SVG Export Plug-In . SVG Version: 6.00 Build 0)  -->
<!DOCTYPE svg PUBLIC "-//W3C//DTD SVG 1.1//EN" "http://www.w3.org/Graphics/SVG/1.1/DTD/svg11.dtd">
<svg version="1.1" id="Layer_1" xmlns="http://www.w3.org/2000/svg" xmlns:xlink="http://www.w3.org/1999/xlink" x="0px" y="0px"
	 viewBox="0 0 128 128" enable-background="new 0 0 128 128" xml:space="preserve">
<path d="M59,87.8c-1.2-0.4-2-1.5-2-2.8v-1h14v1c0,1.3-0.8,2.4-2,2.8c-0.3,0.1-0.6,0.2-1,0.2h-1h-6h-1C59.6,88,59.3,87.9,59,87.8z
	 M85,72h-8.7h-0.1H50.5H42c-1.7,0-3,1.3-3,3v4c0,1.7,1.3,3,3,3h13.1h0.5h1.6h13.3h0.4h2.1H86c1.7,0,3-1.3,3-3v-3
	C89,73.8,87.2,72,85,72z M47.1,66.4c0.5,1.7,2.4,3.6,4.2,3.6h25.8h0c0.5,0,2.9-0.2,4.1-3.6l6.9-25.9c0.3-1.5,0.6-5.6-2.3-9.1
	c-2.5-3-7-4.8-12.9-5.2C72,26,71.1,26,70.2,26c0,0,0,0,0,0h-14c0,0,0,0,0,0c-1,0-2,0-2.9,0.1c0,0,0,0-0.1,0
	c-6.3,0.6-9.6,3.1-11.3,5.3c-2.3,3-2.5,6.6-1.9,9L47.1,66.4z M34.5,60.1c-0.1-0.3-0.3-0.6-0.5-0.9c-1.5-2-5.7-1.2-7.9-1.2
	c-1.6,0-2.9,1.3-2.9,2.9c0,1.8,1.3,3.1,2.9,3.1h5.1v2v12c0,0,4,0,4,0c0,0,0-14.2-0.1-15.5C35,61.7,34.9,60.8,34.5,60.1z M101.9,58
	c-2.3,0-6.4-0.8-7.9,1.2c-0.2,0.3-0.4,0.6-0.5,0.9c-0.3,0.8-0.5,1.6-0.5,2.5C92.8,63.8,92.8,78,92.8,78c0,0,4,0,4,0V66v-2h5.1
	c1.6,0,2.9-1.3,2.9-3.1C104.8,59.3,103.5,58,101.9,58z M84.2,109.8c0.6,0,1.2,0.1,1.8,0.3c-1.8-4.6-6.5-8.3-17-9.2
	c-0.7-0.1-1.3-0.1-2-0.2V90h-6v10.7c-0.7,0-1.4,0.1-2,0.1c-12.2,0.9-17,5.5-18.9,9.1c0.4-0.1,0.7-0.1,1.1-0.1c1,0,2,0.3,2.9,0.9
	c1.6-2.4,5.5-5.2,14.9-5.9c0.6,0,1.3-0.1,2-0.1v6c0.9-0.6,1.9-0.9,3-0.9c1.1,0,2.1,0.3,3,1v-6c0.7,0,1.4,0.1,2,0.1
	c7.9,0.7,11.3,3,12.8,5.5C82.6,110,83.4,109.8,84.2,109.8z M66.5,113c-0.6-0.7-1.5-1.2-2.5-1.2c-0.8,0-1.4,0.3-2,0.7
	c-0.8,0.6-1.3,1.5-1.3,2.5c0,0.1,0,0.1,0,0.2c0,1.8,1.5,3.3,3.3,3.3s3.3-1.5,3.3-3.3c0-0.1,0-0.1,0-0.2
	C67.3,114.2,67,113.5,66.5,113z M86.8,113c-0.6-0.7-1.5-1.2-2.5-1.2c-0.8,0-1.4,0.3-2,0.7c-0.8,0.6-1.3,1.5-1.3,2.5
	c0,0.1,0,0.1,0,0.2c0,1.8,1.5,3.3,3.3,3.3s3.3-1.5,3.3-3.3c0-0.1,0-0.1,0-0.2C87.5,114.2,87.2,113.5,86.8,113z M43.8,113
	c-0.6-0.7-1.5-1.2-2.5-1.2c-0.8,0-1.4,0.3-2,0.7c-0.8,0.6-1.3,1.5-1.3,2.5c0,0.1,0,0.1,0,0.2c0,1.8,1.5,3.3,3.3,3.3s3.3-1.5,3.3-3.3
	c0-0.1,0-0.1,0-0.2C44.5,114.2,44.2,113.5,43.8,113z"/>
</svg>
