<?xml version="1.0" encoding="utf-8"?>
<!-- Generator: Adobe Illustrator 16.0.0, SVG Export Plug-In . SVG Version: 6.00 Build 0)  -->
<!DOCTYPE svg PUBLIC "-//W3C//DTD SVG 1.1//EN" "http://www.w3.org/Graphics/SVG/1.1/DTD/svg11.dtd">
<svg version="1.1" id="Layer_1" xmlns="http://www.w3.org/2000/svg" xmlns:xlink="http://www.w3.org/1999/xlink" x="0px" y="0px"
	 width="126px" height="126px" viewBox="0 0 126 126" enable-background="new 0 0 126 126" xml:space="preserve">
<g>
	<path d="M20.332,97.345h22.032l3.018-17.919H24.105L20.332,97.345z M27.595,83.726h12.701l-1.569,9.319H25.633L27.595,83.726z"/>
	<polygon points="48.128,61.85 43.562,64.532 43.13,67.095 30.78,67.095 32.631,58.304 42.958,58.304 49.349,54.594 49.408,54.247 
		29.338,54.247 25.78,71.151 46.561,71.151 	"/>
	<polygon points="50.375,55.292 39.445,61.638 36.593,58.897 33.756,60.623 38.744,65.897 53.034,57.501 	"/>
	<path d="M124.511,18.834l-5.369-6.356c-1.409-1.668-3.904-1.878-5.574-0.469l-4.626,3.909l10.473,12.399l4.627-3.908
		C125.711,22.998,125.921,20.502,124.511,18.834z"/>
	<polygon points="104.671,43.73 100.046,47.612 115.052,109.516 7.433,109.516 23.33,43.944 72,43.944 78.673,38.535 19.075,38.535 
		0.555,114.925 121.93,114.925 	"/>
	<polygon points="106.906,17.637 64.618,53.359 75.093,65.759 98.838,45.699 98.855,45.685 104.076,41.274 117.38,30.036 	"/>
	<polygon points="55.959,71.403 72.375,67.423 62.524,55.76 	"/>
</g>
</svg>
