<?xml version="1.0" encoding="utf-8"?>
<!-- Generator: Adobe Illustrator 17.0.0, SVG Export Plug-In . SVG Version: 6.00 Build 0)  -->
<!DOCTYPE svg PUBLIC "-//W3C//DTD SVG 1.1//EN" "http://www.w3.org/Graphics/SVG/1.1/DTD/svg11.dtd">
<svg version="1.1" id="Capa_1" xmlns="http://www.w3.org/2000/svg" xmlns:xlink="http://www.w3.org/1999/xlink" x="0px" y="0px"
	 width="64px" height="64px" viewBox="0 0 64 64" enable-background="new 0 0 64 64" xml:space="preserve">
<g>
	<path d="M51.736,14.59l-5.174-4.18c-3.273-2.644-8.087-2.132-10.731,1.14L21.357,29.466c-2.644,3.273-2.268,7.977,0.836,10.485
		c3.105,2.508,7.782,1.886,10.426-1.387l10.025-12.409c0.612-0.756,0.493-1.866-0.262-2.476c-0.757-0.611-1.865-0.494-2.476,0.263
		L29.881,36.352c-1.424,1.762-3.88,2.147-5.475,0.86c-1.594-1.288-1.733-3.77-0.311-5.532l14.476-17.917
		c1.424-1.762,4.016-2.038,5.777-0.615l5.175,4.181c1.762,1.423,2.038,4.016,0.614,5.777L29.097,49.152
		c-1.424,1.762-4.016,2.038-5.778,0.614l-9.74-7.869c-0.757-0.611-1.865-0.494-2.476,0.263c-0.61,0.756-0.492,1.866,0.263,2.476
		l9.741,7.869c3.272,2.644,8.086,2.132,10.73-1.141l21.042-26.046C55.52,22.047,55.01,17.233,51.736,14.59z"/>
</g>
</svg>
