<?xml version="1.0" encoding="iso-8859-1"?>
<!-- Generator: Adobe Illustrator 16.0.4, SVG Export Plug-In . SVG Version: 6.00 Build 0)  -->
<!DOCTYPE svg PUBLIC "-//W3C//DTD SVG 1.1//EN" "http://www.w3.org/Graphics/SVG/1.1/DTD/svg11.dtd">
<svg version="1.1" id="Capa_1" xmlns="http://www.w3.org/2000/svg" xmlns:xlink="http://www.w3.org/1999/xlink" x="0px" y="0px"
	 width="21.874px" height="21.161px" viewBox="0 0 21.874 21.161" style="enable-background:new 0 0 21.874 21.161;"
	 xml:space="preserve">
<g>
	<path style="fill-rule:evenodd;clip-rule:evenodd;fill:#231F20;stroke:#231F20;stroke-width:0.75;stroke-miterlimit:2.6131;" d="
		M17.95,0.375c1.959,0,3.549,1.589,3.549,3.549c0,1.96-1.589,3.549-3.549,3.549c-1.96,0-3.55-1.589-3.55-3.549
		C14.4,1.964,15.99,0.375,17.95,0.375L17.95,0.375z M17.95,1.008c-1.61,0-2.916,1.306-2.916,2.916c0,1.61,1.306,2.917,2.916,2.917
		c1.61,0,2.916-1.306,2.916-2.917C20.866,2.314,19.56,1.008,17.95,1.008z"/>
	<path style="fill-rule:evenodd;clip-rule:evenodd;fill:none;stroke:#231F20;stroke-width:0.75;stroke-miterlimit:2.6131;" d="
		M14.41,16.982l-7.425-4.637c0.311-0.527,0.488-1.142,0.488-1.798c0-0.656-0.178-1.271-0.488-1.798l7.421-4.636
		c0.095,1.803,1.535,3.25,3.335,3.354v6.226C15.962,13.797,14.535,15.21,14.41,16.982z"/>
	<path style="fill-rule:evenodd;clip-rule:evenodd;fill:#231F20;stroke:#231F20;stroke-width:0.75;stroke-miterlimit:2.6131;" d="
		M17.95,13.688c1.959,0,3.549,1.589,3.549,3.549c0,1.96-1.589,3.549-3.549,3.549c-1.96,0-3.55-1.589-3.55-3.549
		C14.4,15.277,15.99,13.688,17.95,13.688L17.95,13.688z M17.95,14.32c-1.61,0-2.916,1.306-2.916,2.916s1.306,2.917,2.916,2.917
		c1.61,0,2.916-1.306,2.916-2.917S19.56,14.32,17.95,14.32z"/>
	<path style="fill-rule:evenodd;clip-rule:evenodd;fill:#231F20;stroke:#231F20;stroke-width:0.75;stroke-miterlimit:2.6131;" d="
		M3.924,6.999c1.96,0,3.549,1.589,3.549,3.549c0,1.959-1.589,3.549-3.549,3.549s-3.549-1.589-3.549-3.549
		C0.375,8.588,1.964,6.999,3.924,6.999L3.924,6.999z M3.924,7.632c-1.61,0-2.916,1.306-2.916,2.916c0,1.61,1.306,2.916,2.916,2.916
		s2.916-1.306,2.916-2.916C6.84,8.938,5.534,7.632,3.924,7.632z"/>
</g>
<g>
</g>
<g>
</g>
<g>
</g>
<g>
</g>
<g>
</g>
<g>
</g>
<g>
</g>
<g>
</g>
<g>
</g>
<g>
</g>
<g>
</g>
<g>
</g>
<g>
</g>
<g>
</g>
<g>
</g>
</svg>
