<?xml version="1.0" encoding="utf-8"?>
<!-- Generator: Adobe Illustrator 16.0.4, SVG Export Plug-In . SVG Version: 6.00 Build 0)  -->
<!DOCTYPE svg PUBLIC "-//W3C//DTD SVG 1.1//EN" "http://www.w3.org/Graphics/SVG/1.1/DTD/svg11.dtd">
<svg version="1.1" id="Layer_1" xmlns="http://www.w3.org/2000/svg" xmlns:xlink="http://www.w3.org/1999/xlink" x="0px" y="0px"
	 width="96px" height="96px" viewBox="0 0 96 96" enable-background="new 0 0 96 96" xml:space="preserve">
<path d="M42.208,89.624h12.69v4.218h-12.69V89.624z M24.228,93.842h12.691v-4.218H24.228V93.842z M12.613,65.318H8.394v12.69h4.219
	V65.318z M12.613,47.338H8.394v12.691h4.219V47.338z M12.613,35.724h6.327v-4.218h-4.8l2.188-3.805l-3.657-2.102l-4.156,7.343
	c-0.072,0.213-0.121,0.437-0.121,0.673v8.436h4.219V35.724z M42.208,35.723h12.69v-4.218h-12.69V35.723z M24.228,35.723h12.691
	v-4.218H24.228V35.723z M70.732,34.177l3.925-6.826L71,25.249l-3.598,6.256h-7.215v4.219h6.326v6.326h4.219V34.177z M70.732,78.009
	V65.927h-4.219v12.082H70.732z M66.514,59.178h4.219v-11.84h-4.219V59.178z M83.389,60.277h-6.328v4.219h4.644l-2.595,4.152
	l3.658,2.103l4.283-6.95c0.346-0.509,0.557-0.869,0.557-1.415V53.95h-4.219V60.277z M71.771,60.277h-12.69v4.219h12.69V60.277z
	 M53.793,60.277h-12.69v4.219h12.69V60.277z M25.268,61.701l-3.996,6.949l3.657,2.103l3.597-6.257h7.288v-4.219h-6.328V53.95h-4.218
	V61.701z M29.486,37.249h-4.218v11.474h4.218V37.249z M25.268,29.525h4.218V18.053h-4.218V29.525z M53.792,2.158H41.101v4.218
	h12.691V2.158z M71.771,2.158h-12.69v4.218h12.69V2.158z M85.497,2.158h-8.437v4.218h4.791l-2.389,4.153l3.657,2.102l0.269,0.073
	h4.219V4.267C87.605,3.102,86.662,2.158,85.497,2.158z M83.389,48.661h4.219V35.97h-4.219V48.661z M83.389,30.682h4.219V17.991
	h-4.219V30.682z M22.867,16.328l-3.657-2.102l-4.614,8.029l3.657,2.102L22.867,16.328z M25.268,12.704h4.218V6.376h6.328V2.158
	h-8.437c-0.93,0-1.589,0.732-1.991,1.438l-4.254,7.287l3.657,2.103L25.268,12.704z M81.199,15.979l-3.658-2.103l-4.615,8.03
	l3.656,2.102L81.199,15.979z M66.514,83.296v6.328h-6.326v4.218h8.436c0.939,0,1.495-0.63,2-1.468l3.682-6.905l-3.572-2.173H66.514z
	 M72.57,80.018l3.658,2.102l4.615-8.029l-3.656-2.103L72.57,80.018z M16.466,85.473l-3.657-2.102l-0.196-0.075H8.394v8.438
	c0,1.164,0.945,2.108,2.109,2.108h8.437v-4.218h-4.861L16.466,85.473z M14.734,80.023l3.657,2.102l4.616-8.029l-3.657-2.103
	L14.734,80.023z"/>
</svg>
