<?xml version="1.0" encoding="utf-8"?>
<!-- Generator: Adobe Illustrator 16.0.0, SVG Export Plug-In . SVG Version: 6.00 Build 0)  -->
<!DOCTYPE svg PUBLIC "-//W3C//DTD SVG 1.1//EN" "http://www.w3.org/Graphics/SVG/1.1/DTD/svg11.dtd">
<svg version="1.1" id="Layer_9" xmlns="http://www.w3.org/2000/svg" xmlns:xlink="http://www.w3.org/1999/xlink" x="0px" y="0px"
	 width="100px" height="100px" viewBox="0 0 100 100" enable-background="new 0 0 100 100" xml:space="preserve">
<path d="M88.379,65.314V29.976c3.068-1.003,5.287-3.886,5.287-7.289c0-4.237-3.436-7.672-7.672-7.672
	c-2.672,0-5.023,1.368-6.396,3.44l-22.145-7.35c0.022-0.236,0.059-0.468,0.059-0.709c0-4.237-3.436-7.672-7.672-7.672
	c-4.238,0-7.672,3.435-7.672,7.672c0,0.249,0.014,0.494,0.037,0.736l-21.813,7.305c-1.375-2.063-3.722-3.423-6.387-3.423
	c-4.237,0-7.672,3.435-7.672,7.672c0,3.683,2.596,6.756,6.057,7.498v34.921c-3.461,0.742-6.057,3.815-6.057,7.498
	c0,4.237,3.435,7.672,7.672,7.672c3.195,0,5.934-1.955,7.087-4.734L43.17,85.812c-0.638,1.118-1.002,2.412-1.002,3.792
	c0,4.237,3.434,7.672,7.672,7.672c4.236,0,7.672-3.435,7.672-7.672c0-1.373-0.375-2.652-1.008-3.767l22.393-10.324
	c1.146,2.794,3.891,4.763,7.098,4.763c4.236,0,7.672-3.435,7.672-7.672C93.666,69.199,91.447,66.318,88.379,65.314z M16.391,65.314
	V29.976c1.371-0.448,2.555-1.286,3.465-2.362l22.485,10.46c-0.112,0.521-0.173,1.06-0.173,1.613c0,3.683,2.596,6.756,6.057,7.498
	v5.063v4.222L18.53,66.414C17.885,65.943,17.166,65.568,16.391,65.314z M21.112,69.768l27.112-9.079v21.417
	c-0.7,0.15-1.361,0.399-1.977,0.726L21.576,71.354C21.485,70.799,21.315,70.275,21.112,69.768z M52.225,82.314V60.938l26.641,8.842
	c-0.195,0.492-0.344,1.008-0.434,1.544L53.443,82.844C53.054,82.637,52.649,82.453,52.225,82.314z M52.225,56.723v-4.96v-4.787
	c3.068-1.003,5.287-3.886,5.287-7.289c0-0.545-0.06-1.076-0.168-1.589l22.766-10.496c1.077,1.287,2.567,2.218,4.27,2.583v34.921
	c-1.076,0.23-2.068,0.688-2.926,1.318L52.225,56.723z M78.344,22.254c-0.008,0.145-0.021,0.287-0.021,0.433
	c0,0.438,0.039,0.866,0.109,1.284L55.514,34.537c-0.884-0.975-2.01-1.722-3.289-2.14V17.686c1.564-0.512,2.902-1.516,3.844-2.825
	L78.344,22.254z M43.619,14.878c1.093,1.511,2.719,2.612,4.605,3.017v14.294c-1.588,0.34-2.986,1.174-4.043,2.329L21.563,23.994
	c0.072-0.426,0.115-0.861,0.115-1.308c0-0.153-0.014-0.303-0.023-0.454L43.619,14.878z"/>
</svg>
