<?xml version="1.0" encoding="utf-8"?>
<!-- Generator: Adobe Illustrator 16.0.0, SVG Export Plug-In . SVG Version: 6.00 Build 0)  -->
<!DOCTYPE svg PUBLIC "-//W3C//DTD SVG 1.1//EN" "http://www.w3.org/Graphics/SVG/1.1/DTD/svg11.dtd">
<svg version="1.1" id="Layer_1" xmlns="http://www.w3.org/2000/svg" xmlns:xlink="http://www.w3.org/1999/xlink" x="0px" y="0px"
	 width="96px" height="96px" viewBox="0 0 96 96" enable-background="new 0 0 96 96" xml:space="preserve">
<g>
	<path d="M73.656,61.219c0.18-0.166,0.338-0.482,0.34-1.277l-0.001-23.849c0.007-0.138,0.018-0.614-0.095-0.954
		c-0.115-0.348-0.504-0.67-1.126-0.945L48.896,22.221l-0.136-0.068c0,0-0.694-0.409-1.512,0S23.336,34.118,23.336,34.118
		c-1.18,0.513-1.326,1.263-1.326,1.944l0.009,23.775c-0.017,0.101-0.083,0.629,0.222,1.156c0.308,0.532,0.852,0.729,0.871,0.729
		c0,0,0.001-0.001,0-0.001L46.93,73.629c0.078,0.049,0.492,0.297,1.057,0.297h0.027c0.57-0.01,1-0.26,1.002-0.264l23.857-11.929
		C73.083,61.639,73.441,61.453,73.656,61.219z M45.89,68.66l-19.897-9.949V39.284l19.897,9.948V68.66z M48.004,45.686L28.57,35.942
		l19.431-9.716l19.435,9.744L48.004,45.686z M70.014,58.711L50.116,68.66V49.232l19.897-9.948V58.711z"/>
	<polygon points="72.375,0.961 72.375,8.611 87.389,8.611 87.389,23.625 95.039,23.625 95.039,0.961 	"/>
	<polygon points="8.611,8.611 23.624,8.611 23.624,0.961 0.961,0.961 0.961,23.625 8.611,23.625 	"/>
	<polygon points="8.611,72.376 0.961,72.376 0.961,95.039 23.624,95.039 23.624,87.389 8.611,87.389 	"/>
	<polygon points="87.389,87.389 72.375,87.389 72.375,95.039 95.039,95.039 95.039,72.376 87.389,72.376 	"/>
</g>
</svg>
