<?xml version="1.0" encoding="utf-8"?>
<!-- Generator: Adobe Illustrator 16.0.4, SVG Export Plug-In . SVG Version: 6.00 Build 0)  -->
<!DOCTYPE svg PUBLIC "-//W3C//DTD SVG 1.1//EN" "http://www.w3.org/Graphics/SVG/1.1/DTD/svg11.dtd">
<svg version="1.1" id="Layer_1" xmlns="http://www.w3.org/2000/svg" xmlns:xlink="http://www.w3.org/1999/xlink" x="0px" y="0px"
	 width="108.15px" height="88.639px" viewBox="0 0 108.15 88.639" enable-background="new 0 0 108.15 88.639" xml:space="preserve">
<path d="M54.95,83.3h28.875c-0.088,0.613-0.088,1.229-0.176,1.75H24.413c-0.089-0.521-0.089-1.137-0.176-1.75h28.875V15.926h-2.274
	c0.35-0.524,0.524-1.138,0.524-1.75H56.7c0,0.612,0.264,1.226,0.525,1.75H54.95V83.3z M59.76,17.588c-0.174,0-0.262,0-0.438-0.088
	v0.088c2.102,9.975,8.4,28.786,26.949,33.161c0.439-0.699,1.312-1.225,2.189-1.225h10.674V17.152
	c-0.352,0.35-0.961,0.524-1.662,0.524c-0.174,0-0.262,0-0.438-0.087c-0.875-0.088-1.662-0.525-2.188-1.138
	c-0.088,0.087-0.176,0.175-0.264,0.263c-0.176,0.175-0.439,0.35-0.611,0.438c-0.525,0.262-1.139,0.524-1.75,0.524
	c-0.176,0-0.264,0-0.439-0.087c-0.875-0.088-1.662-0.525-2.188-1.138c-0.088,0.087-0.174,0.175-0.262,0.263
	c-0.613,0.612-1.488,0.962-2.451,0.962c-0.174,0-0.262,0-0.439-0.087c-0.875-0.088-1.662-0.525-2.188-1.138
	c0,0-0.176,0.175-0.264,0.263c-0.611,0.612-1.486,0.962-2.449,0.962c-0.176,0-0.264,0-0.438-0.087
	c-0.875-0.088-1.664-0.525-2.188-1.138c-0.088,0.087-0.266,0.263-0.266,0.263c-0.609,0.612-1.484,0.962-2.447,0.962
	c-0.178,0-0.266,0-0.439-0.087c-0.875-0.088-1.662-0.525-2.188-1.138c-0.088,0.087-0.176,0.175-0.264,0.263
	c-0.611,0.612-1.486,0.962-2.449,0.962c-0.176,0-0.262,0-0.438-0.087c-0.875-0.088-1.662-0.525-2.189-1.138
	c-0.086,0.087-0.174,0.175-0.262,0.263c-0.613,0.612-1.488,0.962-2.449,0.962c-0.176,0-0.264,0-0.438-0.087
	c-0.875-0.088-1.664-0.525-2.189-1.138c-0.088,0.087-0.174,0.175-0.262,0.263c-0.613,0.612-1.488,0.962-2.451,0.962
	C60.024,17.676,59.936,17.676,59.76,17.588z M92.225,58.45c-0.438,0-0.875-0.088-1.227-0.264
	c-2.977,7.438-4.551,18.287-5.338,25.111c-0.088,0.613-0.088,1.227-0.176,1.75c-0.176,1.576-0.262,2.801-0.35,3.588h14.088V58.45
	h-5.25H92.225z M99.311,51.364h-5.336h-1.75H89.6h-0.875c-0.525,0-0.875,0.438-0.875,0.875c0,0.264,0.086,0.523,0.35,0.699
	c0,0,0,0,0.09,0c0.086,0,0.086,0.09,0.174,0.09s0.264,0.086,0.35,0.086h0.789h2.711h1.488h0.35h5.338
	c0.088,0,0.264-0.086,0.352-0.086c0.35-0.178,0.523-0.439,0.523-0.789C100.186,51.8,99.751,51.364,99.311,51.364z M99.311,54.95
	h-5.336h-1.4h-0.35c-0.09,0-0.09,0-0.176,0c-0.438,0.088-0.699,0.438-0.699,0.875c0,0.088,0,0.174,0.086,0.264
	c0.088,0.174,0.176,0.35,0.354,0.438c0.086,0,0.086,0.086,0.174,0.086s0.264,0.088,0.35,0.088h1.75h5.338c0,0,0.088,0,0.264-0.088
	c0.352-0.176,0.523-0.438,0.523-0.787C100.186,55.3,99.751,54.95,99.311,54.95z M22.487,83.3c-0.699-6.301-2.1-16.271-4.725-23.625
	c-0.175-0.521-0.35-1.051-0.612-1.574c-0.35,0.178-0.788,0.264-1.225,0.264H8.838v30.273h14.087c0-0.787-0.087-2.014-0.262-3.588
	C22.574,84.528,22.574,83.913,22.487,83.3z M56.7,10.588V5.25h-5.337v5.338h0.087H56.7z M105.524,5.25h-4.463v5.338h4.463
	c1.486,0,2.625-1.225,2.625-2.625C108.149,6.475,106.925,5.25,105.524,5.25z M0,7.875C0,9.364,1.225,10.5,2.625,10.5h4.462V5.25
	H2.625C1.137,5.25,0,6.475,0,7.875z M8.574,53.114c0,0,0.176,0.088,0.264,0.088h5.6h1.487h1.75h0.962h0.788
	c0.087,0,0.263-0.088,0.35-0.088s0.087-0.086,0.175-0.086c0,0,0,0,0.089,0c0.175-0.178,0.35-0.439,0.35-0.701
	c0-0.525-0.438-0.875-0.875-0.875h-0.875h-0.875h-1.75H8.926c-0.525,0-0.875,0.438-0.875,0.875
	C8.05,52.675,8.313,53.028,8.574,53.114z M15.925,56.7c0.087,0,0.263,0,0.35-0.088c0.087,0,0.087-0.088,0.175-0.088
	c0.176-0.088,0.264-0.264,0.351-0.438c0-0.088,0.087-0.176,0.087-0.264c0-0.439-0.262-0.787-0.7-0.875c-0.087,0-0.087,0-0.175,0
	h-0.35H8.924c-0.525,0-0.875,0.438-0.875,0.875c-0.087,0.35,0.087,0.699,0.438,0.787c0.087,0,0.264,0.088,0.351,0.088h7.088V56.7
	L15.925,56.7z M17.5,49.614h1.75c0.962,0,1.75,0.438,2.188,1.227c5.075-1.227,9.275-3.414,12.688-6.301
	c0.524,0.35,0.875,0.788,1.312,1.137c0,0.088,0.087,0.088,0.087,0.176c0.525,0.613,1.226,1.227,1.925,1.926
	c2.538,2.449,4.9,4.199,5.163,3.852c0.264-0.352-1.574-2.537-4.111-4.988c-0.7-0.609-1.312-1.225-1.926-1.75
	c-0.087,0-0.087-0.087-0.175-0.087c-0.438-0.35-0.875-0.699-1.312-1.05c8.486-7.7,12.075-19.162,13.475-26.162
	c-0.263,0.087-0.524,0.087-0.875,0.087c-0.175,0-0.263,0-0.438-0.087c-0.875-0.088-1.663-0.524-2.188-1.138
	c-0.087,0.087-0.175,0.175-0.263,0.263c-0.612,0.612-1.487,0.962-2.45,0.962c-0.175,0-0.263,0-0.438-0.087
	c-0.875-0.088-1.663-0.524-2.188-1.138c-0.088,0.087-0.175,0.175-0.263,0.263c-0.612,0.612-1.487,0.962-2.45,0.962
	c-0.175,0-0.262,0-0.438-0.087c-0.875-0.088-1.661-0.524-2.188-1.138c-0.087,0.087-0.175,0.175-0.262,0.263
	c-0.613,0.612-1.488,0.962-2.45,0.962c-0.175,0-0.262,0-0.438-0.087c-0.875-0.088-1.663-0.524-2.188-1.138
	c-0.087,0.087-0.175,0.175-0.263,0.263c-0.612,0.612-1.487,0.962-2.449,0.962c-0.176,0-0.264,0-0.438-0.087
	c-0.875-0.088-1.663-0.524-2.188-1.138c-0.087,0.087-0.176,0.175-0.264,0.263c-0.611,0.612-1.486,0.962-2.449,0.962
	c-0.176,0-0.264,0-0.438-0.087c-0.875-0.088-1.663-0.524-2.188-1.138c-0.088,0.087-0.176,0.175-0.264,0.263
	c-0.175,0.175-0.438,0.351-0.611,0.438c-0.525,0.262-1.139,0.524-1.75,0.524c-0.176,0-0.264,0-0.438-0.087
	c-0.875-0.088-1.663-0.524-2.188-1.138c-0.087,0.087-0.175,0.175-0.263,0.263c-0.612,0.612-1.487,0.962-2.45,0.962
	c-0.175,0-0.263,0-0.438-0.087c-0.438-0.088-0.963-0.175-1.312-0.438c0,0.175,0,0.35,0,0.35v32.111h7.087H17.5V49.614z
	 M38.518,55.452c-2.562-2.424-4.882-4.133-5.181-3.816c-0.299,0.314,1.536,2.537,4.099,4.961c2.563,2.424,4.882,4.133,5.181,3.816
	C42.916,60.098,41.081,57.878,38.518,55.452z M72.925,56.577c2.562,2.424,4.883,4.133,5.182,3.816s-1.537-2.539-4.1-4.963
	s-4.881-4.133-5.182-3.816C68.528,51.93,70.362,54.155,72.925,56.577z M72.921,49.479c2.562,2.428,4.883,4.137,5.182,3.818
	c0.299-0.316-1.535-2.537-4.098-4.961c-2.562-2.426-4.883-4.134-5.184-3.818C68.524,44.833,70.36,47.055,72.921,49.479z
	 M10.588,16.013c0.962,0,1.75-0.788,1.75-1.75V1.75c0-0.962-0.788-1.75-1.75-1.75c-0.875,0-1.575,0.613-1.75,1.488v12.774
	C8.838,15.225,9.625,16.013,10.588,16.013z M15.925,16.013c0.962,0,1.75-0.788,1.75-1.75V1.75c0-0.962-0.788-1.75-1.75-1.75
	c-0.875,0-1.575,0.613-1.75,1.488v12.774C14.175,15.225,14.962,16.013,15.925,16.013z M21.175,16.013c0.962,0,1.75-0.788,1.75-1.75
	V1.75c0.087-0.962-0.7-1.75-1.75-1.75C20.3,0,19.6,0.614,19.425,1.489v12.774C19.425,15.225,20.212,16.013,21.175,16.013z
	 M26.512,16.013c0.963,0,1.75-0.788,1.75-1.75V1.75c0-0.962-0.787-1.75-1.75-1.75c-0.875,0-1.575,0.613-1.75,1.488v12.774
	C24.762,15.225,25.55,16.013,26.512,16.013z M31.85,16.013c0.962,0,1.75-0.788,1.75-1.75V1.75C33.6,0.788,32.812,0,31.85,0
	c-0.875,0-1.575,0.613-1.75,1.488v12.774C30.1,15.225,30.887,16.013,31.85,16.013z M37.188,16.013c0.962,0,1.75-0.788,1.75-1.75
	V1.75c0-0.962-0.788-1.75-1.75-1.75c-0.875,0-1.575,0.613-1.75,1.488v12.774C35.438,15.225,36.225,16.013,37.188,16.013z
	 M42.525,16.013c0.962,0,1.75-0.788,1.75-1.75V1.75c0-0.962-0.788-1.75-1.75-1.75c-0.875,0-1.575,0.613-1.75,1.488v12.774
	C40.775,15.225,41.563,16.013,42.525,16.013z M47.775,16.013c0.962,0,1.75-0.788,1.75-1.75V1.75c0.087-0.962-0.7-1.75-1.75-1.75
	c-0.875,0-1.575,0.613-1.75,1.488v12.774C46.025,15.225,46.813,16.013,47.775,16.013z M60.2,16.013c0.965,0,1.75-0.788,1.75-1.75
	V1.75C62.04,0.788,61.251,0,60.2,0c-0.875,0-1.574,0.613-1.75,1.488v12.774C58.45,15.225,59.237,16.013,60.2,16.013z M65.54,16.013
	c0.961,0,1.75-0.788,1.75-1.75V1.75c0-0.962-0.789-1.75-1.75-1.75c-0.875,0-1.576,0.613-1.75,1.488v12.774
	C63.79,15.225,64.575,16.013,65.54,16.013z M70.876,16.013c0.963,0,1.75-0.788,1.75-1.75V1.75c0-0.962-0.787-1.75-1.75-1.75
	c-0.875,0-1.574,0.613-1.75,1.488v12.774C69.126,15.225,69.915,16.013,70.876,16.013z M76.212,16.013c0.963,0,1.75-0.788,1.75-1.75
	V1.75c0-0.962-0.787-1.75-1.75-1.75c-0.875,0-1.576,0.613-1.75,1.488v12.774C74.462,15.225,75.251,16.013,76.212,16.013z
	 M81.462,16.013c0.963,0,1.75-0.788,1.75-1.75V1.75C83.3,0.788,82.51,0,81.462,0c-0.875,0-1.576,0.613-1.75,1.488v12.774
	C79.712,15.225,80.501,16.013,81.462,16.013z M86.8,16.013c0.961,0,1.75-0.788,1.75-1.75V1.75C88.635,0.788,87.76,0,86.8,0
	c-0.875,0-1.574,0.613-1.75,1.488v12.774C85.05,15.225,85.839,16.013,86.8,16.013z M92.135,16.013c0.965,0,1.75-0.788,1.75-1.75
	V1.75c0-0.962-0.785-1.75-1.75-1.75c-0.875,0-1.574,0.613-1.75,1.488v12.774C90.385,15.225,91.175,16.013,92.135,16.013z
	 M97.475,16.013c0.961,0,1.75-0.788,1.75-1.75V1.75c0-0.962-0.789-1.75-1.75-1.75c-0.875,0-1.576,0.613-1.75,1.488v12.774
	C95.725,15.225,96.51,16.013,97.475,16.013z"/>
</svg>
