<?xml version="1.0" encoding="UTF-8" standalone="no"?>
<!-- Generator: Adobe Illustrator 16.0.0, SVG Export Plug-In . SVG Version: 6.00 Build 0)  -->

<svg
   xmlns:dc="http://purl.org/dc/elements/1.1/"
   xmlns:cc="http://creativecommons.org/ns#"
   xmlns:rdf="http://www.w3.org/1999/02/22-rdf-syntax-ns#"
   xmlns:svg="http://www.w3.org/2000/svg"
   xmlns="http://www.w3.org/2000/svg"
   xmlns:sodipodi="http://sodipodi.sourceforge.net/DTD/sodipodi-0.dtd"
   xmlns:inkscape="http://www.inkscape.org/namespaces/inkscape"
   version="1.1"
   id="Layer_1"
   x="0px"
   y="0px"
   width="512px"
   height="512px"
   viewBox="0 0 512 512"
   style="enable-background:new 0 0 512 512;"
   xml:space="preserve"
   inkscape:version="0.48.5 r10040"
   sodipodi:docname="cutaway.svg"><metadata
     id="metadata17"><rdf:RDF><cc:Work
         rdf:about=""><dc:format>image/svg+xml</dc:format><dc:type
           rdf:resource="http://purl.org/dc/dcmitype/StillImage" /></cc:Work></rdf:RDF></metadata><defs
     id="defs15" /><sodipodi:namedview
     pagecolor="#ffffff"
     bordercolor="#666666"
     borderopacity="1"
     objecttolerance="10"
     gridtolerance="10"
     guidetolerance="10"
     inkscape:pageopacity="0"
     inkscape:pageshadow="2"
     inkscape:window-width="1232"
     inkscape:window-height="673"
     id="namedview13"
     showgrid="false"
     inkscape:zoom="1.3037281"
     inkscape:cx="433.24218"
     inkscape:cy="408.02274"
     inkscape:window-x="0"
     inkscape:window-y="0"
     inkscape:window-maximized="0"
     inkscape:current-layer="g3" /><g
     id="g3"><path
       d="m 486.768,12.926 -348.075,0 c -7.772,0 -14.074,6.299 -14.074,14.072 l 0,325.857 28.229,-7.742 c 0.575,-2.027 1.655,-3.941 3.251,-5.537 l 22.72,-22.721 c 4.994,-4.994 13.095,-4.994 18.09,0 4.262,4.262 4.875,10.779 1.863,15.703 l 42.303,-11.523 c 4.242,-1.154 8.977,-0.141 12.379,2.672 3.44,2.857 5.284,7.199 4.951,11.631 l -0.377,5.049 c -0.188,2.701 -0.708,5.518 -1.633,8.803 -2.93,10.418 -8.708,18.262 -16.706,22.684 -2.896,1.6 -5.581,2.387 -7.737,3.018 l -0.776,0.229 c -3.815,1.143 -7.772,2.414 -11.263,3.537 l -0.515,0.164 c -8.793,2.822 -17.672,5.73 -25.196,8.205 -2.117,0.695 -4.266,1.402 -6.442,2.119 l 299.009,0 c 7.771,0 14.072,-6.301 14.072,-14.072 l 0,-348.076 C 500.84,19.225 494.539,12.926 486.768,12.926 z M 296.801,235.053 246.854,285 c -2.498,2.498 -5.77,3.746 -9.045,3.746 -3.273,0 -6.547,-1.248 -9.045,-3.746 -4.994,-4.994 -4.994,-13.094 0,-18.09 l 49.947,-49.947 c 4.994,-4.994 13.095,-4.994 18.09,0 4.995,4.996 4.995,13.096 0,18.09 z m 40.902,-46.199 c -3.274,0 -6.547,-1.25 -9.044,-3.748 -4.997,-4.994 -4.997,-13.094 0,-18.09 l 49.944,-49.945 c 4.996,-4.994 13.096,-4.994 18.09,0 4.996,4.996 4.996,13.094 0,18.09 l -49.945,49.945 c -2.496,2.498 -5.771,3.748 -9.045,3.748 z M 469.36,62.494 446.64,85.213 c -2.497,2.498 -5.771,3.746 -9.044,3.746 -3.274,0 -6.547,-1.248 -9.044,-3.746 -4.996,-4.996 -4.996,-13.094 0,-18.09 l 22.717,-22.719 c 4.996,-4.994 13.096,-4.994 18.091,0 4.996,4.996 4.996,13.094 0,18.09 z"
       id="path9"
       inkscape:connector-curvature="0"
       sodipodi:nodetypes="sssccccccccccccccccccsscscssscsccscccsscsccsccccc" /><path
       d="M140.44,421.482c-1.021-0.684-2.078-1.307-3.163-1.861l7.505-27.551c17.56-5.836,31.128-10.324,43.841-14.5   c8.435-2.773,17.486-5.738,26.539-8.643l0.528-0.17c3.937-1.266,8.011-2.574,12.027-3.777c0.302-0.09,0.604-0.178,0.908-0.266   c1.881-0.551,3.831-1.121,5.731-2.172c7.038-3.889,10.351-11.221,11.887-16.686c0.747-2.654,1.162-4.857,1.305-6.922l0.396-5.307   c0.064-0.857-0.293-1.684-0.952-2.232c-0.661-0.547-1.546-0.736-2.373-0.512l-89.709,24.439l-36.744,10.131l-27.547,7.502   c-1.532-3.01-3.527-5.75-5.95-8.172c-8.767-8.768-22.721-12.867-36.419-10.699c-15.739,2.492-28.959,12.395-34.505,25.842   c-2.703,6.553-3.31,13.775-1.712,20.344c1.38,5.666,4.378,10.93,8.669,15.223c2.457,2.457,5.293,4.561,8.424,6.25   c8.354,4.508,18.51,6.031,28.591,4.285c0.024-0.002,0.052-0.008,0.073-0.014l2.236-0.451c5.467-1.209,10.819-3.451,15.479-6.482   c0.022-0.012,0.04-0.025,0.063-0.039c1.607-1.109,2.113-1.486,2.308-1.639c14.41-10.664,25.479-15.742,33.099-18.141   c-2.4,7.615-7.479,18.686-18.142,33.098c-0.155,0.193-0.528,0.703-1.639,2.309c-0.015,0.02-0.027,0.039-0.04,0.061   c-3.03,4.658-5.272,10.012-6.492,15.529l-0.441,2.186c-0.005,0.025-0.01,0.049-0.014,0.074   c-2.416,13.961,1.643,28.197,10.596,37.15c0.003,0.002,0.003,0.002,0.003,0.002c3.001,3.002,6.489,5.346,10.373,6.965   c6.694,2.791,14.302,3.201,21.421,1.15c6.563-1.889,12.689-5.742,17.709-11.141c2.89-3.107,5.353-6.676,7.31-10.564   c2.59-5.582,3.652-9.437,4.162-12.064c2.86-14.318-1.037-29.152-10.226-38.34C143.994,424.117,142.273,422.705,140.44,421.482z    M70.907,394.234c-2.727,4.688-7.831,8.391-14.005,10.162l-0.715,0.195c-5.81,1.492-14.026,1.381-19.684-3.408   c-0.261-0.221-0.514-0.455-0.756-0.695c-2.049-2.049-3.23-4.684-3.328-7.416c-0.087-2.416,0.639-4.961,2.096-7.355   c3.188-5.242,9.308-9.16,16.374-10.482c5.735-1.074,13.634-0.449,18.602,4.518c0.178,0.178,0.35,0.359,0.517,0.547   C73.331,383.996,73.682,389.465,70.907,394.234z M135.42,455.912c-0.367,6.555-3.073,12.779-7.422,17.072   c-4.019,3.967-8.987,5.635-13.29,4.459h-0.004c-0.003,0-0.005,0-0.008-0.002c-1.845-0.502-3.496-1.473-4.902-2.877   c-3.046-3.047-4.959-8.305-4.99-13.721c-0.044-7.168,2.836-14.219,7.7-18.859c3.441-3.283,9.383-6.178,14.813-3.539   c1.173,0.572,2.249,1.344,3.198,2.295C134.536,444.758,135.685,451.213,135.42,455.912z"
       id="path11" /></g></svg>