<?xml version="1.0" encoding="utf-8"?>
<!-- Generator: Adobe Illustrator 16.0.0, SVG Export Plug-In . SVG Version: 6.00 Build 0)  -->
<!DOCTYPE svg PUBLIC "-//W3C//DTD SVG 1.1//EN" "http://www.w3.org/Graphics/SVG/1.1/DTD/svg11.dtd">
<svg version="1.1" id="Layer_12" xmlns="http://www.w3.org/2000/svg" xmlns:xlink="http://www.w3.org/1999/xlink" x="0px" y="0px"
	 width="100px" height="100px" viewBox="0 0 100 100" enable-background="new 0 0 100 100" xml:space="preserve">
<path d="M23.951,23.126c0,0.14,0,53.748,0,53.748C23.952,83.534,35.15,88.558,50,88.558s26.048-5.023,26.049-11.684V23.541h-0.022
	c0.01-0.138,0.022-0.275,0.022-0.415c0-6.661-11.199-11.684-26.049-11.684C35.149,11.442,23.951,16.465,23.951,23.126z
	 M73.049,23.126c0,4.107-9.466,8.685-23.049,8.685c-13.583,0-23.048-4.577-23.048-8.685S36.417,14.442,50,14.442
	C63.583,14.442,73.049,19.019,73.049,23.126z M50,85.558c-0.612,0-1.205-0.02-1.799-0.038V34.784h-0.001
	c0.594,0.016,1.194,0.026,1.801,0.026c10.251,0,18.761-2.395,23.049-6.068v48.131C73.049,80.98,63.583,85.558,50,85.558z"/>
</svg>
