<?xml version="1.0" encoding="iso-8859-1"?>
<!-- Generator: Adobe Illustrator 15.0.0, SVG Export Plug-In . SVG Version: 6.00 Build 0)  -->
<!DOCTYPE svg PUBLIC "-//W3C//DTD SVG 1.1//EN" "http://www.w3.org/Graphics/SVG/1.1/DTD/svg11.dtd">
<svg version="1.1" id="Layer_1" xmlns="http://www.w3.org/2000/svg" xmlns:xlink="http://www.w3.org/1999/xlink" x="0px" y="0px"
	 width="100px" height="100px" viewBox="0 0 100 100" style="enable-background:new 0 0 100 100;" xml:space="preserve">
<path id="Zynga" d="M71.089,5.352c0,0,6.197-0.588,11.053,2.604c1.76-0.084,3.182,0.674,4.104,2.354
	c0.923,1.68,2.596,5.713,1.257,8.15c-0.418,0.504-1.341-1.514-1.341-1.514s-0.67,2.438-1.926,3.361
	c0.168,5.041-1.842,8.568-2.428,9.746c-0.252,0.672-0.084,1.262,0.166,1.934c0.252,0.672,3.603,12.518,3.435,16.467
	s-2.177,8.654-3.769,10.25c0.334,3.277-1.172,6.051-1.926,7.395s-2.428,6.385-2.848,8.736c-0.419,2.354-0.586,4.875-0.083,5.631
	s2.763,3.109,2.596,4.285c-0.168,1.176-2.596,2.52-3.769,2.52c-1.172,0-3.602-0.756-4.188-2.354c-0.585-1.596-0.67-4.367-0.25-5.963
	c0.418-1.598,3.266-13.275,1.592-20.166c-4.104,1.848-10.971,1.766-10.971,1.766s-1.172,6.133-2.596,9.66
	c-0.502,0.84-0.419,6.555-0.419,10.166c0,3.613,1.256,9.242,1.256,9.242s1.759,1.262,1.508,2.857C61.293,94.076,59.281,95,57.522,95
	c-1.758,0-4.102-1.344-4.102-3.529c0-2.184,0.333-7.141,0.166-10.754c-0.166-3.613-0.082-5.965-0.669-8.234
	s-2.261-8.234-2.429-12.855c-0.586,0-1.172-0.42-1.172-0.42s-2.764,3.193-4.689,5.041c0.251,1.26,0.92,3.529,0.92,4.033
	s0.504,0.924,1.341,1.26c0.837,0.338,3.432,1.766,3.349,3.193c-0.084,1.428-3.35,1.68-6.197,0.42
	c-0.669-0.336-3.098-8.484-3.433-9.578c-0.336-1.092-0.587-1.68-0.167-2.605c0.418-0.922,1.591-3.947,1.424-5.713
	c-0.168-1.764-3.434-4.537-5.611-4.537c-1.675,0-4.234,2.568-6.113,4.033c-2.261,1.766-4.856,4.453-5.526,4.873
	c-0.671,0.422-5.946,10-6.951,12.771c-0.418,1.092-1.255,6.555-5.692,6.385c-2.01-0.168-3.853-2.352,1.842-6.301
	c1.445-3.34,3.455-6.807,3.58-7.5s1.633-9.326,4.146-17.518c2.512-8.191,6.218-12.098,6.907-12.666
	c0.566-0.439,0.88-0.693,0.314-1.008c-0.564-0.314-6.531-5.42-5.4-16.258c0.188-1.26,0.754-0.945,1.13,1.953
	c0.377,2.898,2.7,9.705,7.851,11.848c0.502,0.188,4.208-2.646,23.111-4.033c0.126-3.34,0.629-6.869,0.629-6.869
	s-1.319-1.008-1.508-3.025c-0.628,1.01-1.004,1.262-1.821,1.135c-0.816-0.125-0.754-4.031-0.565-6.805
	c0.19-2.773,3.392-3.971,4.586-4.096c1.569-0.82,3.265-0.693,3.265-0.693S62.924,4.008,71.089,5.352z"/>
</svg>
