<?xml version="1.0" encoding="iso-8859-1"?>
<!-- Generator: Adobe Illustrator 17.1.0, SVG Export Plug-In . SVG Version: 6.00 Build 0)  -->
<!DOCTYPE svg PUBLIC "-//W3C//DTD SVG 1.1//EN" "http://www.w3.org/Graphics/SVG/1.1/DTD/svg11.dtd">
<svg version="1.1" id="Layer_1" xmlns="http://www.w3.org/2000/svg" xmlns:xlink="http://www.w3.org/1999/xlink" x="0px" y="0px"
	 viewBox="0 0 64 64" style="enable-background:new 0 0 64 64;" xml:space="preserve">
<g>
	<path d="M49,0H15v63h34V0z M34,5V4h9v28h-1h-8V5z M21,5V4h9v28h-1h-8V5z M43,59h-1H21V37v-1h22V59z M44.875,36.375
		c-1.378,0-2.5-1.122-2.5-2.5s1.122-2.5,2.5-2.5s2.5,1.122,2.5,2.5S46.253,36.375,44.875,36.375z"/>
	<rect x="22" y="5" width="7" height="26"/>
	<rect x="35" y="5" width="7" height="26"/>
	<rect x="22" y="37" width="20" height="21"/>
	<circle cx="44.875" cy="33.875" r="1.5"/>
</g>
</svg>
