<?xml version="1.0" encoding="iso-8859-1"?>
<!-- Generator: Adobe Illustrator 16.0.4, SVG Export Plug-In . SVG Version: 6.00 Build 0)  -->
<!DOCTYPE svg PUBLIC "-//W3C//DTD SVG 1.1//EN" "http://www.w3.org/Graphics/SVG/1.1/DTD/svg11.dtd">
<svg version="1.1" id="Capa_1" xmlns="http://www.w3.org/2000/svg" xmlns:xlink="http://www.w3.org/1999/xlink" x="0px" y="0px"
	 width="40.007px" height="40.007px" viewBox="0 0 40.007 40.007" style="enable-background:new 0 0 40.007 40.007;"
	 xml:space="preserve">
<g id="_x35_00._Down">
	<g>
		<path d="M30.004,2.684c-9.566-5.523-21.798-2.246-27.32,7.32c-5.523,9.565-2.246,21.797,7.32,27.32
			c9.565,5.522,21.798,2.245,27.32-7.32C42.848,20.438,39.569,8.205,30.004,2.684z M33.86,28.004
			c-4.419,7.652-14.204,10.274-21.856,5.855C4.352,29.441,1.729,19.656,6.147,12.004c4.418-7.653,14.204-10.275,21.856-5.856
			C35.656,10.565,38.278,20.351,33.86,28.004z M24.246,16.104l-4.242,4.243l-4.243-4.243c-0.78-0.78-2.047-0.78-2.828,0
			c-0.781,0.781-0.781,2.048,0,2.829l5.657,5.656c0.78,0.781,2.047,0.781,2.828,0.001l5.656-5.657c0.781-0.781,0.781-2.048,0-2.829
			C26.294,15.323,25.027,15.323,24.246,16.104z"/>
	</g>
</g>
<g>
</g>
<g>
</g>
<g>
</g>
<g>
</g>
<g>
</g>
<g>
</g>
<g>
</g>
<g>
</g>
<g>
</g>
<g>
</g>
<g>
</g>
<g>
</g>
<g>
</g>
<g>
</g>
<g>
</g>
</svg>
