<?xml version="1.0" encoding="iso-8859-1"?>
<!-- Generator: Adobe Illustrator 17.0.0, SVG Export Plug-In . SVG Version: 6.00 Build 0)  -->
<!DOCTYPE svg PUBLIC "-//W3C//DTD SVG 1.1//EN" "http://www.w3.org/Graphics/SVG/1.1/DTD/svg11.dtd">
<svg version="1.1" id="Capa_1" xmlns="http://www.w3.org/2000/svg" xmlns:xlink="http://www.w3.org/1999/xlink" x="0px" y="0px"
	 width="64px" height="64px" viewBox="0 0 64 64" style="enable-background:new 0 0 64 64;" xml:space="preserve">
<path d="M3.219,8.498L3.221,8.5c0.032,0.075,0.067,0.108,0.067,0.108L3.31,8.585L18.3,22.922V60.75h40.31V4.5H18.3v6.57L9.139,2.309
	L9.094,2.356C8.79,2.245,7.077,1.612,4.692,4.106C2.307,6.6,3.095,8.199,3.219,8.498L3.219,8.498z M45,43.625h8.61V55.75H45V43.625z
	 M45,20.875h2.375h1.242h3.375h1.383h0.235v21.75H45V20.875z M45,9.5h1.375v10.375H45V9.5z M49.617,9.5h1.375v10.375h-1.375V9.5z
	 M53.61,19.875h-0.235h-1.383V9.5h1.618V19.875z M48.617,19.875h-1.242V9.5h1.242V19.875z M44,19.875h-1.25V9.5H44V19.875z
	 M40.375,9.5h1.375v10.375h-1.375V9.5z M23.3,9.5h16.075v10.375h-5.25v1h5.25h3.375H44v21.75v1V55.75h-6.625v-2.319h-2v2.319H23.3
	V37.125h1.575v-2H23.3v-7.421l0.903,0.864c0.221-1.106,1.027-2.467,2.047-3.631c1.231-1.407,2.654-2.414,3.737-2.689L23.3,15.852
	V9.5z"/>
<path d="M26.682,25.232c-1.409,1.638-1.946,3.047-1.973,3.757c-0.008,0.216,0.477,0.49,0.563,0.49c0.002,0,0.004,0,0.005,0
	l1.145,0.137l0.853,0.102l3.894,0.467c0-0.002-0.002-0.004-0.002-0.007c-0.023-0.291,0.11-0.63,0.365-0.93
	c0.124-0.145,0.449-0.467,0.854-0.496l-1.111-3.79l-0.24-0.819l-0.299-1.022c0.018-0.225-0.24-0.514-0.312-0.514
	C29.703,22.608,28.147,23.528,26.682,25.232z M29.896,23.81l0.18,0.615l0.24,0.819l0.869,2.964
	c-0.192,0.147-0.333,0.297-0.414,0.393c-0.133,0.156-0.245,0.321-0.336,0.489l-3.041-0.364l-0.853-0.102l-0.728-0.087
	c0.2-0.614,0.7-1.574,1.627-2.652C28.423,24.74,29.332,24.103,29.896,23.81z"/>
<path d="M31.821,30.201c0.005,0.007,0.005,0.018,0.011,0.024l0.902,0.755c0.058,0.048,0.271,0.117,0.474,0.117
	c0.136,0,0.267-0.031,0.343-0.119c0.19-0.219-0.032-0.712-0.129-0.793L32.52,29.43c-0.021-0.018-0.049-0.026-0.082-0.026
	c-0.006,0-0.013,0.003-0.019,0.004c-0.115,0.01-0.278,0.111-0.418,0.273C31.823,29.886,31.752,30.106,31.821,30.201z"/>
<polygon points="35.375,38.319 37.375,38.319 37.375,35.125 33.987,35.125 33.987,37.125 35.375,37.125 "/>
<rect x="27.987" y="35.125" width="2.888" height="2"/>
<rect x="35.375" y="41.431" width="2" height="2.888"/>
<rect x="35.375" y="47.431" width="2" height="2.888"/>
</svg>
