<?xml version="1.0" encoding="utf-8"?>
<!-- Generator: Adobe Illustrator 16.0.0, SVG Export Plug-In . SVG Version: 6.00 Build 0)  -->
<!DOCTYPE svg PUBLIC "-//W3C//DTD SVG 1.1//EN" "http://www.w3.org/Graphics/SVG/1.1/DTD/svg11.dtd">
<svg version="1.1" id="Layer_1" xmlns="http://www.w3.org/2000/svg" xmlns:xlink="http://www.w3.org/1999/xlink" x="0px" y="0px"
	 width="126px" height="126px" viewBox="0 0 126 126" enable-background="new 0 0 126 126" xml:space="preserve">
<path d="M23.471,56.352c-0.876,0.02-1.44,0.117-1.772,0.211v12.521c0.332,0.095,0.87,0.112,1.359,0.129
	c3.615,0.149,6.033-1.999,6.033-6.715C29.12,58.396,26.913,56.276,23.471,56.352z"/>
<path d="M10.346,16.918v91.586l64.408,8.818v-9.41c0.145,0.01,0.287,0.021,0.434,0.021h33c3.86,0,7-3.141,7-7v-76.5
	c0-3.859-3.14-7-7-7h-33c-0.146,0-0.289,0.014-0.434,0.023V8.322L10.346,16.918z M30.457,70.398
	c-1.934,1.654-4.815,2.335-8.247,2.172c-2.006-0.096-3.406-0.301-4.349-0.485V53.6c1.391-0.302,3.227-0.509,5.197-0.58
	c3.35-0.121,5.573,0.471,7.345,1.855c1.936,1.49,3.169,3.94,3.169,7.492C33.572,66.217,32.255,68.832,30.457,70.398z M46.066,73.484
	l-1.885-3.886c-0.765-1.485-1.252-2.582-1.827-3.799l-0.061-0.001c-0.422,1.195-0.933,2.262-1.562,3.689l-1.659,3.67l-5.022-0.234
	l5.641-10.166l-5.442-9.994l5.059-0.181l1.753,3.721c0.601,1.251,1.052,2.264,1.536,3.433h0.061
	c0.485-1.334,0.882-2.272,1.401-3.494l1.759-3.891l5.521-0.197l-6.017,10.505l6.34,11.087L46.066,73.484z M68.755,55.801
	l-9.231,0.188v5.085l8.607-0.014v4.223l-8.607-0.117v8.946l-5.173-0.241V52.047l14.404-0.514V55.801z M75.188,21.434h33
	c1.654,0,3,1.346,3,3v76.5c0,1.654-1.346,3-3,3h-33c-0.148,0-0.291-0.021-0.434-0.043V80.122c5.706-2.42,15.259-6.49,15.259-6.49
	l-15.259-0.155v-0.719l0.394-0.031l7.84-18.907l-3.493-11.141l4.625,9.902c1.065,2.526,2.123,5.054,3.189,7.579
	c1.915,4.532,3.836,9.06,5.747,13.595c1.587,3.764,1.73,4.096,3.311,7.863h12.427c-0.508-1.241,0.429,0.955-0.091-0.28
	c-2.573-6.107-5.15-12.214-7.73-18.318c-1.416-3.349-2.844-6.69-4.258-10.04c-1.541-3.647-3.079-7.296-4.599-10.952
	c-0.333-0.8-0.83-1.352-1.713-1.493c-0.041-0.007-13.148,0.048-13.174,0.048c-0.829-0.01-1.302,0.471-1.604,1.172
	c-0.295,0.688-0.582,1.38-0.87,2.071V21.479C74.897,21.457,75.04,21.434,75.188,21.434z"/>
</svg>
