<?xml version="1.0" encoding="iso-8859-1"?>
<!-- Generator: Adobe Illustrator 17.1.0, SVG Export Plug-In . SVG Version: 6.00 Build 0)  -->
<!DOCTYPE svg PUBLIC "-//W3C//DTD SVG 1.1//EN" "http://www.w3.org/Graphics/SVG/1.1/DTD/svg11.dtd">
<svg version="1.1" id="Capa_1" xmlns="http://www.w3.org/2000/svg" xmlns:xlink="http://www.w3.org/1999/xlink" x="0px" y="0px"
	 viewBox="0 0 200 200" style="enable-background:new 0 0 200 200;" xml:space="preserve">
<g>
	<path d="M100,192.204c50.545,0,91.667-41.122,91.667-91.667S150.545,8.87,100,8.87S8.333,49.991,8.333,100.537
		S49.455,192.204,100,192.204z M100,15.87c8.973,0,17.619,1.415,25.74,4.013c-2.318,3.301-2.672-1.309-3.389,0.616
		c-0.735,1.972-2.547,2.566-3.072,2.54c-1.035,1.561-1.985,3.2-3.01,4.724c-1.085,0.197-2.087,0.399-3.097,0.552
		c-0.413,0.063-0.716,0.22-0.985,0.541c-1.104,1.314-2.24,2.602-3.344,3.916c-0.969,1.153-1.909,2.33-2.865,3.492
		c-0.129,0.157-0.284,0.292-0.424,0.435c-0.735-0.268-1.314-0.688-1.845-1.185c-0.918-0.86-1.563-1.905-2.048-3.053
		c-0.648-1.536-1.015-3.142-1.2-4.799c-0.055-0.497-0.015-0.942,0.17-1.405c0.593-1.48,1.144-2.977,1.743-4.454
		c0.173-0.427,0.116-0.745-0.231-1.078c-1.048,0.054-2.122-0.241-3.225,0.104c0.109,0.257,0.196,0.479,0.295,0.695
		c0.339,0.738,0.686,1.473,1.02,2.214c0.069,0.154,0.092,0.33,0.14,0.507c-0.938,0.722-1.863,1.395-2.743,2.122
		c-0.877,0.725-1.655,1.567-2.577,2.286c-0.437-0.838-1.119-1.378-1.821-1.893c-1.175-0.863-0.766-0.715-2.226-0.666
		c-0.99,0.033-1.976,0.096-2.908,0.509c-0.503,0.223-1.056,0.215-1.601,0.186c-0.414-0.022-0.758-0.178-1.009-0.514
		c-0.072-0.096-0.131-0.203-0.204-0.298c-0.232-0.3-0.547-0.379-0.888-0.263c-0.282,0.096-0.567,0.217-0.812,0.384
		c-0.421,0.288-0.836,0.595-1.209,0.941c-0.467,0.433-0.969,0.808-1.503,1.149c-0.812,0.517-1.613,1.053-2.43,1.563
		c-0.302,0.189-0.486,0.416-0.537,0.779c-0.079,0.565-0.235,1.121-0.293,1.688c-0.077,0.749-0.099,1.504,0.148,2.237
		c0.33,0.98,1.171,1.41,2.144,1.051c1.163-0.43,2.254-1.003,3.228-1.779c0.645-0.514,1.179-1.117,1.475-1.905
		c0.052-0.14,0.115-0.279,0.196-0.404c0.175-0.271,0.398-0.34,0.693-0.211c0.248,0.108,0.484,0.242,0.728,0.359
		c0.614,0.294,1.226,0.28,1.814-0.057c0.312-0.178,0.61-0.386,0.889-0.613c0.256-0.208,0.481-0.455,0.713-0.691
		c0.385-0.392,0.83-0.697,1.337-0.903c0.954-0.386,1.638-0.209,2.186,0.649c0.418,0.653,0.954,1.153,1.586,1.578
		c0.273,0.184,0.54,0.386,0.778,0.613c0.377,0.359,0.496,0.802,0.373,1.32c-0.135,0.568-0.417,1.06-0.721,1.546
		c-0.255,0.408-0.518,0.813-0.747,1.236c-0.112,0.207-0.179,0.446-0.225,0.679c-0.049,0.247,0.179,0.497,0.429,0.455
		c0.323-0.054,0.636-0.165,0.954-0.252c0.189-0.051,0.377-0.103,0.659-0.18c-0.106,1.875-0.389,3.608-1.289,5.19
		c-0.162,0.285-0.366,0.559-0.6,0.786c-0.67,0.65-1.462,0.92-2.398,0.691c-0.65-0.159-1.245-0.393-1.756-0.86
		c-1.001-0.915-1.926-0.808-2.827,0.173c-0.282,0.307-0.53,0.662-0.721,1.032c-0.199,0.386-0.489,0.576-0.886,0.684
		c-1.761,0.476-3.543,0.678-5.36,0.437c-0.305-0.041-0.586-0.026-0.885,0.064c-1.151,0.347-2.309,0.668-3.465,0.997
		c-0.464,0.132-0.902,0.314-1.318,0.569c-0.771,0.474-1.585,0.867-2.449,1.139c-0.877,0.276-1.76,0.426-2.608-0.186
		c-2.754,2.301-5.818,3.983-9.235,5.072c-0.202,1.279-0.398,2.523-0.595,3.768c-0.239,1.516-0.475,3.032-0.719,4.547
		c-0.062,0.382-0.218,0.53-0.57,0.588c-0.412,0.067-0.801-0.004-1.073-0.328c-0.268-0.319-0.522-0.664-0.711-1.033
		c-0.484-0.946-0.776-1.968-0.887-3.016c-0.156-1.466-0.928-2.456-2.193-3.089c-1.663-0.833-3.444-1.112-5.268-0.791
		c-2.998,0.527-5.562,1.928-7.625,4.166c-1.744,1.891-1.725,1.891-2.212,4.508c-0.17,0.913-0.191,1.859,0.101,2.774
		c0.3,0.939,0.915,1.521,1.893,1.73c0.509,0.109,1.009,0.157,1.52,0.048c0.558-0.119,2.043-0.413,2.191-0.354
		c0.422,0.17,0.796,0.428,1.076,0.796c0.354,0.466,0.454,0.968,0.206,1.524c-0.188,0.422-0.454,0.788-0.798,1.082
		c-0.434,0.37-1.764,1.31-1.938,1.472c-0.739,0.691-0.727,1.52,0.029,2.178c0.18,0.157,0.388,0.284,0.59,0.414
		c0.172,0.111,0.354,0.206,0.558,0.322c-0.05,0.546-0.085,1.054-0.146,1.559c-0.158,1.321-0.165,2.647-0.094,3.97
		c0.068,1.265,0.615,2.332,1.647,3.083c0.679,0.494,1.406,0.929,2.144,1.331c0.416,0.227,0.889,0.367,1.351,0.488
		c1.361,0.355,2.578,0.05,3.564-0.954c0.417-0.424,0.754-0.935,1.073-1.442c0.59-0.938,1.449-1.333,2.53-1.115
		c0.581,0.117,1.083,0.402,1.488,0.805c0.505,0.501,1.108,0.816,1.732,1.116c0.84,0.404,1.672,0.825,2.517,1.219
		c0.296,0.138,0.613,0.242,0.93,0.323c2.377,0.6,4.415,1.748,5.919,3.72c0.312,0.408,0.668,0.636,1.138,0.801
		c2.233,0.783,4.284,1.908,6.118,3.409c2.312,1.893,4.048,4.199,4.94,7.079c0.21,0.676,0.51,1.246,1.02,1.756
		c0.484,0.485,0.887,1.066,1.251,1.652c0.491,0.791,0.911,1.626,1.363,2.442c0.114,0.206,0.232,0.41,0.333,0.586
		c0.434,0.087,0.818,0.156,1.199,0.241c2.546,0.568,4.947,1.49,7.123,2.951c1.131,0.76,2.141,1.656,3.016,2.706
		c0.241,0.289,0.381,0.584,0.387,0.973c0.052,3.432-1.194,6.221-4.057,8.203c-0.368,0.255-0.588,0.562-0.74,0.977
		c-0.737,2.005-1.491,4.003-2.256,5.997c-0.138,0.36-0.322,0.714-0.544,1.029c-1.008,1.426-2.048,2.83-3.052,4.258
		c-0.322,0.458-0.708,0.813-1.198,1.068c-0.373,0.194-0.744,0.396-1.124,0.576c-1.392,0.658-2.849,1.127-4.356,1.437
		c-0.398,0.082-0.711,0.235-0.971,0.58c-0.997,1.322-2.028,2.619-3.044,3.927c-0.111,0.142-0.226,0.285-0.311,0.443
		c-0.975,1.805-2.169,3.47-3.29,5.182c-0.253,0.387-0.565,0.689-0.949,0.944c-1.631,1.08-3.259,2.166-4.875,3.271
		c-0.469,0.321-0.916,0.685-1.331,1.074c-0.813,0.761-1.605,1.547-2.389,2.338c-0.207,0.209-0.401,0.455-0.524,0.719
		c-0.76,1.637-1.491,3.288-2.251,4.926c-0.162,0.349-0.191,0.682-0.121,1.049c0.513,2.72,1.022,5.44,1.525,8.162
		c0.058,0.316,0.125,0.637,0.121,0.961c-0.688,0.027-0.69,0.029-1.345-0.249c-1.149-0.488-2.156-1.196-3.083-2.02
		c-2.119-1.883-3.726-4.167-5.143-6.598c-0.132-0.226-0.199-0.504-0.237-0.767c-0.314-2.144-0.619-4.289-0.915-6.435
		c-0.038-0.278-0.13-0.515-0.285-0.746c-0.357-0.535-0.517-1.143-0.635-1.77c-0.278-1.477-0.114-2.94,0.103-4.403
		c0.257-1.726,0.52-3.451,0.78-5.176c0.037-0.244,0.019-0.464-0.14-0.68c-0.425-0.58-0.551-1.256-0.591-1.959
		c-0.076-1.34,0.158-2.637,0.497-3.924c0.122-0.464,0.231-0.934,0.301-1.408c0.23-1.548,0.444-3.098,0.656-4.648
		c0.089-0.652,0.157-1.306,0.23-1.924c-0.14-0.128-0.226-0.213-0.318-0.29c-0.867-0.727-1.373-1.657-1.585-2.761
		c-0.15-0.779-0.149-1.557-0.006-2.333c0.108-0.584,0.246-1.162,0.372-1.751c-0.304-0.209-0.578-0.392-0.847-0.582
		c-1.309-0.925-2.528-1.953-3.547-3.196c-1.05-1.28-2.089-2.571-3.099-3.882c-0.402-0.521-0.764-1.087-1.061-1.674
		c-0.484-0.958-0.723-1.979-0.478-3.06c0.057-0.25,0.007-0.469-0.076-0.701c-0.62-1.737-0.695-3.534-0.554-5.349
		c0.097-1.249,0.429-2.427,1.14-3.479c0.438-0.648,0.854-1.312,1.304-1.952c0.796-1.133,1.604-2.259,2.42-3.377
		c0.798-1.094,1.25-2.318,1.484-3.643c0.106-0.599,0.171-1.196,0.112-1.797c-0.091-0.93-0.414-1.747-1.218-2.319
		c-0.882-0.627-1.732-1.301-2.626-1.911c-0.462-0.315-0.678-0.721-0.8-1.242c-0.288-1.23-0.627-2.448-0.906-3.68
		c-0.099-0.437-0.282-0.772-0.626-1.054c-0.535-0.44-1.045-0.909-1.562-1.37c-0.199-0.178-0.388-0.366-0.578-0.547
		c0.04-1.144,0.349-2.227,0.368-3.361c-0.302-0.127-0.576-0.241-0.848-0.357c-1.361-0.583-2.651-1.288-3.808-2.221
		c-0.708-0.571-1.342-1.212-1.827-1.986c-0.626-1-0.936-2.074-0.754-3.267c0.127-0.833,0.224-1.67,0.33-2.506
		c0.084-0.657,0.166-1.314,0.239-1.972c0.012-0.106,0.033-0.25-0.144-0.269c0,0,0.584-1.04-1.943-4.155
		c-0.19-0.234-0.352-0.483-0.501-0.738C44.207,31.215,70.338,15.87,100,15.87z M143.851,172.94c1.952-2.042,3.323-4.236,2.041-5.946
		c-0.708-0.681-0.652-1.495-0.371-2.335c0.162-0.484,0.309-0.978,0.515-1.443c0.621-1.402,1.268-2.794,1.907-4.188
		c0.702-1.531,1.404-3.062,2.109-4.592c0.433-0.939,0.492-1.904,0.272-2.909c-0.257-1.175-0.479-2.358-0.716-3.538
		c-0.235-1.171-0.25-2.337,0.154-3.475c0.763-2.149,1.792-4.138,3.456-5.752c0.518-0.502,0.998-1.046,1.466-1.596
		c0.609-0.716,1.072-1.524,1.402-2.407c0.42-1.122,0.571-2.26,0.337-3.455c-0.181-0.923-0.511-1.791-0.815-2.671
		c-0.255-0.739-0.526-1.473-0.744-2.223c-0.351-1.208-0.402-2.439-0.07-3.658c0.213-0.782,0.49-1.548,0.762-2.313
		c0.282-0.793,0.604-1.572,0.887-2.365c0.368-1.031,0.577-2.097,0.471-3.192c-0.072-0.745-0.201-1.491-0.38-2.218
		c-0.192-0.781-0.525-0.922-1.254-0.634c-0.279,0.11-0.549,0.245-0.825,0.363c-0.857,0.367-1.399,0.208-1.827-0.413
		c-0.319-0.462-0.79-0.739-1.329-0.88c-0.464-0.122-0.931-0.274-1.405-0.308c-1.594-0.115-3.189-0.051-4.784,0.045
		c-1.171,0.07-2.345,0.106-3.517,0.127c-0.356,0.006-0.716-0.074-1.069-0.139c-0.953-0.176-1.847-0.525-2.719-0.94
		c-1.587-0.754-3.021-1.744-4.394-2.828c-2.226-1.758-4.223-3.768-6.263-5.73c-0.273-0.263-0.443-0.578-0.533-0.926
		c-0.113-0.435-0.206-0.881-0.245-1.328c-0.177-2.058,0.077-4.087,0.453-6.105c0.403-2.161,0.962-4.284,1.577-6.393
		c0.347-1.19,0.539-2.405,0.53-3.65c-0.004-0.519-0.042-1.026-0.317-1.481c-0.241-0.399-0.23-0.813-0.05-1.212
		c0.297-0.657,0.579-1.329,0.956-1.939c1.276-2.065,3.125-3.389,5.461-4.018c0.518-0.14,0.917-0.374,1.257-0.793
		c0.871-1.077,1.792-2.114,2.659-3.193c0.3-0.373,0.644-0.591,1.097-0.723c1.356-0.393,2.703-0.818,4.052-1.234
		c1.185-0.365,2.395-0.558,3.636-0.606c2.252-0.088,4.447,0.17,6.555,0.987c0.354,0.137,0.699,0.15,1.059,0.145
		c1.265-0.019,2.528-0.033,3.784,0.17c1.201,0.194,2.313,0.521,3.295,1.326c1.723,1.411,3.521,2.73,5.287,4.09
		c0.972,0.748,0.971,0.75,2.202,0.723c1.868-0.042,3.733-0.042,5.573,0.355c0.078,0.017,0.168-0.024,0.307-0.047
		c-0.02-0.247-0.01-0.485-0.062-0.708c-0.19-0.822-0.406-1.642-0.819-2.382c-0.307-0.549-0.631-1.101-1.032-1.581
		c-0.824-0.988-1.892-1.557-3.197-1.644c-0.36-0.024-0.72-0.072-1.075-0.136c-1.023-0.185-1.776-0.735-2.149-1.719
		c-0.169-0.447-0.246-0.928-0.378-1.389c-0.046-0.16-0.132-0.309-0.208-0.482c-0.123,0.075-0.214,0.106-0.27,0.169
		c-0.161,0.179-0.312,0.366-0.458,0.557c-0.183,0.239-0.343,0.497-0.538,0.725c-0.634,0.742-1.143,0.695-1.601-0.143
		c-0.101-0.184-0.186-0.379-0.26-0.575c-0.107-0.281-0.193-0.57-0.297-0.852c-0.146-0.395-0.277-0.797-0.455-1.177
		c-0.345-0.737-0.67-0.773-1.166-0.156c-0.094,0.117-0.173,0.248-0.275,0.358c-0.163,0.176-0.325,0.359-0.513,0.506
		c-0.651,0.51-1.32,0.51-1.989,0.014c-0.12-0.089-0.225-0.199-0.337-0.3c-0.308-0.277-0.456-0.606-0.44-1.037
		c0.02-0.54,0.006-1.086-0.049-1.623c-0.033-0.322-0.147-0.643-0.271-0.945c-0.101-0.247-0.393-0.311-0.611-0.156
		c-0.219,0.154-0.417,0.338-0.66,0.538c-0.272-0.114-0.548-0.222-0.818-0.345c-1.177-0.535-2.349-1.082-3.531-1.607
		c-0.405-0.18-0.782-0.387-1.124-0.84c-0.635,2.119-0.693,4.204-0.995,6.29c-0.222,0.07-0.444,0.153-0.672,0.211
		c-0.99,0.252-1.99,0.467-2.972,0.75c-1.604,0.463-3.026,0.143-4.322-0.876c-0.939-0.738-1.665-1.654-2.251-2.682
		c-0.745-1.307-1.467-2.628-2.195-3.945c-0.085-0.154-0.149-0.319-0.228-0.491c0.334-0.37,0.771-0.514,1.155-0.735
		c1.759-1.01,3.624-1.607,5.683-1.405c0.252,0.025,0.474-0.021,0.68-0.173c0.145-0.107,0.306-0.19,0.459-0.287
		c0.762-0.484,1.606-0.878,2.262-1.478c0.679-0.621,1.183-1.437,1.747-2.18c0.232-0.306,0.521-0.581,0.664-0.968
		c-0.265-0.618-0.502-1.237-0.792-1.83c-0.237-0.484-0.284-0.97-0.199-1.489c0.102-0.623,0.197-1.249,0.276-1.875
		c0.029-0.227,0.128-0.475-0.097-0.715c-0.982-0.134-1.99-0.308-3.004-0.396c-0.486-0.042-0.769-0.243-0.991-0.644
		c-0.306-0.553-0.663-1.078-0.958-1.636c-0.208-0.393-0.513-0.56-0.933-0.603c-0.568-0.058-1.133-0.167-1.702-0.199
		c-0.462-0.026-0.797-0.227-1.089-0.556c-0.448-0.506-0.725-1.103-0.932-1.737c-0.292-0.894-0.391-1.822-0.463-2.754
		c-0.092-1.204-0.041-2.403,0.148-3.649c0.234-0.046,0.463-0.104,0.695-0.132c0.239-0.029,0.481-0.021,0.721-0.043
		c0.209-0.019,0.417-0.06,0.626-0.083c0.239-0.027,0.48-0.039,0.719-0.07c0.219-0.028,0.468,0.046,0.669-0.143
		c0,0,2.022,0.298,2.37-2.112c0.036-0.251,0.124-0.494,0.239-0.729c23.537,15.055,39.185,41.405,39.185,71.357
		C184.667,131.182,168.302,158.076,143.851,172.94z"/>
</g>
</svg>
