<?xml version="1.0" encoding="utf-8"?>
<!-- Generator: Adobe Illustrator 16.0.0, SVG Export Plug-In . SVG Version: 6.00 Build 0)  -->
<!DOCTYPE svg PUBLIC "-//W3C//DTD SVG 1.1//EN" "http://www.w3.org/Graphics/SVG/1.1/DTD/svg11.dtd">
<svg version="1.1" id="Layer_13" xmlns="http://www.w3.org/2000/svg" xmlns:xlink="http://www.w3.org/1999/xlink" x="0px" y="0px"
	 width="100px" height="100px" viewBox="0 0 100 100" enable-background="new 0 0 100 100" xml:space="preserve">
<path d="M94.125,44.5h-3.971l-0.051-0.131c-4.176-9.03-18.417-15.74-35.478-16.737V24.5h-9v3.135
	c-18.388,1.074-33.202,8.674-36.19,18.615h-3.56v9h4.373l-0.227,0.099c4.023,9.197,18.302,16.006,35.604,17.017V75.5h9v-3.134
	C73.22,71.28,88.072,63.562,90.887,53.5h3.238V44.5z M46.625,25.5h7v7h-7V25.5z M6.875,54.25v-7h7v7h-1.056
	c-0.015-0.035-0.034-0.068-0.049-0.103l-0.235,0.103H6.875z M53.625,74.5h-7v-7h7V74.5z M54.625,69.36V66.5h-9v2.86
	c-15.142-0.924-28.082-6.62-32.296-14.11h1.546v-9h-2.267c3.225-8.181,16.773-14.617,33.017-15.609V33.5h9v-2.858
	c15.144,0.922,27.73,6.41,32.108,13.858h-1.609v9h2.613C84.697,61.797,71.08,68.356,54.625,69.36z M93.125,52.5h-7v-7h7V52.5z"/>
</svg>
