<?xml version="1.0" encoding="utf-8"?>
<!-- Generator: Adobe Illustrator 16.0.0, SVG Export Plug-In . SVG Version: 6.00 Build 0)  -->
<!DOCTYPE svg PUBLIC "-//W3C//DTD SVG 1.1//EN" "http://www.w3.org/Graphics/SVG/1.1/DTD/svg11.dtd">
<svg version="1.1" id="Layer_1" xmlns="http://www.w3.org/2000/svg" xmlns:xlink="http://www.w3.org/1999/xlink" x="0px" y="0px"
	 width="96px" height="96px" viewBox="0 0 96 96" enable-background="new 0 0 96 96" xml:space="preserve">
<path d="M1.25,1.25v93.5h93.5V1.25H1.25z M7.963,7.699h18.584l-5.595,5.594l13.433,13.391l-7.397,7.435L13.557,20.688l-5.594,5.595
	V7.699z M63.33,32.67v30.66H32.67V32.67H63.33z M26.547,88.301H7.963V69.718l5.594,5.595l13.431-13.44l7.397,7.405l-13.433,13.43
	L26.547,88.301z M88.037,88.301H69.453l5.595-5.594l-13.433-13.43l7.397-7.405l13.431,13.44l5.594-5.595V88.301z M88.037,26.282
	l-5.594-5.595l-13.431,13.44l-7.397-7.396l13.433-13.439l-5.595-5.594h18.584V26.282z"/>
</svg>
