<?xml version="1.0" encoding="utf-8"?>
<!-- Generator: Adobe Illustrator 16.0.0, SVG Export Plug-In . SVG Version: 6.00 Build 0)  -->
<!DOCTYPE svg PUBLIC "-//W3C//DTD SVG 1.1//EN" "http://www.w3.org/Graphics/SVG/1.1/DTD/svg11.dtd">
<svg version="1.1" id="Layer_1" xmlns="http://www.w3.org/2000/svg" xmlns:xlink="http://www.w3.org/1999/xlink" x="0px" y="0px"
	 width="100px" height="100px" viewBox="0 0 100 100" enable-background="new 0 0 100 100" xml:space="preserve">
<g>
	<path d="M56.117,40.591c2.542,0,4.61,2.068,4.61,4.61c0,0.553,0.448,1,1,1s1-0.447,1-1c0-2.542,2.068-4.61,4.611-4.61
		s4.61,2.068,4.61,4.61v1.792c0,0.553,0.447,1,1,1s1-0.447,1-1c0-2.542,2.067-4.61,4.609-4.61s4.611,2.068,4.611,4.61v31.194
		C83.17,87.611,76.783,92,63.072,92c-11.234,0-13.47-2.97-20.215-14.282c-0.016-0.045-0.031-0.175-0.03-0.255
		c0.004-0.188-0.043-0.371-0.139-0.531L25.971,48.66c-0.043-0.072-0.094-0.139-0.154-0.198c-1.797-1.798-1.798-4.723,0-6.521
		c0.871-0.871,2.029-1.351,3.26-1.351s2.389,0.479,3.26,1.351l6.24,6.24c0.286,0.286,0.714,0.373,1.09,0.217
		c0.374-0.154,0.617-0.52,0.617-0.924V25.728V16.47c0-2.542,2.068-4.61,4.611-4.61c2.542,0,4.61,2.068,4.61,4.61v8.957V45.2
		c0,0.553,0.448,1,1,1c0.552,0,1-0.447,1-1C51.507,42.659,53.574,40.591,56.117,40.591z"/>
	<path d="M51.507,23.22v-6.749c0-3.645-2.966-6.61-6.611-6.61s-6.611,2.966-6.611,6.61v7.217c-0.069-0.066-0.137-0.135-0.203-0.203
		c-3.496-3.633-3.384-9.433,0.249-12.929C40.043,8.909,42.294,8,44.67,8c2.51,0,4.851,0.996,6.59,2.804
		C54.591,14.265,54.647,19.69,51.507,23.22z"/>
	<path d="M29.809,19.386c-0.391-0.391-1.023-0.391-1.414,0L17.123,30.657c-0.391,0.391-0.391,1.023,0,1.414
		c0.195,0.195,0.451,0.293,0.707,0.293c0.256,0,0.512-0.098,0.707-0.293L29.809,20.8C30.2,20.409,30.2,19.776,29.809,19.386z"/>
	<path d="M31.605,25.288c0.391-0.391,0.391-1.023,0-1.414c-0.391-0.391-1.023-0.391-1.414,0L18.919,35.146
		c-0.391,0.391-0.391,1.023,0,1.414c0.195,0.195,0.451,0.293,0.707,0.293c0.256,0,0.512-0.098,0.707-0.293L31.605,25.288z"/>
	<path d="M23.408,39.253c0.195,0.195,0.451,0.293,0.707,0.293s0.512-0.098,0.707-0.293l11.272-11.271
		c0.391-0.391,0.391-1.023,0-1.414s-1.023-0.391-1.414,0L23.408,37.839C23.017,38.229,23.017,38.862,23.408,39.253z"/>
</g>
</svg>
