<?xml version="1.0" encoding="iso-8859-1"?>
<!-- Generator: Adobe Illustrator 16.0.0, SVG Export Plug-In . SVG Version: 6.00 Build 0)  -->
<!DOCTYPE svg PUBLIC "-//W3C//DTD SVG 1.1//EN" "http://www.w3.org/Graphics/SVG/1.1/DTD/svg11.dtd">
<svg version="1.1" id="Layer_1" xmlns="http://www.w3.org/2000/svg" xmlns:xlink="http://www.w3.org/1999/xlink" x="0px" y="0px"
	 width="32px" height="19.986px" viewBox="0 0 32 19.986" style="enable-background:new 0 0 32 19.986;" xml:space="preserve">
<path d="M23.083,6.555V3.733l0.935,0.11V1.728L12.729,0L0,2.423v2.473l1.18-0.164v6.872l3.423-0.001v6.414l16.251,1.97l2.875-0.349
	v-8.232l5.107,0.016v7.596l2.373-0.288V8.694L32,8.733V7.229L23.083,6.555z M21.933,4.71v2.475l-3.401,0.063V4.364L21.933,4.71z
	 M2.948,5.114l7.719-0.979v5.51L2.948,9.901V5.114z M6.119,16.559v-4.956h3.182v5.245L6.119,16.559z M10.11,16.902v-5.301h2.618
	v-0.009h1.063v5.644L10.11,16.902z M14.567,17.339v-5.746l4.286,0.001v6.136L14.567,17.339z"/>
<g>
</g>
<g>
</g>
<g>
</g>
<g>
</g>
<g>
</g>
<g>
</g>
<g>
</g>
<g>
</g>
<g>
</g>
<g>
</g>
<g>
</g>
<g>
</g>
<g>
</g>
<g>
</g>
<g>
</g>
</svg>
