<?xml version="1.0" encoding="iso-8859-1"?>
<!-- Generator: Adobe Illustrator 17.1.0, SVG Export Plug-In . SVG Version: 6.00 Build 0)  -->
<!DOCTYPE svg PUBLIC "-//W3C//DTD SVG 1.1//EN" "http://www.w3.org/Graphics/SVG/1.1/DTD/svg11.dtd">
<svg version="1.1" id="Layer_1" xmlns="http://www.w3.org/2000/svg" xmlns:xlink="http://www.w3.org/1999/xlink" x="0px" y="0px"
	 viewBox="0 0 64 64" style="enable-background:new 0 0 64 64;" xml:space="preserve">
<polygon points="8,16.917 1,26.25 1,40.333 8,36.917 "/>
<path d="M54.583,30.667L9,16.917v19.75l18.558,2.14l17.842-3.63c0.031-0.007,0.062,0.002,0.094,0.002
	c0.032,0,0.064-0.01,0.097-0.004l9.36,1.733L54.583,30.667z M18,23l9,2.5v1.103l-9-2.284V23z M27,31l-9-1.542v-4.107l9,2.284V31z"/>
<polygon points="25.375,39.125 8.625,37.375 1.75,40.5 14.458,41.375 "/>
<path d="M46,36.268v4.666v15.669L59.316,55H60v-0.082l3-0.361V39.416l-7.989-1.48L46,36.268z M48,41.164v-0.122l5.666,0.776
	L54,41.863v12.863l-6,0.732V41.164z M62,53.75l-2,0.244v-11.31l2,0.274V53.75z M59,54.116l-4,0.488V42l4,0.548V54.116z"/>
<polygon points="12,42.992 12,52.558 22,53.783 22,45.583 27,45 27,54.396 45,56.602 45,40.818 45,36.278 30.759,39.176 "/>
<polygon points="11,42.583 11,42.583 11,42.583 "/>
</svg>
