<?xml version="1.0" encoding="iso-8859-1"?>
<!-- Generator: Adobe Illustrator 17.1.0, SVG Export Plug-In . SVG Version: 6.00 Build 0)  -->
<!DOCTYPE svg PUBLIC "-//W3C//DTD SVG 1.1//EN" "http://www.w3.org/Graphics/SVG/1.1/DTD/svg11.dtd">
<svg version="1.1" id="Layer_1" xmlns="http://www.w3.org/2000/svg" xmlns:xlink="http://www.w3.org/1999/xlink" x="0px" y="0px"
	 viewBox="0 0 64 64" style="enable-background:new 0 0 64 64;" xml:space="preserve">
<path d="M31.862,12.231c-0.051,0.369-0.206,0.702-0.437,0.972C39.286,19.874,42.009,13.665,31.862,12.231z"/>
<path d="M31.371,13.452c-0.031-0.033-0.056-0.064-0.087-0.096c-0.001,0.001-0.003,0.002-0.004,0.003
	C31.311,13.392,31.34,13.419,31.371,13.452z"/>
<path d="M30.004,10.073c0-0.048-0.002-0.092-0.001-0.141c0,0.049-0.003,0.092-0.004,0.14C30,10.073,30.002,10.073,30.004,10.073z"/>
<path d="M31.886,11.953c0,0.002,0.001,0.004,0.001,0.005c0.048-0.001,0.092-0.003,0.141-0.004
	C31.978,11.955,31.934,11.953,31.886,11.953z"/>
<path d="M29.756,10.094c-1.284-10.24-6.966-7.914-0.897,0.355C29.116,10.258,29.422,10.135,29.756,10.094z"/>
<path d="M31.514,10.852c0.194,0.264,0.317,0.578,0.354,0.921C42.109,10.646,39.801,4.816,31.514,10.852z"/>
<path d="M31.501,10.589c-0.04,0.037-0.078,0.068-0.118,0.104c0.001,0.002,0.002,0.003,0.004,0.005
	C31.426,10.661,31.46,10.625,31.501,10.589z"/>
<path d="M28.598,13.266c-0.033,0.031-0.062,0.061-0.095,0.093c0.034-0.031,0.065-0.058,0.099-0.089
	C28.6,13.268,28.599,13.267,28.598,13.266z"/>
<path d="M27.945,11.952c0.049,0,0.092,0.004,0.14,0.004c0-0.002,0-0.004,0.001-0.005C28.037,11.951,27.993,11.953,27.945,11.952z"/>
<path d="M28.105,11.755c0.044-0.374,0.194-0.712,0.422-0.988C20.682,4.333,17.971,10.532,28.105,11.755z"/>
<path d="M30.209,10.094c0.374,0.044,0.711,0.195,0.986,0.424C37.655,2.67,31.454-0.043,30.209,10.094z"/>
<path d="M28.451,13.088c-0.185-0.254-0.304-0.555-0.344-0.882C17.822,13.509,20.008,19.182,28.451,13.088z"/>
<path d="M28.711,10.571c-0.037-0.041-0.073-0.076-0.111-0.117c0.038,0.041,0.069,0.08,0.106,0.121
	C28.708,10.573,28.71,10.572,28.711,10.571z"/>
<path d="M29.108,12.098c0.021,0.143,0.072,0.27,0.152,0.383c0.02,0.028,0.035,0.059,0.057,0.085c0.01,0.011,0.015,0.027,0.025,0.037
	c0.023,0.024,0.054,0.037,0.08,0.058c0.121,0.099,0.267,0.162,0.428,0.187c0.041,0.006,0.078,0.024,0.121,0.024
	c0.005,0,0.009,0.003,0.014,0.003c0.011,0,0.019-0.006,0.03-0.006c0.029-0.001,0.054-0.013,0.082-0.017
	c0.146-0.019,0.277-0.072,0.393-0.152c0.029-0.021,0.062-0.036,0.089-0.06c0.011-0.01,0.026-0.015,0.037-0.025
	c0.023-0.023,0.036-0.053,0.056-0.078c0.099-0.121,0.161-0.266,0.187-0.427c0.007-0.042,0.025-0.081,0.025-0.125
	c0-0.004,0.003-0.008,0.003-0.012c0-0.011-0.006-0.021-0.006-0.032c-0.001-0.028-0.013-0.052-0.016-0.079
	c-0.019-0.15-0.073-0.283-0.157-0.401c-0.017-0.024-0.03-0.051-0.05-0.073c-0.01-0.011-0.015-0.026-0.025-0.037
	c-0.028-0.029-0.063-0.047-0.094-0.073c-0.123-0.098-0.269-0.161-0.433-0.184c-0.032-0.004-0.06-0.018-0.093-0.019
	c-0.01,0-0.019-0.006-0.029-0.006c-0.005,0-0.01,0.003-0.015,0.003c-0.038,0.001-0.071,0.016-0.107,0.022
	c-0.146,0.021-0.276,0.074-0.391,0.156c-0.023,0.016-0.048,0.029-0.07,0.047c-0.011,0.01-0.027,0.015-0.037,0.025
	c-0.03,0.028-0.049,0.064-0.074,0.096c-0.098,0.123-0.161,0.27-0.183,0.433c-0.004,0.03-0.017,0.057-0.018,0.089
	c0,0.011-0.006,0.02-0.006,0.031c0,0.005,0.003,0.009,0.003,0.014C29.086,12.026,29.103,12.06,29.108,12.098z"/>
<path d="M55.8,22.794c10.4-4.48,2.813-11.994-1.609-1.594c4.423-10.4-7.122-10.4-2.449,0C47.069,10.8,39.8,18.314,50.2,22.794
	c-10.4-4.48-10.4,7.064,0,2.449C39.8,29.858,47.069,37.2,51.742,26.8c-1.937,4.311-1.086,6.829,0.258,7.566v4.138
	c-0.535-0.73-1.186-1.027-1.844-1.113c-1.154-0.152-2.843,0.73-4.8-0.574c0.186,5.009,4.542,6.447,5.862,5.604
	c0.307-0.196,0.565-0.387,0.782-0.564V45H38v-0.884c0.177,0.05,0.362,0.099,0.582,0.14c1.214,0.225,3.969-2.116,2.621-5.829
	c-0.99,1.455-2.381,1.404-3.203,1.782v-1.498c0.579-0.734,0.805-2.175,0-4.321v-0.069c3.059,6.55,7.936,1.645,0.925-1.467
	c7.15,3.173,7.15-4.764,0-1.684c7.15-3.08,1.934-8.246-1.106-1.096c3.041-7.15-4.896-7.15-1.684,0
	c-3.213-7.15-8.21-1.984-1.06,1.096C33.25,30.384,31.893,30.318,31,30.6V17.777c1.859,5.541,5.214,2.88,0.094-4.265
	c-0.031,0.022-0.062,0.044-0.094,0.064c-0.239,0.152-0.515,0.309-0.81,0.341C30.127,13.925,30.066,14,30.002,14
	c-0.002,0-0.004,0-0.005,0c-0.004,0-0.007-0.061-0.011-0.061c-0.087,0-0.169-0.046-0.253-0.057
	c-0.266-0.036-0.513-0.139-0.732-0.273c-0.086-0.053-0.166-0.121-0.242-0.186c-5.803,6.864-1.805,9.794,0.242,3.674V45H17v-4.322
	c0.251,0.225,0.577,0.479,0.991,0.743c1.32,0.843,5.676-0.595,5.862-5.604c-1.957,1.304-3.646,0.422-4.8,0.574
	c-0.747,0.098-1.484,0.472-2.053,1.441v-3.627c1.215-0.901,1.909-3.364,0.191-7.405c4.423,10.4,12.009,3.058,1.609-1.557
	c10.4,4.616,10.4-6.929,0-2.449c10.4-4.48,2.813-11.994-1.609-1.594c4.423-10.4-7.122-10.4-2.449,0
	C10.069,10.8,2.8,18.314,13.2,22.794c-10.4-4.48-10.4,7.064,0,2.449C2.8,29.858,10.069,37.2,14.742,26.8
	c-1.937,4.311-1.086,6.829,0.258,7.566v2.279c-0.275-0.134-0.558-0.217-0.844-0.254c-1.154-0.152-2.843,0.73-4.8-0.574
	c0.177,4.766,4.124,6.294,5.644,5.705V45H6c-1.105,0-2,0.895-2,2v12c0,1.105,0.895,2,2,2h52c1.105,0,2-0.895,2-2V47
	c0-1.105-0.895-2-2-2h-4V34.205c1.215-0.901,1.909-3.364,0.191-7.405c4.423,10.4,12.009,3.058,1.609-1.557
	C66.2,29.858,66.2,18.314,55.8,22.794z M14.583,23.973c0-0.774,0.628-1.402,1.402-1.402s1.402,0.628,1.402,1.402
	s-0.628,1.402-1.402,1.402S14.583,24.748,14.583,23.973z M37.825,31.973c0,0.464-0.376,0.84-0.84,0.84s-0.84-0.376-0.84-0.84
	s0.376-0.84,0.84-0.84S37.825,31.51,37.825,31.973z M31,33.478c0.893,0.27,2.25,0.186,4.075-0.624
	c-7.051,3.129-2.289,8.073,0.925,1.351v0.045c-1.002,2.42-0.692,3.968,0,4.642V45h-5V33.478z M55,47c1.105,0,2,0.895,2,2
	c0,1.105-0.895,2-2,2H9c-1.105,0-2-0.895-2-2c0-1.105,0.895-2,2-2h6v3h2v-3h12v3h2v-3h5v3h2v-3h14v3h2v-3H55z M52.986,25.376
	c-0.774,0-1.402-0.628-1.402-1.402s0.628-1.402,1.402-1.402s1.402,0.628,1.402,1.402S53.76,25.376,52.986,25.376z"/>
</svg>
