<?xml version="1.0" encoding="iso-8859-1"?>
<!-- Generator: Adobe Illustrator 16.0.0, SVG Export Plug-In . SVG Version: 6.00 Build 0)  -->
<!DOCTYPE svg PUBLIC "-//W3C//DTD SVG 1.1//EN" "http://www.w3.org/Graphics/SVG/1.1/DTD/svg11.dtd">
<svg version="1.1" id="Layer_1" xmlns="http://www.w3.org/2000/svg" xmlns:xlink="http://www.w3.org/1999/xlink" x="0px" y="0px"
	 width="36px" height="36px" viewBox="0 0 36 36" style="enable-background:new 0 0 36 36;" xml:space="preserve">
<g>
	<path style="fill:#010101;" d="M25.469,15.99c-0.188-0.071-0.403-0.136-0.644-0.188c-0.238-0.044-0.487-0.057-0.757-0.059
		c-0.271-0.003-0.531,0.045-0.809,0.098c-0.274,0.059-0.534,0.152-0.798,0.261c-0.254,0.117-0.502,0.255-0.737,0.41
		c-0.223,0.163-0.448,0.333-0.638,0.527c-0.194,0.192-0.37,0.395-0.517,0.612c-0.304,0.426-0.505,0.895-0.627,1.327
		c-0.059,0.22-0.1,0.428-0.123,0.622c-0.025,0.193-0.025,0.378-0.025,0.526c-0.003,0.07,0.001,0.139,0.005,0.199
		c0.056-0.064,0.116-0.134,0.181-0.209c0.328-0.366,0.786-0.835,1.289-1.255c0.25-0.21,0.515-0.402,0.768-0.574
		c0.131-0.079,0.258-0.155,0.379-0.229c0.124-0.063,0.242-0.124,0.351-0.18c0.113-0.046,0.217-0.087,0.309-0.125
		c0.09-0.041,0.176-0.056,0.244-0.077c0.136-0.038,0.214-0.06,0.214-0.06s-0.076,0.027-0.208,0.076
		c-0.066,0.026-0.149,0.048-0.235,0.096c-0.088,0.044-0.187,0.093-0.295,0.146c-0.103,0.063-0.213,0.132-0.332,0.204
		c-0.111,0.08-0.229,0.165-0.352,0.253c-0.236,0.188-0.479,0.396-0.707,0.621c-0.459,0.448-0.87,0.94-1.159,1.322
		c-0.082,0.107-0.152,0.204-0.214,0.29c0.081,0,0.182,0.004,0.295-0.007c0.143-0.01,0.324-0.012,0.505-0.035
		c0.185-0.02,0.383-0.047,0.586-0.086c0.205-0.035,0.409-0.088,0.621-0.144c0.209-0.056,0.414-0.129,0.618-0.205
		c0.201-0.084,0.401-0.168,0.588-0.271c0.188-0.107,0.374-0.204,0.546-0.329c0.348-0.234,0.662-0.5,0.938-0.795
		c0.14-0.136,0.27-0.304,0.395-0.453c0.124-0.148,0.242-0.318,0.354-0.473c0.113-0.151,0.221-0.305,0.321-0.457
		c0.105-0.157,0.198-0.292,0.275-0.404c0.083-0.108,0.148-0.229,0.196-0.296c0.049-0.078,0.075-0.12,0.075-0.12
		s-0.034-0.036-0.1-0.089c-0.064-0.05-0.165-0.142-0.294-0.216C25.825,16.172,25.655,16.057,25.469,15.99z"/>
	<path style="fill:#010101;" d="M29.603,23.154V21.59H19.562c0.061-1.551,0.3-3.154,0.505-4.116c0.12-0.56,0.226-1.063,0.292-1.497
		c0.87-0.054,1.561-0.77,1.561-1.651c0-0.108-0.01-0.224-0.029-0.343c0.053,0.065,0.104,0.134,0.159,0.188
		c0.649,0.648,1.703,0.648,2.352,0c0.628-0.628,0.643-1.629,0.058-2.281c0.9-0.021,1.624-0.755,1.624-1.659
		c0-0.918-0.745-1.663-1.663-1.663c-0.074,0-0.151,0.008-0.229,0.017c0.042-0.036,0.092-0.072,0.129-0.109
		c0.649-0.649,0.649-1.702,0-2.353c-0.649-0.648-1.702-0.648-2.351,0c-0.05,0.051-0.097,0.114-0.145,0.176
		c0.003-0.047,0.006-0.095,0.006-0.14c0-0.918-0.745-1.662-1.663-1.662c-0.887,0-1.605,0.696-1.653,1.57
		c-0.652-0.604-1.667-0.594-2.302,0.041c-0.649,0.649-0.649,1.702,0,2.352c0.072,0.071,0.159,0.143,0.25,0.21
		c-0.071-0.008-0.142-0.014-0.209-0.014c-0.918,0-1.663,0.744-1.663,1.663c0,0.913,0.738,1.654,1.649,1.661
		c-0.63,0.65-0.626,1.688,0.017,2.331c0.645,0.645,1.686,0.647,2.336,0.012c0,0.001,0,0.002,0,0.003c0,0.768,0.525,1.409,1.234,1.6
		c-0.064,0.412-0.167,0.896-0.282,1.438c-0.148,0.689-0.31,1.454-0.416,2.212c-0.003-0.012-0.003-0.022-0.007-0.034
		c-0.087-0.308-0.23-0.641-0.446-0.943c-0.104-0.154-0.229-0.299-0.367-0.436c-0.135-0.137-0.295-0.258-0.453-0.374
		c-0.167-0.11-0.343-0.207-0.523-0.291c-0.188-0.076-0.373-0.144-0.567-0.186c-0.197-0.037-0.381-0.071-0.574-0.068
		c-0.192,0-0.369,0.01-0.538,0.041c-0.171,0.037-0.325,0.082-0.458,0.133c-0.132,0.048-0.253,0.13-0.343,0.184
		c-0.092,0.053-0.163,0.118-0.208,0.153c-0.047,0.038-0.071,0.063-0.071,0.063s0.018,0.029,0.053,0.085
		c0.034,0.048,0.081,0.133,0.14,0.21c0.054,0.079,0.12,0.176,0.195,0.287c0.071,0.108,0.148,0.218,0.228,0.325
		c0.081,0.109,0.164,0.23,0.252,0.335c0.088,0.106,0.18,0.226,0.28,0.322c0.196,0.209,0.419,0.398,0.667,0.564
		c0.122,0.089,0.254,0.158,0.388,0.233c0.133,0.074,0.275,0.134,0.418,0.193c0.145,0.054,0.291,0.106,0.439,0.146
		c0.15,0.04,0.295,0.077,0.441,0.103c0.144,0.027,0.285,0.047,0.416,0.061c0.128,0.017,0.257,0.019,0.358,0.025
		c0.067,0.006,0.122,0.004,0.173,0.004c-0.009,0.235-0.007,0.539,0.005,0.88h-8.551v1.564h8.682c0.035,0.27,0.077,0.538,0.126,0.801
		h-8.157c0,0,1.042,9.832,4.328,9.832c3.287,0,4.417,0,8.534,0s4.772-9.832,4.772-9.832h-9.105
		c-0.039-0.252-0.063-0.521-0.081-0.801H29.603z M18.839,10.23c0-0.8,0.65-1.451,1.451-1.451c0.799,0,1.451,0.651,1.451,1.451
		s-0.651,1.451-1.451,1.451C19.489,11.682,18.839,11.03,18.839,10.23z M18.906,20.505c-0.206-0.271-0.497-0.621-0.823-0.939
		c-0.162-0.16-0.334-0.309-0.502-0.441c-0.087-0.063-0.171-0.122-0.249-0.18c-0.085-0.051-0.163-0.1-0.236-0.145
		c-0.077-0.038-0.146-0.073-0.209-0.104c-0.061-0.034-0.12-0.049-0.167-0.068c-0.094-0.034-0.148-0.054-0.148-0.054
		s0.055,0.016,0.152,0.042c0.048,0.016,0.11,0.026,0.173,0.056c0.065,0.026,0.14,0.056,0.22,0.088
		c0.078,0.04,0.162,0.083,0.25,0.128c0.085,0.053,0.176,0.105,0.27,0.163c0.18,0.121,0.367,0.258,0.546,0.407
		c0.336,0.281,0.638,0.589,0.867,0.842c-0.01,0.122-0.019,0.244-0.024,0.364C18.988,20.613,18.952,20.563,18.906,20.505z"/>
</g>
</svg>
