<?xml version="1.0" encoding="iso-8859-1"?>
<!-- Generator: Adobe Illustrator 17.1.0, SVG Export Plug-In . SVG Version: 6.00 Build 0)  -->
<!DOCTYPE svg PUBLIC "-//W3C//DTD SVG 1.1//EN" "http://www.w3.org/Graphics/SVG/1.1/DTD/svg11.dtd">
<svg version="1.1" id="Layer_1" xmlns="http://www.w3.org/2000/svg" xmlns:xlink="http://www.w3.org/1999/xlink" x="0px" y="0px"
	 viewBox="0 0 64 64" style="enable-background:new 0 0 64 64;" xml:space="preserve">
<g>
	<path d="M14,28.066v0.695c1.361,0.505,3.4,0.989,6.25,0.989c1.982,0,3.575-0.307,4.75-0.656v-0.795
		c-1.227,0.327-2.934,0.576-5.312,0.576C17.147,28.875,15.31,28.516,14,28.066z"/>
	<path d="M61.88,34.099c-0.379,0.107-0.853,0.215-1.487,0.358c-0.593,0.134-1.336,0.302-2.276,0.529
		c-0.542,0.131-1.262,0.311-2.117,0.531V36c-0.012,0.237,0.026,0.852,0.335,1.177c0.151,0.159,0.358,0.236,0.636,0.236
		c0.147,0,0.313-0.021,0.494-0.065c0.791-0.192,1.445-0.326,1.998-0.438c1.177-0.239,1.825-0.372,2.308-0.758
		c0.548-0.438,0.258-1.382,0.255-1.391L61.88,34.099z"/>
	<path d="M28.423,50.836c-0.021,0.578-0.007,0.954-0.007,0.97l0.009,0.171l-0.097,0.14c-0.067,0.098-1.724,2.383-8.161,2.383
		c-6.415,0-8.951-3.057-9.057-3.187l-0.012-0.015c-0.345,0.463-0.639,1.189-0.661,2.336c-0.009,0.45,0.171,0.762,0.547,1.146
		C12.719,56.545,17.879,57,19.562,57h0.233c5.723,0,9.149-1.315,9.911-3.981c0.126-0.442,0.08-0.793-0.141-1.17
		C29.324,51.435,28.891,51.102,28.423,50.836z"/>
	<path d="M62.736,29.614c-0.076-0.663-0.175-1.471-1.058-2.017c-0.002,0.011-0.003,0.024-0.006,0.035
		c-0.565,2.393-11.489,4.512-28.931,7.154c-1.692,0.257-3.036,0.461-3.844,0.6c-0.663,0.113-1.272,0.17-1.825,0.17
		c-0.998,0-1.813-0.186-2.441-0.556c-0.204-0.12-0.39-0.259-0.554-0.419c-0.191-0.185-0.328-0.383-0.443-0.581
		c-0.489-0.845-0.386-1.713-0.38-1.757c0.039-0.273,0.286-0.46,0.565-0.425c0.271,0.039,0.462,0.29,0.425,0.562
		c-0.004,0.036-0.103,0.881,0.538,1.494c0.049,0.047,0.108,0.085,0.163,0.127c0.018,0.014,0.035,0.028,0.053,0.042
		c0.266,0.187,0.602,0.323,1,0.407c0.716,0.151,1.631,0.14,2.728-0.049c0.812-0.139,2.163-0.344,3.864-0.602
		c6.822-1.034,27.583-4.18,28.106-6.396c0.006-0.025-0.043-0.12-0.233-0.254c-0.001-0.001-0.001-0.002-0.002-0.002
		c-0.508-0.106-1.13-0.169-1.904-0.169c-0.755,0-1.622,0.062-2.577,0.186c-7.613,0.982-25.983,3.035-26.42,3.083
		c0.001,0,0.001,0,0.001,0c0.021,0-0.239,0.07-0.571,0.07c-0.789,0-1.373-0.384-1.652-1.057c-0.319,0.161-0.776,0.361-1.339,0.562
		c-0.3,0.107-0.632,0.213-1,0.314c-1.221,0.337-2.802,0.614-4.75,0.614c-2.753,0-4.801-0.426-6.25-0.918
		c-0.378-0.128-0.702-0.259-1-0.39c-0.396-0.174-0.737-0.345-1-0.497v20.574v0.54v0.521v0.226c0.527,0.535,2.974,2.694,8.167,2.694
		c5.018,0,6.827-1.437,7.243-1.849c-0.006-0.248-0.008-0.695,0.025-1.27c0.009-0.159,0.023-0.333,0.038-0.51
		c0.014-0.165,0.033-0.34,0.053-0.519c0.188-1.656,0.675-3.818,1.878-5.553c-3.005,1.741-3.344,3.261-3.348,3.282
		c-0.045,0.24-0.256,0.413-0.493,0.413c-0.027,0-0.054-0.002-0.081-0.007c-0.269-0.044-0.453-0.291-0.414-0.561
		c0.021-0.146,0.626-3.56,9.041-6.182c5.219-1.797,15.253-4.546,20.892-6.005c0.353-0.091,0.683-0.176,1-0.257
		c0.743-0.189,1.384-0.35,1.883-0.47c0.946-0.229,1.693-0.397,2.291-0.532c0.697-0.157,1.161-0.264,1.492-0.36
		c0.106-0.031,0.198-0.06,0.279-0.09c0.291-0.106,0.44-0.212,0.572-0.376c0.018-0.023,0.036-0.05,0.054-0.074
		c0.312-0.42,0.561-1.057,0.24-2.471C62.778,29.971,62.758,29.802,62.736,29.614z"/>
	<path d="M29.012,21.632c1.835-0.306,21.374-5.131,21.571-5.18c0.477-0.072,1.766-0.406,2.056-1.095
		c0.154-0.368,0.017-0.852-0.41-1.438c-1.273-1.751-2.396-1.954-3.13-1.954c-0.448,0-0.879,0.083-1.295,0.163l-0.272,0.051
		c-1.347,0.245-19.729,4.638-19.915,4.682L27,17.009v-0.634v-0.598c-1.516,0.493-3.543,0.88-6.184,0.88
		c-0.431,0-0.876-0.01-1.34-0.032c-3.868-0.181-6.138-1.009-7.477-1.852v11.04c0.14,0.143,0.455,0.419,1,0.723
		c0.273,0.152,0.6,0.311,1,0.465c1.205,0.464,3.024,0.875,5.688,0.875c2.492,0,4.18-0.285,5.312-0.621c0.4-0.119,0.73-0.243,1-0.364
		c0.554-0.249,0.862-0.481,1-0.606v-3.217c-0.029-0.145-0.02-0.326,0.074-0.51C27.303,22.108,27.919,21.814,29.012,21.632z"/>
	<path d="M27.001,14.707c-0.003-0.148-0.067-0.609-0.768-1.135c-0.809-0.608-2.59-1.38-6.48-1.607
		c-5.958-0.349-7.394,1.159-7.692,1.637c1.045,0.82,3.178,1.824,7.464,2.024C22.898,15.783,25.331,15.298,27.001,14.707z"/>
</g>
</svg>
