<?xml version="1.0" encoding="iso-8859-1"?>
<!-- Generator: Adobe Illustrator 16.0.4, SVG Export Plug-In . SVG Version: 6.00 Build 0)  -->
<!DOCTYPE svg PUBLIC "-//W3C//DTD SVG 1.1//EN" "http://www.w3.org/Graphics/SVG/1.1/DTD/svg11.dtd">
<svg version="1.1" id="Capa_1" xmlns="http://www.w3.org/2000/svg" xmlns:xlink="http://www.w3.org/1999/xlink" x="0px" y="0px"
	 width="17.811px" height="21.409px" viewBox="0 0 17.811 21.409" style="enable-background:new 0 0 17.811 21.409;"
	 xml:space="preserve">
<g>
	<path style="fill-rule:evenodd;clip-rule:evenodd;fill:#231F20;" d="M1.513,4.396h0.06h1.649V3.374C3.223,1.518,5.127,0,7.454,0
		h2.821c2.327,0,4.231,1.518,4.231,3.374v1.022h1.73h0.069l1.504,2.368h-1.574v14.646H1.573V6.763H0L1.513,4.396L1.513,4.396z
		 M4.391,4.396h8.948V4.055c0-1.39-1.51-2.527-3.355-2.527H7.746c-1.845,0-3.355,1.138-3.355,2.527V4.396L4.391,4.396z M3.179,5.85
		v14.105h11.452V5.85H3.179z"/>
	<rect x="4.878" y="8.054" style="fill-rule:evenodd;clip-rule:evenodd;fill:#231F20;" width="1.62" height="9.665"/>
	<rect x="8.106" y="8.054" style="fill-rule:evenodd;clip-rule:evenodd;fill:#231F20;" width="1.62" height="9.665"/>
	<rect x="11.741" y="8.054" style="fill-rule:evenodd;clip-rule:evenodd;fill:#231F20;" width="1.62" height="9.665"/>
</g>
<g>
</g>
<g>
</g>
<g>
</g>
<g>
</g>
<g>
</g>
<g>
</g>
<g>
</g>
<g>
</g>
<g>
</g>
<g>
</g>
<g>
</g>
<g>
</g>
<g>
</g>
<g>
</g>
<g>
</g>
</svg>
