<?xml version="1.0" encoding="utf-8"?>
<!-- Generator: Adobe Illustrator 16.0.4, SVG Export Plug-In . SVG Version: 6.00 Build 0)  -->
<!DOCTYPE svg PUBLIC "-//W3C//DTD SVG 1.1//EN" "http://www.w3.org/Graphics/SVG/1.1/DTD/svg11.dtd">
<svg version="1.1" id="Capa_1" xmlns="http://www.w3.org/2000/svg" xmlns:xlink="http://www.w3.org/1999/xlink" x="0px" y="0px"
	 width="24.715px" height="23.305px" viewBox="0 0 24.715 23.305" enable-background="new 0 0 24.715 23.305" xml:space="preserve">
<g>
	<path d="M10.738,12.711c0.895-0.606,2.186-1.679,3.726-3.092c-0.278-0.168-0.573-0.382-0.851-0.655
		c-0.305-0.287-0.551-0.591-0.734-0.882c-1.335,1.584-2.337,2.91-2.91,3.83c-0.185,0-1.791,0.029-2.91,1.196
		c-1.187,1.242-1.12,4.252-1.12,4.252s0.761-1.18,2.184-1.514C9.772,15.465,10.517,14.422,10.738,12.711z"/>
	<polygon points="9.089,20.215 9.202,20.32 13.309,18.186 11.124,16.086 	"/>
	<path d="M20.203,6.615l-1.26,1.314V5.207c0.251-0.254,0.408-0.413,0.408-0.413s3.897-3.938,2.801-4.691
		c-1.098-0.751-4.685,2.892-4.685,2.892s-0.617,0.664-1.411,1.528H0v18.781h18.943v-10.99l3.447-3.597L20.203,6.615z M17.383,21.741
		c-1.355,0-14.465,0-15.822,0c0-1.354,0-14.303,0-15.658c1.026,0,8.771,0,13.073,0c-0.589,0.651-1.146,1.276-1.524,1.723
		c0.184,0.298,0.438,0.609,0.746,0.907c0.285,0.271,0.584,0.498,0.867,0.663c0.657-0.613,1.719-1.662,2.66-2.602
		c0,0.641,0,1.623,0,2.784l-5.812,6.064l2.187,2.101l3.625-3.781C17.383,17.508,17.383,21.066,17.383,21.741z"/>
	<path d="M24.593,5.69L23.13,4.293c-0.196-0.193-0.582-0.125-0.842,0.151l-1.651,1.718l2.189,2.103l1.648-1.724
		C24.742,6.266,24.792,5.879,24.593,5.69z"/>
</g>
</svg>
