<?xml version="1.0" encoding="UTF-8" standalone="no"?>
<!-- Generator: Adobe Illustrator 16.0.4, SVG Export Plug-In . SVG Version: 6.00 Build 0)  -->

<svg
   xmlns:dc="http://purl.org/dc/elements/1.1/"
   xmlns:cc="http://creativecommons.org/ns#"
   xmlns:rdf="http://www.w3.org/1999/02/22-rdf-syntax-ns#"
   xmlns:svg="http://www.w3.org/2000/svg"
   xmlns="http://www.w3.org/2000/svg"
   xmlns:sodipodi="http://sodipodi.sourceforge.net/DTD/sodipodi-0.dtd"
   xmlns:inkscape="http://www.inkscape.org/namespaces/inkscape"
   version="1.1"
   id="Capa_1"
   x="0px"
   y="0px"
   width="64px"
   height="64px"
   viewBox="0 0 64 64"
   style="enable-background:new 0 0 64 64;"
   xml:space="preserve"
   inkscape:version="0.48.5 r10040"
   sodipodi:docname="join.svg"><metadata
     id="metadata44"><rdf:RDF><cc:Work
         rdf:about=""><dc:format>image/svg+xml</dc:format><dc:type
           rdf:resource="http://purl.org/dc/dcmitype/StillImage" /></cc:Work></rdf:RDF></metadata><defs
     id="defs42" /><sodipodi:namedview
     pagecolor="#ffffff"
     bordercolor="#666666"
     borderopacity="1"
     objecttolerance="10"
     gridtolerance="10"
     guidetolerance="10"
     inkscape:pageopacity="0"
     inkscape:pageshadow="2"
     inkscape:window-width="1175"
     inkscape:window-height="695"
     id="namedview40"
     showgrid="false"
     inkscape:zoom="3.6875"
     inkscape:cx="19.895243"
     inkscape:cy="35.263355"
     inkscape:window-x="0"
     inkscape:window-y="0"
     inkscape:window-maximized="0"
     inkscape:current-layer="Capa_1" /><g
     id="g3"><g
       id="Menu"><g
         id="g6" /></g></g><g
     id="g10" /><g
     id="g12" /><g
     id="g14" /><g
     id="g16" /><g
     id="g18" /><g
     id="g20" /><g
     id="g22" /><g
     id="g24" /><g
     id="g26" /><g
     id="g28" /><g
     id="g30" /><g
     id="g32" /><g
     id="g34" /><g
     id="g36" /><g
     id="g38" /><path
     id="path5"
     style="fill:#000000;fill-opacity:1"
     d="m 40.123266,16.010384 c 0,0 0,18.200295 0,18.200295 0,2.135413 -1.649034,3.745187 -3.836528,3.745187 l -18.610528,0 c -2.187494,0 -3.93749,-1.642626 -3.93749,-3.745187 0,-2.069709 1.918265,-3.712335 3.971144,-3.712335 l 9.086514,0 c 0,0 -12.519197,-12.188284 -12.519197,-12.221136 -0.774037,-0.755608 -1.177881,-1.774036 -1.144228,-2.825317 0.06731,-2.496791 2.725954,-4.467942 5.216333,-3.745187 0.639421,0.164263 1.211535,0.525641 1.682688,0.952723 l 12.519197,12.221137 c 0,0 0,-8.87018 0,-8.87018 0,-2.004003 1.682687,-3.876597 3.802874,-3.876597 2.120187,0 3.769221,1.741184 3.769221,3.876597 z m 13.999962,27.957493 c 0,4.082389 -3.390142,7.391817 -7.572095,7.391817 -4.181953,0 -7.572096,-3.309428 -7.572096,-7.391817 0,-4.082388 3.390143,-7.391817 7.572096,-7.391817 4.181953,0 7.572095,3.309429 7.572095,7.391817 z M 32,0 C 14.327,0 0,14.327 0,32 0,49.673 14.327,64 32,64 49.673,64 64,49.673 64,32 64,14.327 49.673,0 32,0 z" /></svg>