<?xml version="1.0" encoding="utf-8"?>
<!-- Generator: Adobe Illustrator 16.0.0, SVG Export Plug-In . SVG Version: 6.00 Build 0)  -->
<!DOCTYPE svg PUBLIC "-//W3C//DTD SVG 1.1//EN" "http://www.w3.org/Graphics/SVG/1.1/DTD/svg11.dtd">
<svg version="1.1" id="Layer_1" xmlns="http://www.w3.org/2000/svg" xmlns:xlink="http://www.w3.org/1999/xlink" x="0px" y="0px"
	 width="126px" height="126px" viewBox="0 0 126 126" enable-background="new 0 0 126 126" xml:space="preserve">
<g>
	<path d="M99.98,36.443c-0.006-0.468-0.156-0.93-0.477-1.295L79.838,12.684c-0.006-0.006-0.012-0.008-0.016-0.014
		c-0.117-0.131-0.254-0.239-0.398-0.334c-0.043-0.028-0.086-0.053-0.131-0.078c-0.125-0.068-0.256-0.124-0.395-0.165
		c-0.037-0.011-0.07-0.026-0.107-0.036C78.643,12.021,78.488,12,78.332,12H30c-2.205,0-4,1.795-4,4v94c0,2.206,1.795,4,4,4h66
		c2.205,0,4-1.794,4-4V36.667C100,36.592,99.988,36.518,99.98,36.443z M45.939,99.65c0,6.911-3.313,9.322-8.639,9.322
		c-1.26,0-2.916-0.215-3.996-0.576l0.613-4.427c0.756,0.252,1.727,0.433,2.807,0.433c2.305,0,3.744-1.045,3.744-4.824V84.316h5.471
		V99.65z M65.703,97.455c-1.873,1.764-4.645,2.555-7.883,2.555c-0.721,0-1.369-0.035-1.873-0.107v8.675h-5.436V84.641
		c1.693-0.289,4.068-0.504,7.416-0.504c3.383,0,5.795,0.647,7.416,1.943c1.547,1.224,2.59,3.239,2.59,5.615
		C67.934,94.07,67.143,96.087,65.703,97.455z M91.693,107.461c-1.691,0.576-4.895,1.368-8.1,1.368c-4.426,0-7.631-1.116-9.861-3.275
		c-2.232-2.088-3.457-5.255-3.42-8.819c0.035-8.063,5.902-12.67,13.857-12.67c3.133,0,5.545,0.611,6.732,1.188l-1.152,4.392
		c-1.332-0.576-2.988-1.044-5.652-1.044c-4.57,0-8.025,2.592-8.025,7.848c0,5.003,3.131,7.955,7.631,7.955
		c1.26,0,2.268-0.145,2.699-0.361v-5.074h-3.744v-4.283h9.035V107.461z M30,79.917V16h46.332v20.466c0,1.104,0.896,2,2,2H96v41.451
		H30z"/>
	<path d="M58.215,88.275c-1.115,0-1.871,0.108-2.268,0.217v7.162c0.469,0.108,1.045,0.145,1.836,0.145
		c2.916,0,4.717-1.477,4.717-3.959C62.5,89.607,60.951,88.275,58.215,88.275z"/>
	<g>
		<path d="M57.563,57.083C49.575,49.093,41.829,80,41.829,80h26.622C68.451,80,65.554,65.078,57.563,57.083z"/>
		<path d="M76.939,65.329C71.277,66.777,68.451,80,68.451,80h19.092C84.951,73.375,81.776,64.092,76.939,65.329z"/>
	</g>
	<path d="M41.831,49.961c2.736,0,4.953-2.216,4.953-4.953s-2.217-4.951-4.953-4.951c-2.74,0-4.957,2.214-4.957,4.951
		S39.091,49.961,41.831,49.961z"/>
	<path d="M71.869,53.145c1,0,1.935-0.103,2.768-0.271c0.969,0.416,2.146,0.665,3.428,0.665c3.272,0,5.928-1.602,5.928-3.576
		c0-1.976-2.655-3.577-5.928-3.577c-1.231,0-2.369,0.225-3.319,0.611c-0.386-0.374-0.91-0.611-1.489-0.611h-0.859
		c-1.099,0-1.97,0.833-2.095,1.898c-2.659,0.276-4.625,1.235-4.625,2.384C65.677,52.037,68.448,53.145,71.869,53.145z"/>
</g>
</svg>
