<?xml version="1.0" encoding="iso-8859-1"?>
<!-- Generator: Adobe Illustrator 17.1.0, SVG Export Plug-In . SVG Version: 6.00 Build 0)  -->
<!DOCTYPE svg PUBLIC "-//W3C//DTD SVG 1.1//EN" "http://www.w3.org/Graphics/SVG/1.1/DTD/svg11.dtd">
<svg version="1.1" id="Layer_1" xmlns="http://www.w3.org/2000/svg" xmlns:xlink="http://www.w3.org/1999/xlink" x="0px" y="0px"
	 viewBox="0 0 64 64" style="enable-background:new 0 0 64 64;" xml:space="preserve">
<g>
	<path d="M3,56h14V37H3V56z M13.188,45.375c0.656,0,1.188,0.532,1.188,1.188c0,0.656-0.532,1.188-1.188,1.188S12,47.218,12,46.562
		C12,45.907,12.532,45.375,13.188,45.375z"/>
	<path d="M20,62v-3v-3V34h-4h-2h-1H0v22v3v3h3v-3h14v3H20z M3,57H2v-1V36h16v20v1h-1H3z"/>
	<path d="M24,56h14V37H24V56z M35.188,45.375c0.656,0,1.188,0.532,1.188,1.188c0,0.656-0.532,1.188-1.188,1.188S34,47.218,34,46.562
		C34,45.907,34.532,45.375,35.188,45.375z"/>
	<path d="M41,62v-3v-3V34H29h-3h-2h-3v22v3v3h3v-3h14v3H41z M24,57h-1v-1V36h16v20v1h-1H24z"/>
	<rect x="45" y="45" width="16" height="11"/>
	<path d="M60,33h-5c-0.552,0-1,0.448-1,1h-2c0-0.552-0.448-1-1-1h-5c-0.552,0-1,0.448-1,1h-3v22v3v3h3v-3h16v3h3v-3v-3V34h-3
		C61,33.448,60.552,33,60,33z M57.375,37.562c0,0.656-0.532,1.188-1.188,1.188S55,38.218,55,37.562c0-0.656,0.532-1.188,1.188-1.188
		S57.375,36.907,57.375,37.562z M60,41c0.276,0,0.5,0.224,0.5,0.5S60.276,42,60,42H46c-0.276,0-0.5-0.224-0.5-0.5S45.724,41,46,41
		H60z M52.375,37.562c0,0.656-0.532,1.188-1.188,1.188S50,38.218,50,37.562c0-0.656,0.532-1.188,1.188-1.188
		S52.375,36.907,52.375,37.562z M46.188,36.375c0.656,0,1.188,0.532,1.188,1.188c0,0.656-0.532,1.188-1.188,1.188
		S45,38.218,45,37.562C45,36.907,45.532,36.375,46.188,36.375z M62,57h-1H45h-1v-1V44h18v12V57z M61.188,36.375
		c0.656,0,1.188,0.532,1.188,1.188c0,0.656-0.532,1.188-1.188,1.188S60,38.218,60,37.562C60,36.907,60.532,36.375,61.188,36.375z"/>
	<path d="M57,13V0h-9v13h-3l-4,7h23l-4-7H57z M57.188,17.75c-0.656,0-1.188-0.532-1.188-1.188c0-0.656,0.532-1.188,1.188-1.188
		s1.188,0.532,1.188,1.188C58.375,17.218,57.843,17.75,57.188,17.75z"/>
	<path d="M26,30h4c0.552,0,1-0.448,1-1c0-0.552-0.448-1-1-1h-5c-0.552,0-1,0.448-1,1v4h2V30z"/>
	<path d="M16,33v-4c0-0.552-0.448-1-1-1h-5c-0.552,0-1,0.448-1,1c0,0.552,0.448,1,1,1h4v3H16z"/>
	<path d="M21,33v-6c0.552,0,1-0.448,1-1c0-0.552-0.448-1-1-1v-2c0-0.552-0.448-1-1-1s-1,0.448-1,1v2c-0.552,0-1,0.448-1,1
		c0,0.552,0.448,1,1,1v6H21z"/>
	<path d="M37,12H15.767C17.132,10.842,18,9.117,18,7.188c0-3.486-2.826-6.312-6.312-6.312S5.375,3.701,5.375,7.188
		c0,1.93,0.868,3.655,2.233,4.812H2v2h35V12z M7.5,7.188C7.5,4.878,9.378,3,11.688,3s4.188,1.878,4.188,4.188
		s-1.878,4.188-4.188,4.188S7.5,9.497,7.5,7.188z"/>
	<circle cx="11.688" cy="7.188" r="3.188"/>
	<path d="M21.5,11h14c0.276,0,0.5-0.224,0.5-0.5c0-0.276-0.224-0.5-0.5-0.5h-14c-0.276,0-0.5,0.224-0.5,0.5
		C21,10.776,21.224,11,21.5,11z"/>
	<path d="M22.5,9h12C34.776,9,35,8.776,35,8.5C35,8.224,34.776,8,34.5,8h-12C22.224,8,22,8.224,22,8.5C22,8.776,22.224,9,22.5,9z"/>
	<path d="M22.5,7h12C34.776,7,35,6.776,35,6.5C35,6.224,34.776,6,34.5,6h-12C22.224,6,22,6.224,22,6.5C22,6.776,22.224,7,22.5,7z"/>
	<path d="M25.148,5h6.204c0.947,0,1.546-1.342,1.546-2.31c0-0.672-0.288-1.69-0.78-1.69h-7.738c-0.492,0-0.78,1.019-0.78,1.69
		C23.602,3.658,24.201,5,25.148,5z"/>
</g>
</svg>
