<?xml version="1.0" encoding="utf-8"?>
<!-- Generator: Adobe Illustrator 17.0.0, SVG Export Plug-In . SVG Version: 6.00 Build 0)  -->
<!DOCTYPE svg PUBLIC "-//W3C//DTD SVG 1.1//EN" "http://www.w3.org/Graphics/SVG/1.1/DTD/svg11.dtd">
<svg version="1.1" id="Capa_1" xmlns="http://www.w3.org/2000/svg" xmlns:xlink="http://www.w3.org/1999/xlink" x="0px" y="0px"
	 width="64px" height="64px" viewBox="0 0 64 64" enable-background="new 0 0 64 64" xml:space="preserve">
<g>
	<path d="M22.096,2.291c-1.552,0-2.811,4.125-2.811,4.125c0,0.549,0.076,1.071,0.209,1.55c0.85-0.192,1.731-0.302,2.638-0.302
		c0.907,0,1.788,0.11,2.638,0.302c0.133-0.479,0.209-1.001,0.209-1.55c0,0-1.258-4.125-2.811-4.125H22.096z"/>
	<path d="M39.507,19.702v-0.073c0-1.552-4.125-2.811-4.125-2.811c-0.549,0-1.071,0.076-1.55,0.209
		c0.192,0.85,0.302,1.731,0.302,2.638s-0.11,1.788-0.302,2.638c0.479,0.133,1.001,0.209,1.55,0.209
		C35.382,22.513,39.507,21.255,39.507,19.702z"/>
	<path d="M19.494,31.366c-0.133,0.479-0.209,1.001-0.209,1.55c0,0,1.258,4.125,2.811,4.125h0.073c1.552,0,2.811-4.125,2.811-4.125
		c0-0.549-0.076-1.071-0.209-1.55c-0.85,0.192-1.731,0.302-2.638,0.302C21.225,31.667,20.344,31.557,19.494,31.366z"/>
	<path d="M10.448,32.526c1.147,1.046,4.856-1.153,4.856-1.153c0.371-0.407,0.667-0.845,0.892-1.29
		c-1.547-0.885-2.878-2.101-3.896-3.555c-0.422,0.265-0.831,0.6-1.203,1.006c0,0-1.851,3.895-0.704,4.941L10.448,32.526z"/>
	<path d="M10.448,6.806l-0.054,0.049c-1.147,1.046,0.704,4.941,0.704,4.941c0.371,0.407,0.78,0.742,1.203,1.006
		c1.018-1.454,2.349-2.67,3.896-3.555c-0.225-0.445-0.521-0.883-0.892-1.29C15.305,7.959,11.595,5.76,10.448,6.806z"/>
	<path d="M31.964,12.803c0.422-0.265,0.831-0.6,1.203-1.006c0,0,1.851-3.895,0.704-4.941l-0.054-0.049
		C32.669,5.76,28.96,7.959,28.96,7.959c-0.371,0.407-0.667,0.845-0.892,1.29C29.614,10.133,30.945,11.349,31.964,12.803z"/>
	<path d="M33.816,32.526l0.054-0.049c1.147-1.046-0.704-4.941-0.704-4.941c-0.371-0.407-0.78-0.742-1.203-1.006
		c-1.018,1.454-2.349,2.67-3.896,3.555c0.225,0.445,0.521,0.883,0.892,1.29C28.96,31.373,32.669,33.572,33.816,32.526z"/>
	<path d="M4.758,19.629v0.073c0,1.552,4.125,2.811,4.125,2.811c0.549,0,1.071-0.076,1.55-0.209c-0.192-0.85-0.302-1.731-0.302-2.638
		s0.11-1.788,0.302-2.638c-0.479-0.133-1.001-0.209-1.55-0.209C8.882,16.819,4.758,18.077,4.758,19.629z"/>
	<path d="M29.984,25.849c1.023-1.297,1.726-2.852,2.006-4.553c0.087-0.532,0.144-1.074,0.144-1.63c0-0.557-0.057-1.099-0.144-1.63
		c-0.28-1.701-0.983-3.256-2.006-4.553c-0.678-0.859-1.491-1.604-2.412-2.203c-1.132-0.736-2.423-1.243-3.809-1.471
		c-0.532-0.087-1.074-0.144-1.63-0.144c-0.557,0-1.099,0.057-1.63,0.144c-1.387,0.228-2.677,0.735-3.809,1.471
		c-0.92,0.598-1.734,1.343-2.412,2.203c-1.023,1.297-1.726,2.852-2.006,4.553c-0.087,0.532-0.144,1.074-0.144,1.63
		c0,0.557,0.057,1.099,0.144,1.63c0.28,1.701,0.983,3.256,2.006,4.553c0.678,0.86,1.491,1.605,2.412,2.203
		c1.132,0.736,2.423,1.243,3.809,1.471c0.532,0.087,1.074,0.144,1.63,0.144c0.557,0,1.099-0.057,1.63-0.144
		c1.387-0.228,2.677-0.735,3.809-1.471C28.492,27.454,29.306,26.709,29.984,25.849z"/>
	<path d="M50.378,41.263c-0.894-0.894-2.082-1.386-3.347-1.386c-1.026,0-2.004,0.325-2.813,0.926l-13.626,7.089l3.653,2.045
		l3.653,2.045l3.539,1.981l6.253,3.5l5.585,3.126l0.668,0.374h7.671l-10.896-19.36L50.378,41.263z"/>
	<path d="M51.896,60.963l-6.253-3.5l-6.253-3.5l-2.553-1.429l-3.653-2.045l-3.653-2.045l-12.479-6.985
		c-0.421-0.421-0.973-0.632-1.525-0.632c-0.552,0-1.104,0.211-1.525,0.632L2,61.461h50.786L51.896,60.963z"/>
</g>
</svg>
