<?xml version="1.0" encoding="utf-8"?>
<!-- Generator: Adobe Illustrator 16.0.0, SVG Export Plug-In . SVG Version: 6.00 Build 0)  -->
<!DOCTYPE svg PUBLIC "-//W3C//DTD SVG 1.1//EN" "http://www.w3.org/Graphics/SVG/1.1/DTD/svg11.dtd">
<svg version="1.1" id="Layer_1" xmlns="http://www.w3.org/2000/svg" xmlns:xlink="http://www.w3.org/1999/xlink" x="0px" y="0px"
	 width="96px" height="96px" viewBox="0 0 96 96" enable-background="new 0 0 96 96" xml:space="preserve">
<g>
	<path d="M48.121,24.261c-10.415,0-18.858,9.347-18.858,20.878c0,7.729,3.796,17.565,9.433,20.976l0.959,6.19h16.932l0.959-6.19
		c5.638-3.411,9.434-13.246,9.434-20.976C66.98,33.608,58.537,24.261,48.121,24.261z"/>
	<path d="M40.071,87.305c0,0.745,0.604,1.348,1.348,1.348h0.641c0,3.347,2.714,6.061,6.061,6.061c3.349,0,6.063-2.714,6.063-6.061
		h0.641c0.744,0,1.347-0.603,1.347-1.348V75.5h-16.1V87.305z"/>
	<path d="M21.85,46.342H8.917c-1.071,0-1.94,0.869-1.94,1.941c0,1.071,0.869,1.939,1.94,1.939H21.85c1.071,0,1.94-0.869,1.94-1.939
		C23.79,47.211,22.921,46.342,21.85,46.342z"/>
	<path d="M87.083,46.342H74.15c-1.071,0-1.94,0.869-1.94,1.941c0,1.071,0.869,1.939,1.94,1.939h12.934
		c1.071,0,1.94-0.869,1.94-1.939C89.023,47.211,88.155,46.342,87.083,46.342z"/>
	<path d="M48.121,18.101c1.072,0,1.941-0.868,1.941-1.94V3.226c0-1.071-0.869-1.939-1.941-1.939c-1.071,0-1.939,0.869-1.939,1.939
		V16.16C46.182,17.232,47.05,18.101,48.121,18.101z"/>
	<path d="M26.473,24.731l-10.405-7.683c-0.862-0.637-2.077-0.455-2.712,0.408c-0.637,0.862-0.454,2.077,0.408,2.713l10.403,7.683
		c0.348,0.256,0.752,0.379,1.152,0.379c0.594,0,1.182-0.272,1.562-0.788C27.518,26.582,27.334,25.368,26.473,24.731z"/>
	<path d="M82.097,17.457c-0.636-0.862-1.851-1.044-2.712-0.408l-10.405,7.683c-0.862,0.637-1.044,1.851-0.408,2.712
		c0.38,0.516,0.967,0.788,1.562,0.788c0.4,0,0.804-0.124,1.151-0.379l10.405-7.683C82.55,19.533,82.734,18.318,82.097,17.457z"/>
</g>
</svg>
