<?xml version="1.0" encoding="iso-8859-1"?>
<!-- Generator: Adobe Illustrator 16.0.0, SVG Export Plug-In . SVG Version: 6.00 Build 0)  -->
<!DOCTYPE svg PUBLIC "-//W3C//DTD SVG 1.1//EN" "http://www.w3.org/Graphics/SVG/1.1/DTD/svg11.dtd">
<svg version="1.1" id="Capa_1" xmlns="http://www.w3.org/2000/svg" xmlns:xlink="http://www.w3.org/1999/xlink" x="0px" y="0px"
	 width="23.145px" height="30.221px" viewBox="0 0 23.145 30.221" style="enable-background:new 0 0 23.145 30.221;"
	 xml:space="preserve">
<path style="fill:#000000;" d="M21.996,14.457h-1.529V9.361c0-2.541-0.965-4.871-2.555-6.572C16.326,1.09,14.064-0.006,11.572,0
	c-2.494-0.006-4.756,1.09-6.34,2.789C3.641,4.49,2.676,6.82,2.676,9.361v5.096H1.145C0.516,14.457,0,14.969,0,15.602v13.471
	c0,0.637,0.516,1.148,1.145,1.148h20.852c0.635,0,1.148-0.512,1.148-1.148V15.602C23.145,14.969,22.631,14.457,21.996,14.457z
	 M6.898,9.361c0-1.465,0.559-2.766,1.42-3.686c0.867-0.922,2-1.453,3.254-1.453c1.252,0,2.385,0.531,3.25,1.453
	c0.865,0.92,1.42,2.221,1.42,3.686v5.096H6.898V9.361z"/>
<g>
</g>
<g>
</g>
<g>
</g>
<g>
</g>
<g>
</g>
<g>
</g>
<g>
</g>
<g>
</g>
<g>
</g>
<g>
</g>
<g>
</g>
<g>
</g>
<g>
</g>
<g>
</g>
<g>
</g>
</svg>
