<?xml version="1.0" encoding="iso-8859-1"?>
<!-- Generator: Adobe Illustrator 16.0.0, SVG Export Plug-In . SVG Version: 6.00 Build 0)  -->
<!DOCTYPE svg PUBLIC "-//W3C//DTD SVG 1.1//EN" "http://www.w3.org/Graphics/SVG/1.1/DTD/svg11.dtd">
<svg version="1.1" id="Layer_1" xmlns="http://www.w3.org/2000/svg" xmlns:xlink="http://www.w3.org/1999/xlink" x="0px" y="0px"
	 width="46.938px" height="44.835px" viewBox="0 0 46.938 44.835" style="enable-background:new 0 0 46.938 44.835;"
	 xml:space="preserve">
<path d="M40.138,25.806c0.003-0.02,0.006-0.044,0.009-0.063c0.408-2.277-0.003-10.525-0.621-12.43
	c-0.663-2.046-1.534-4.339-3.423-5.796c-0.499-1.586-1.366-3.081-2.618-4.342c-4.186-4.213-10.997-4.235-15.212-0.051
	c-3.02,2.999-3.875,7.344-2.584,11.117l-1.789,1.777l1.364,1.374l-0.027,0.025l-2.899,0.124l0.337,2.421l-0.362,0.359l-3.011,0.105
	l0.34,2.546l-0.299,0.298l-2.696-0.207l0.229,2.658L6.374,26.22l-2.671,0.031l-0.471,3.091l-0.78,0.772l-2.076-0.822L0,32.551
	l0.747,0.752l0.564,0.567l15.263-15.159l0.761,0.767L2.072,34.638l2.282,2.297l15.263-15.158l0.891,0.896l1.789-1.776
	c3.011,1.052,6.384,0.711,9.165-0.991c0.274,0.693,0.557,1.392,0.843,2.09c0.212,0.518,0.407,0.992,0.574,1.411
	c0.145,0.362,0.282,0.814,0.429,1.295c0.125,0.407,0.256,0.831,0.401,1.246l-8.812,3.329l4.054,1.269l-3.061,9.778l14.417,4.512
	l3.061-9.779l3.571,1.117L40.138,25.806z M31.463,9.273c-0.479,0.477-1.084,0.739-1.706,0.813c0.007-0.707,0.137-1.282,0.437-1.659
	c0.655-0.823,1.352-1.25,2.114-1.34C32.343,7.876,32.068,8.675,31.463,9.273z M27.372,5.155c1.138-1.129,2.975-1.123,4.105,0.014
	c0.273,0.275,0.477,0.593,0.617,0.931c-0.989,0.141-1.883,0.7-2.683,1.704c-0.431,0.542-0.623,1.308-0.638,2.236
	c-0.519-0.118-1.014-0.373-1.417-0.779C26.229,8.123,26.235,6.285,27.372,5.155z M34.263,24.409
	c-0.156-0.51-0.303-0.988-0.457-1.374c-0.167-0.421-0.364-0.898-0.577-1.42c-0.274-0.67-0.59-1.442-0.916-2.267
	c0.388-0.292,0.764-0.608,1.119-0.961c2.491-2.475,3.505-5.863,3.065-9.094c1.012,1.248,1.601,2.854,2.078,4.327
	c0.486,1.5,0.852,7.869,0.694,10.86l-0.334-0.509l-4.292,1.621C34.504,25.195,34.378,24.787,34.263,24.409z M38.798,27.41
	c-0.071,0.179-0.154,0.344-0.271,0.466c-0.254,0.268-0.664,0.323-0.964,0.323c-0.674,0-1.468-0.284-1.89-0.676
	c-0.042-0.039-0.081-0.09-0.121-0.136l2.588-0.978L38.798,27.41z M42.055,32.55l-3.061,9.779l-10.6-3.316l3.061-9.78l-0.429-0.134
	l3.548-1.341c0.129,0.184,0.266,0.355,0.419,0.498c0.607,0.564,1.64,0.943,2.57,0.943c0.71,0,1.294-0.22,1.688-0.634
	c0.064-0.066,0.104-0.149,0.157-0.224l2.789,4.253L42.055,32.55z"/>
<g>
</g>
<g>
</g>
<g>
</g>
<g>
</g>
<g>
</g>
<g>
</g>
<g>
</g>
<g>
</g>
<g>
</g>
<g>
</g>
<g>
</g>
<g>
</g>
<g>
</g>
<g>
</g>
<g>
</g>
</svg>
