<?xml version="1.0" encoding="utf-8"?>
<!-- Generator: Adobe Illustrator 16.0.4, SVG Export Plug-In . SVG Version: 6.00 Build 0)  -->
<!DOCTYPE svg PUBLIC "-//W3C//DTD SVG 1.1//EN" "http://www.w3.org/Graphics/SVG/1.1/DTD/svg11.dtd">
<svg version="1.1" id="Layer_1" xmlns="http://www.w3.org/2000/svg" xmlns:xlink="http://www.w3.org/1999/xlink" x="0px" y="0px"
	 width="26px" height="26px" viewBox="0 0 26 26" enable-background="new 0 0 26 26" xml:space="preserve">
<path d="M14.08,8.774l2.241,2.242L4.132,23.199l-2.241-2.242L14.08,8.774z M18.443,8.245L16.85,6.651
	c-0.498-0.498-0.728,0.078-1.225,0.575c-0.496,0.496-1.072,0.726-0.574,1.224l1.594,1.594c0.498,0.498,0.727-0.08,1.224-0.576
	C18.363,8.971,18.941,8.742,18.443,8.245z M19.904,10.298l-0.688,0.914l-1.143,0.051l0.916,0.689l0.05,1.135l0.685-0.908
	l1.145-0.051l-0.914-0.687L19.904,10.298z M24.105,6.546l-2.061,0.091l-1.232,1.636l-0.088-2.045l-1.648-1.24l2.057-0.09
	l1.236-1.646l0.092,2.057L24.105,6.546z M23.316,6.302l-1.129-0.849l-0.062-1.41l-0.85,1.128l-1.408,0.062l1.131,0.851l0.062,1.398
	l0.84-1.119L23.316,6.302z M16.289,5.763l0.727-0.966l1.217-0.053l-0.971-0.73L17.207,2.8l-0.73,0.971l-1.213,0.053l0.973,0.733
	L16.289,5.763z"/>
</svg>
