<?xml version="1.0" encoding="utf-8"?>
<!-- Generator: Adobe Illustrator 16.0.4, SVG Export Plug-In . SVG Version: 6.00 Build 0)  -->
<!DOCTYPE svg PUBLIC "-//W3C//DTD SVG 1.1//EN" "http://www.w3.org/Graphics/SVG/1.1/DTD/svg11.dtd">
<svg version="1.1" id="Layer_1" xmlns="http://www.w3.org/2000/svg" xmlns:xlink="http://www.w3.org/1999/xlink" x="0px" y="0px"
	 width="26px" height="26px" viewBox="0 0 26 26" enable-background="new 0 0 26 26" xml:space="preserve">
<g>
	<g>
		<path fill="#333333" d="M13.065,2.203l6.147,2.635C19.464,4.946,19.732,5,20,5c0.307,0,0.613-0.07,0.895-0.211L24,3.236v18.528
			l-4.064,2.032l-6.146-2.635C13.536,21.055,13.268,21,13,21c-0.307,0-0.613,0.07-0.895,0.211l-5.17,2.586L2,21.682V3.033
			l4.212,1.805C6.464,4.946,6.732,5,7,5c0.307,0,0.613-0.07,0.895-0.211L13.065,2.203 M26,0l-6,3l-7-3L7,3L0,0v23l7,3l6-3l7,3l6-3V0
			L26,0z"/>
	</g>
</g>
<path fill="#333333" d="M8.987,5.884c0.101,0.06,0.163,0.181,0.165,0.388c0.009,0.709-0.161,1.392-0.197,2.09
	C8.94,8.66,9.066,8.875,9.191,9.145c0.188,0.404-0.059,0.668-0.017,1.072c0.011,0.102,0.101,0.143,0.102,0.252
	c0.012,0.601-0.859,1.896-1.639,1.736c-0.466-0.096-0.022-0.871-0.25-1.207c-0.086-0.124-0.698-0.313-0.883-0.309
	c-0.613,0.018-0.21,0.685-0.09,0.939c0.243,0.514,0.33,1.061,0.671,1.568c-0.183-0.162-0.395-0.295-0.649-0.399
	c-0.347-0.143-0.651,0.007-0.951-0.129c-0.445-0.201-0.479-0.687-0.71-1.04c-0.22-0.335-0.828-0.344-1.116-0.717
	c-0.282-0.365-0.213-0.817-0.08-1.216C3.737,9.223,3.95,8.882,4.282,8.472C4.514,8.19,4.84,7.771,4.418,7.507
	c-0.391-0.246-0.8-0.118-1.15,0.072c-0.371,0.202-0.55,0.21-0.655-0.229C2.508,6.912,3.098,6.601,3.396,6.338
	C4.48,5.383,6.095,5.853,7.001,6.752C7.054,6.804,8.492,5.594,8.987,5.884z"/>
<path fill="#333333" d="M5.222,15.837c0.088,0.496,0.663,0.192,0.818,0.576c0.124,0.305-0.22,0.715-0.234,1.001
	c0.825,0.186,1.296,0.861,1.292,1.691c-0.006,1.192,0.392,2.428,1.335,3.121c0.063-0.24,0.135-0.494,0.167-0.754
	c0.122-1.013-0.081-1.904,0.693-2.732c0.334-0.357,0.267-0.498,0.241-0.947c-0.013-0.229,0.033-0.773,0.218-0.896
	c0.233,0.11,0.703,0.172,0.91-0.011c0.137-0.122,0.295-0.813,0.324-1c0.091-0.583-0.116-1.049-0.456-1.493
	c-0.28-0.365-0.714-0.676-1.166-0.77c-0.446-0.092-0.929-0.031-1.35-0.235c-0.197-0.096-0.365-0.229-0.568-0.32
	c-0.242-0.107-0.718-0.188-0.9-0.379c0.268,0.28,0.461,0.692,0.453,1.084c-0.008,0.408-0.249,0.461-0.561,0.652
	C5.998,14.695,5.11,15.202,5.222,15.837z"/>
<path fill="#333333" d="M11.313,4.642c-1.102-0.27-1.902,0.648-1.574,1.714C10.277,8.104,11.394,5.356,11.313,4.642z"/>
<path fill="#333333" d="M10.887,9.29c0.025,0.466,0.172,0.918,0.614,1.02c0.286,0.065,0.609-0.058,0.783-0.364
	c0.246-0.434-0.427-1.587,0.331-1.531c0.545,0.04,0.567,0.883,0.736,1.248c0.046,0.023,0.092,0.023,0.138,0
	c0.125-0.354,0.055-0.76,0.087-1.121c0.641-0.174,0.992,0.773,1.141,1.241c0.123,0.391,0.373,0.521-0.271,0.673
	c-0.348,0.082-0.6,0.004-0.834-0.277c-0.389,0.264-0.599,0.556-1.023,0.774c-1.193,0.615-1.51,2.42-0.878,3.645
	c0.433,0.84,1.435,0.075,1.956-0.181c-0.023,0.472,0.395,0.944,0.539,1.386c0.42,1.273,0.117,2.489,0.109,3.797
	c-0.002,0.264,0.063,1.268,0.399,1.328c0.386,0.069,0.72-1.119,0.804-1.396c0.352-1.142,0.356-2.32,0.99-3.378
	c0.245-0.411,0.689-0.754,0.485-1.271c-0.205-0.52-1.241-0.621-1.13-1.297c-0.03,0.191,1.031,1.173,1.271,1.198
	c1.12,0.118,0.063-1.374,0.399-1.75c0.543-0.604,0.938,0.892,0.969,1.175c0.085,0.773-0.077,1.541-0.089,2.312
	c-0.005,0.324-0.094,1.654,0.513,1.463c0.472-0.149,0.24-1.18,0.304-1.541c0.059-0.334,0.412-1.604,0.699-1.756
	c0.629-0.332,0.967,1.086,1.74,1.057c0.184-0.656,0.02-0.971,0.521-1.447c0.369-0.352,0.936-0.578,1.154-1.103
	c0.17-0.406,0.227-1.23,0.108-1.651c-0.224-0.802-0.986-0.48-1.699-0.665c-0.032-0.411,0.396-0.609,0.412-1.036
	c0.01-0.213-0.328-0.215-0.293-0.484c0.022-0.168,0.274-0.439,0.383-0.579c0.378-0.496,0.91-0.801,1.458-0.266
	c0.073-0.357-0.004-0.774-0.426-0.771c-0.03-0.442-0.325-1.474-0.796-1.706c-0.441-0.219-0.461,0.094-0.82,0.441
	c-0.396,0.383-0.889,0.631-1.223,1.004c-0.31,0.346-0.945,1.184-1.38,0.853c-0.232-0.179-0.18-0.817-0.354-1.079
	c-0.23-0.35-0.379-0.413-0.808-0.478c0.046-0.078,0.056-0.272,0.112-0.362c-0.131,0.046-0.363,0.002-0.494,0.047
	c-0.021-0.546,0.815-0.567,1.007-0.941c-0.365-0.03-0.702-0.04-1.021,0.167c-0.257,0.167-0.316,0.555-0.558,0.672
	c-0.613,0.299-2.082-0.718-2.756-0.865c-0.974-0.214-1.493,0.196-1.88,1.096c-0.257-0.05-0.562-0.134-0.764,0.073
	c0.153,0.201,0.38,0.297,0.637,0.332c0.02,0.093,0.022,0.204,0,0.297c-0.214,0.047-0.759,0.398-0.89,0.521
	c-0.283,0.267-0.325,0.374-0.381,0.771C10.895,8.789,10.874,9.041,10.887,9.29z"/>
<path fill="#333333" d="M20.398,20.042c-0.088-1.174,0.762-2.543,1.863-2.921c-0.162,0.24-0.509,0.979,0.106,0.795
	c0.146-0.043,0.554-0.684,0.704-0.812c-0.18,0.768-0.032,1.224,0.08,1.979c0.031,0.208,0.183,0.818,0.048,1.01
	c-0.218,0.309-0.505,0.211-0.575-0.166c-0.786-0.189-1.113,1.102-1.907,0.946c-0.657-0.129-0.127-2.052,0.128-2.56"/>
</svg>
