<?xml version="1.0" encoding="iso-8859-1"?>
<!-- Generator: Adobe Illustrator 16.0.4, SVG Export Plug-In . SVG Version: 6.00 Build 0)  -->
<!DOCTYPE svg PUBLIC "-//W3C//DTD SVG 1.1//EN" "http://www.w3.org/Graphics/SVG/1.1/DTD/svg11.dtd">
<svg version="1.1" id="Capa_1" xmlns="http://www.w3.org/2000/svg" xmlns:xlink="http://www.w3.org/1999/xlink" x="0px" y="0px"
	 width="17.098px" height="20.951px" viewBox="0 0 17.098 20.951" style="enable-background:new 0 0 17.098 20.951;"
	 xml:space="preserve">
<g>
	<path style="fill:none;stroke:#231F20;stroke-width:0.216;stroke-miterlimit:2.6131;" d="M0.081,0.072
		c1.913,2.159,3.768,1.495,6.56,0.868c2.945-0.66,5.074,1.341,5.272,3.719"/>
	<path style="fill-rule:evenodd;clip-rule:evenodd;fill:#231F20;" d="M11.498,4.059c-0.799,0-1.598,0-2.396,0
		c-1.318,0-2.396,1.078-2.396,2.396c0,1.069,0,2.139,0,3.208c1.598,0,3.195,0,4.792,0C11.498,7.795,11.498,5.927,11.498,4.059
		L11.498,4.059z M10.729,4.855c0,1.336,0,2.671,0,4.007c-1.069,0-2.137,0-3.206,0c0-0.765,0-1.529,0-2.294
		c0-0.942,0.721-1.713,1.603-1.713C9.66,4.855,10.194,4.855,10.729,4.855z"/>
	<path style="fill-rule:evenodd;clip-rule:evenodd;fill:#231F20;" d="M12.305,4.059c0.799,0,1.598,0,2.396,0
		c1.318,0,2.396,1.078,2.396,2.396c0,1.069,0,2.139,0,3.208c-1.598,0-3.195,0-4.793,0C12.305,7.795,12.305,5.927,12.305,4.059z"/>
	<path style="fill-rule:evenodd;clip-rule:evenodd;fill:#231F20;" d="M6.693,10.393h10.308v5.404c0,2.834-2.319,5.154-5.154,5.154
		l0,0c-2.835,0-5.154-2.319-5.154-5.154V10.393z"/>
</g>
<g>
</g>
<g>
</g>
<g>
</g>
<g>
</g>
<g>
</g>
<g>
</g>
<g>
</g>
<g>
</g>
<g>
</g>
<g>
</g>
<g>
</g>
<g>
</g>
<g>
</g>
<g>
</g>
<g>
</g>
</svg>
