<?xml version="1.0" encoding="utf-8"?>
<!-- Generator: Adobe Illustrator 16.0.0, SVG Export Plug-In . SVG Version: 6.00 Build 0)  -->
<!DOCTYPE svg PUBLIC "-//W3C//DTD SVG 1.1//EN" "http://www.w3.org/Graphics/SVG/1.1/DTD/svg11.dtd">
<svg version="1.1" id="Layer_1" xmlns="http://www.w3.org/2000/svg" xmlns:xlink="http://www.w3.org/1999/xlink" x="0px" y="0px"
	 width="96px" height="96px" viewBox="0 0 96 96" enable-background="new 0 0 96 96" xml:space="preserve">
<path d="M95.078,48L76.167,29.089v13.149H63.899c-1.701-4.666-5.4-8.362-10.06-10.064V19.833h13.149L48.078,0.922L29.166,19.833
	h13.15v12.341c-4.66,1.702-8.359,5.398-10.061,10.064H19.833V29.089L6.684,42.238H6.636v0.048L0.922,48l5.714,5.714v0.048h0.048
	l13.149,13.149V53.762h12.39c1.689,4.697,5.401,8.428,10.094,10.138v12.268h-13.15l13.15,13.149v0.204h0.203l5.559,5.558
	l5.558-5.558h0.204v-0.204l13.149-13.149H53.84V63.899c4.692-1.71,8.404-5.44,10.094-10.138h12.233v13.149L95.078,48z"/>
</svg>
