<?xml version="1.0" encoding="utf-8"?>
<!-- Generator: Adobe Illustrator 16.0.0, SVG Export Plug-In . SVG Version: 6.00 Build 0)  -->
<!DOCTYPE svg PUBLIC "-//W3C//DTD SVG 1.1//EN" "http://www.w3.org/Graphics/SVG/1.1/DTD/svg11.dtd">
<svg version="1.1" id="Layer_1" xmlns="http://www.w3.org/2000/svg" xmlns:xlink="http://www.w3.org/1999/xlink" x="0px" y="0px"
	 width="96px" height="96px" viewBox="0 0 96 96" enable-background="new 0 0 96 96" xml:space="preserve">
<path d="M94.82,22.533V1.18L73.467,1.182l7.424,7.424L55.878,33.619c-0.702-0.381-1.423-0.73-2.18-1.006V20.57h12.83L48.076,2.119
	L29.624,20.57h12.831v12.043c-0.792,0.289-1.545,0.658-2.276,1.061l-25.07-25.07l7.424-7.424L1.181,1.182L1.18,22.533l7.424-7.422
	l25.077,25.076c-0.395,0.721-0.758,1.461-1.042,2.244H20.516V29.604L2.064,48.055l18.452,18.451v-12.83h12.09
	c0.276,0.768,0.627,1.496,1.008,2.205L8.604,80.891L1.18,73.469V94.82l21.353-0.002l-7.424-7.422l24.954-24.953
	c0.766,0.43,1.556,0.82,2.392,1.125v11.969H29.624L48.076,93.99l18.452-18.453h-12.83V63.568c0.799-0.293,1.558-0.664,2.293-1.07
	l24.9,24.898l-7.424,7.424h21.352l0.001-21.352l-7.423,7.424L62.484,55.98c0.403-0.74,0.773-1.502,1.062-2.305h11.937v12.83
	l18.452-18.451L75.483,29.604v12.828h-11.97c-0.298-0.816-0.679-1.59-1.097-2.34l24.981-24.98L94.82,22.533z"/>
</svg>
