<?xml version="1.0" encoding="iso-8859-1"?>
<!-- Generator: Adobe Illustrator 16.0.0, SVG Export Plug-In . SVG Version: 6.00 Build 0)  -->
<!DOCTYPE svg PUBLIC "-//W3C//DTD SVG 1.1//EN" "http://www.w3.org/Graphics/SVG/1.1/DTD/svg11.dtd">
<svg version="1.1" id="Capa_1" xmlns="http://www.w3.org/2000/svg" xmlns:xlink="http://www.w3.org/1999/xlink" x="0px" y="0px"
	 width="22.466px" height="23.283px" viewBox="0 0 22.466 23.283" style="enable-background:new 0 0 22.466 23.283;"
	 xml:space="preserve">
<g>
	<g>
		<path style="fill:#2D2D2D;" d="M20.562,1.661c-0.145,0-0.274,0.044-0.374,0.143c-0.566,0.566-9.044,9.045-9.523,9.523
			l-0.004-0.004l-0.004,0.014c-0.005,0.005-0.007,0.021-0.007,0.021s-1.256,2.948-1.051,3.154c0.204,0.206,3.166-1.04,3.166-1.04
			s8.792-8.791,9.546-9.546C22.958,3.277,21.446,1.661,20.562,1.661z M21.949,3.565l-9.186,9.187l-1.401-1.401
			c1.679-1.678,8.672-8.673,9.173-9.176c0,0,0.008-0.004,0.027-0.004c0.357,0,1.113,0.599,1.344,1.157
			C21.964,3.466,21.962,3.552,21.949,3.565z"/>
	</g>
	<g>
		<g>
			<path style="fill:#2D2D2D;" d="M15.796,11.026v7.417H12.24v3.267l-0.048,0.044H1.528V1.528h14.268v4.019l1.529-1.529V0.764
				C17.325,0.341,16.982,0,16.561,0H0.764C0.342,0,0,0.341,0,0.764v21.754c0,0.422,0.342,0.764,0.764,0.764h11.721
				c0.188,0,0.369-0.07,0.51-0.194l4.076-3.648c0.162-0.145,0.254-0.352,0.254-0.569V9.498L15.796,11.026z"/>
		</g>
	</g>
	<g>
		<path style="fill:#2D2D2D;" d="M13.177,11.193c-0.048,0-0.098-0.02-0.135-0.056c-0.075-0.075-0.075-0.196,0-0.271l8.472-8.472
			c0.074-0.075,0.196-0.075,0.27,0c0.075,0.075,0.075,0.196,0,0.271l-8.471,8.472C13.275,11.174,13.226,11.193,13.177,11.193z"/>
	</g>
</g>
<g>
</g>
<g>
</g>
<g>
</g>
<g>
</g>
<g>
</g>
<g>
</g>
<g>
</g>
<g>
</g>
<g>
</g>
<g>
</g>
<g>
</g>
<g>
</g>
<g>
</g>
<g>
</g>
<g>
</g>
</svg>
