<?xml version="1.0" encoding="iso-8859-1"?>
<!-- Generator: Adobe Illustrator 16.0.0, SVG Export Plug-In . SVG Version: 6.00 Build 0)  -->
<!DOCTYPE svg PUBLIC "-//W3C//DTD SVG 1.1//EN" "http://www.w3.org/Graphics/SVG/1.1/DTD/svg11.dtd">
<svg version="1.1" id="Layer_1" xmlns="http://www.w3.org/2000/svg" xmlns:xlink="http://www.w3.org/1999/xlink" x="0px" y="0px"
	 width="42.721px" height="37.69px" viewBox="0 0 42.721 37.69" style="enable-background:new 0 0 42.721 37.69;"
	 xml:space="preserve">
<g>
	<path d="M28.054,8.356c-2.831,0-5.473,0.804-7.715,2.194c7.145,0.396,12.815,6.314,12.815,13.559
		c0,6.051-3.959,11.177-9.428,12.932c1.368,0.422,2.82,0.649,4.327,0.649c8.101,0,14.667-6.567,14.667-14.667
		S36.154,8.356,28.054,8.356z"/>
	<polygon points="9.551,3.255 7.944,0 6.339,3.255 2.747,3.777 5.346,6.311 4.732,9.888 7.944,8.198 11.157,9.888 10.544,6.311 
		13.144,3.777 	"/>
	<polygon points="23.463,23.167 26.063,20.634 22.47,20.111 20.863,16.856 19.258,20.111 15.666,20.634 18.265,23.167 
		17.651,26.744 20.863,25.055 24.076,26.744 	"/>
	<polygon points="6.804,31.058 5.197,27.803 3.592,31.058 0,31.58 2.599,34.113 1.985,37.69 5.197,36.001 8.41,37.69 7.797,34.113 
		10.396,31.58 	"/>
</g>
<g>
</g>
<g>
</g>
<g>
</g>
<g>
</g>
<g>
</g>
<g>
</g>
<g>
</g>
<g>
</g>
<g>
</g>
<g>
</g>
<g>
</g>
<g>
</g>
<g>
</g>
<g>
</g>
<g>
</g>
</svg>
