<?xml version="1.0" encoding="iso-8859-1"?>
<!-- Generator: Adobe Illustrator 17.1.0, SVG Export Plug-In . SVG Version: 6.00 Build 0)  -->
<!DOCTYPE svg PUBLIC "-//W3C//DTD SVG 1.1//EN" "http://www.w3.org/Graphics/SVG/1.1/DTD/svg11.dtd">
<svg version="1.1" id="Layer_1" xmlns="http://www.w3.org/2000/svg" xmlns:xlink="http://www.w3.org/1999/xlink" x="0px" y="0px"
	 viewBox="0 0 64 64" style="enable-background:new 0 0 64 64;" xml:space="preserve">
<path d="M16,62h39V4H16V62z M28.737,12h13.15c2.058,1,3.362,4.474,3.362,7.438c0,3.031-1.361,5.562-3.5,7.562H28.875
	c-2.139-2-3.5-4.532-3.5-7.562C25.375,16.474,26.68,13,28.737,12z M36.627,33.625c0,0.726-0.589,1.315-1.315,1.315
	c-0.726,0-1.315-0.589-1.315-1.315s0.589-1.315,1.315-1.315C36.039,32.31,36.627,32.899,36.627,33.625z M28.737,41h13.15
	c2.058,1,3.362,4.474,3.362,7.438c0,3.031-1.361,5.562-3.5,7.562H28.875c-2.139-2-3.5-4.532-3.5-7.562
	C25.375,45.474,26.68,42,28.737,41z"/>
<rect x="31" y="15" width="2" height="5"/>
<rect x="38" y="15" width="2" height="5"/>
<path d="M34,24h3v-1c0,0,0.124-1.354-1.501-1.354C33.874,21.646,34,23,34,23V24z"/>
<rect x="31" y="44" width="2" height="5"/>
<rect x="38" y="44" width="2" height="5"/>
<path d="M34,53h3v-1c0,0,0.124-1.354-1.501-1.354C33.874,50.646,34,52,34,52V53z"/>
</svg>
