<?xml version="1.0" encoding="iso-8859-1"?>
<!-- Generator: Adobe Illustrator 17.1.0, SVG Export Plug-In . SVG Version: 6.00 Build 0)  -->
<!DOCTYPE svg PUBLIC "-//W3C//DTD SVG 1.1//EN" "http://www.w3.org/Graphics/SVG/1.1/DTD/svg11.dtd">
<svg version="1.1" id="Layer_1" xmlns="http://www.w3.org/2000/svg" xmlns:xlink="http://www.w3.org/1999/xlink" x="0px" y="0px"
	 viewBox="0 0 64 64" style="enable-background:new 0 0 64 64;" xml:space="preserve">
<g>
	<path d="M23.984,36h15.381c-3.696-2.445-5.062-6.52-5.062-9.802c0-2.163,0.25-5.368,0.492-8.467
		c0.203-2.595,0.394-5.045,0.394-6.418c0-3.26-1.321-8.188-3.312-8.188c-0.494,0-0.922,0.189-1.308,0.58
		c-1.933,1.95-1.901,7.732-1.9,7.79c0,3.768,0.32,5.881,0.603,7.746c0.306,2.017,0.569,3.759,0.397,6.952
		C29.372,31.628,26.106,34.619,23.984,36z"/>
	<rect x="22" y="41" width="19" height="1"/>
	<rect x="22" y="43" width="19" height="2"/>
	<rect x="22" y="38" width="19" height="2"/>
	<path d="M18.916,59.563c-0.18,0.129-0.276,0.38-0.227,0.597c0.068,0.307,0.42,0.539,0.963,0.638c0.661,0.12,1.517,0.221,2.506,0.3
		c0.015,0,0.021-0.002,0.04-0.001c1.322,0.091,2.638-2.664,3.433-4.784c0,0-0.375,2.989-0.887,4.928
		c0.919,0.033,1.886,0.052,2.89,0.052c4.162,0,7.844-0.288,9.851-0.77c1.146-0.275,1.975-1.018,2.218-1.988
		c0.892-3.569,1.204-9.724,1.278-11.535H22.003C21.997,49.179,21.786,57.513,18.916,59.563z"/>
</g>
</svg>
