<?xml version="1.0" encoding="UTF-8" standalone="no"?>
<svg
   xmlns:dc="http://purl.org/dc/elements/1.1/"
   xmlns:cc="http://creativecommons.org/ns#"
   xmlns:rdf="http://www.w3.org/1999/02/22-rdf-syntax-ns#"
   xmlns:svg="http://www.w3.org/2000/svg"
   xmlns="http://www.w3.org/2000/svg"
   xmlns:sodipodi="http://sodipodi.sourceforge.net/DTD/sodipodi-0.dtd"
   xmlns:inkscape="http://www.inkscape.org/namespaces/inkscape"
   version="1.1"
   id="Capa_1"
   x="0px"
   y="0px"
   width="95"
   height="95"
   viewBox="0 0 95 95"
   enable-background="new 0 0 100 43.891"
   xml:space="preserve"
   inkscape:version="0.48.2 r9819"
   sodipodi:docname="panorama.svg"><metadata
   id="metadata13"><rdf:RDF><cc:Work
       rdf:about=""><dc:format>image/svg+xml</dc:format><dc:type
         rdf:resource="http://purl.org/dc/dcmitype/StillImage" /></cc:Work></rdf:RDF></metadata><defs
   id="defs11" /><sodipodi:namedview
   pagecolor="#ffffff"
   bordercolor="#666666"
   borderopacity="1"
   objecttolerance="10"
   gridtolerance="10"
   guidetolerance="10"
   inkscape:pageopacity="0"
   inkscape:pageshadow="2"
   inkscape:window-width="1113"
   inkscape:window-height="706"
   id="namedview9"
   showgrid="false"
   inkscape:zoom="3.52"
   inkscape:cx="50"
   inkscape:cy="56.036409"
   inkscape:window-x="0"
   inkscape:window-y="0"
   inkscape:window-maximized="0"
   inkscape:current-layer="Capa_1" />
<g
   id="g3"
   transform="translate(-2.5568182,24.120367)">
	<path
   d="M 97.329,1.172 94.655,1.944 C 94.497,1.99 78.327,6.57 49.906,6.57 21.49,6.57 5.509,1.993 5.351,1.945 L 2.67,1.172 v 41.547 l 2.6,-0.648 c 0.186,-0.05 18.875,-4.645 44.637,-4.645 25.727,0 44.643,4.598 44.829,4.646 l 2.595,0.64 -0.002,-41.54 z M 93.146,37.427 C 89.717,36.709 83.084,35.473 74.198,34.528 l -3.11,-4.916 h 3.027 L 68.064,19.231 62.011,29.612 h 2.781 l -2.507,3.964 C 60.613,33.487 58.899,33.412 57.138,33.358 L 53.67,27.877 h 3.972 L 49.702,14.25 41.763,27.877 h 3.648 l -3.482,5.504 c -1.683,0.059 -3.328,0.136 -4.925,0.225 l -2.526,-3.995 h 3.025 L 31.456,19.23 25.404,29.61 h 2.779 l -3.152,4.986 c -8.506,0.933 -14.854,2.123 -18.18,2.825 V 6.639 c 5.722,1.327 20.42,4.112 43.052,4.112 22.675,0 37.49,-2.793 43.241,-4.118 v 30.792 h 0.002 v 0.002 z"
   id="path5"
   inkscape:connector-curvature="0"
   style="fill:#000000" />
	<circle
   cx="81.233002"
   cy="17.139"
   r="4.1849999"
   id="circle7"
   sodipodi:cx="81.233002"
   sodipodi:cy="17.139"
   sodipodi:rx="4.1849999"
   sodipodi:ry="4.1849999"
   style="fill:#000000"
   d="m 85.418002,17.139 c 0,2.311312 -1.873689,4.185 -4.185,4.185 -2.311312,0 -4.185,-1.873688 -4.185,-4.185 0,-2.311312 1.873688,-4.185 4.185,-4.185 2.311311,0 4.185,1.873688 4.185,4.185 z" />
</g>
</svg>