<?xml version="1.0" encoding="iso-8859-1"?>
<!-- Generator: Adobe Illustrator 16.0.0, SVG Export Plug-In . SVG Version: 6.00 Build 0)  -->
<!DOCTYPE svg PUBLIC "-//W3C//DTD SVG 1.1//EN" "http://www.w3.org/Graphics/SVG/1.1/DTD/svg11.dtd">
<svg version="1.1" id="Layer_1" xmlns="http://www.w3.org/2000/svg" xmlns:xlink="http://www.w3.org/1999/xlink" x="0px" y="0px"
	 width="28.436px" height="26.033px" viewBox="0 0 28.436 26.033" style="enable-background:new 0 0 28.436 26.033;"
	 xml:space="preserve">
<g>
	<path d="M28.387,21.275L28.436,6.53L25.915,0L22.88,6.401l-0.07,14.855h-0.011l-0.015,4.758l5.594,0.019l0.016-4.758H28.387z
		 M27.34,24.987l-3.512-0.011l0.007-1.761l3.51,0.011L27.34,24.987z M27.911,7.25l-1.406-1.594l-0.794,1.293l-0.9-1.299
		l-1.438,1.408V6.571l1.735-3.653l1.385,0.005l1.421,3.655L27.911,7.25z"/>
	<path d="M13.915,5.039l0.005,0.002L6.227,15.586l-1.587,5.99l5.502-3.01l7.768-10.61l0.006,0.003l2.484-3.401l-4.001-2.92
		L13.915,5.039z M9.875,18.185l-3.141,1.719l-0.99-0.722l0.88-3.359l0.353-0.481l0.179,1.875l1.242-0.514L8.366,18.1l1.762-0.261
		L9.875,18.185z M19.108,4.758l-0.918,1.26l-2.51-1.832l0.919-1.26L19.108,4.758z"/>
	<path d="M1.74,21.149c-0.401-0.165-0.889-0.439-0.925-0.808c-0.036-0.363,0.348-0.837,1.051-1.302l0.469-0.306
		c0.992-0.646,1.49-0.97,1.469-1.468c-0.022-0.509-0.562-0.845-1.985-1.605c-1.325-0.708-1.228-2.077-1.114-3.662
		c0.03-0.428,0.062-0.872,0.062-1.304H0.121c0,0.41-0.031,0.841-0.061,1.258c-0.117,1.657-0.239,3.371,1.454,4.276
		c0.561,0.3,1.605,0.858,1.646,1.062c-0.025,0.153-0.637,0.551-1.177,0.903l-0.472,0.309c-0.937,0.618-1.4,1.276-1.339,1.901
		c0.055,0.554,0.5,1.005,1.324,1.343c0.368,0.15,0.765,0.172,1.147,0.193c0.412,0.023,0.801,0.045,1.05,0.23l0.385-0.518
		c-0.404-0.301-0.909-0.329-1.398-0.356C2.335,21.277,2.01,21.258,1.74,21.149z"/>
</g>
<g>
</g>
<g>
</g>
<g>
</g>
<g>
</g>
<g>
</g>
<g>
</g>
<g>
</g>
<g>
</g>
<g>
</g>
<g>
</g>
<g>
</g>
<g>
</g>
<g>
</g>
<g>
</g>
<g>
</g>
</svg>
