<?xml version="1.0" encoding="utf-8"?>
<!-- Generator: Adobe Illustrator 16.0.4, SVG Export Plug-In . SVG Version: 6.00 Build 0)  -->
<!DOCTYPE svg PUBLIC "-//W3C//DTD SVG 1.1//EN" "http://www.w3.org/Graphics/SVG/1.1/DTD/svg11.dtd">
<svg version="1.1" id="Layer_1" xmlns="http://www.w3.org/2000/svg" xmlns:xlink="http://www.w3.org/1999/xlink" x="0px" y="0px"
	 width="72.818px" height="72.814px" viewBox="0 0 72.818 72.814" enable-background="new 0 0 72.818 72.814" xml:space="preserve">
<g>
	<path fill="#1B1819" d="M59.437,20.724l-3.795-0.906l-0.34-3.886c-0.091-1.019-0.992-1.773-2.011-1.685L37.944,15.59L22.96,12.009
		c-0.996-0.239-1.996,0.377-2.232,1.371l-0.908,3.794l-3.887,0.34c-1.02,0.089-1.773,0.99-1.686,2.009l1.344,15.351l-3.58,14.982
		c-0.238,0.995,0.377,1.998,1.371,2.233l3.793,0.907l0.342,3.886c0.09,1.021,0.99,1.773,2.01,1.688l15.348-1.345l14.984,3.581
		c0.994,0.236,1.996-0.378,2.232-1.371l0.905-3.794l3.89-0.342c1.02-0.088,1.771-0.989,1.684-2.008L57.226,37.94l3.582-14.983
		C61.046,21.962,60.431,20.961,59.437,20.724z M53.253,43.241l-17.459,1.527l-16.563,1.448l-0.481-5.521l-0.492-5.627l-0.726-8.302
		l-0.586-6.695l2.229-0.195l2.77-0.241l15.807-1.384l8.304-0.726l6.692-0.587l0.193,2.232l0.244,2.768l1.385,15.808l0.115,1.339
		l0.188,2.145l0.162,1.854L53.253,43.241z"/>
	<polygon fill="#1B1819" points="45.068,23.178 44.566,24.133 45.636,23.988 45.675,25.066 46.529,24.405 47.105,25.318 
		47.513,24.318 48.468,24.822 48.322,23.751 49.4,23.709 48.74,22.856 49.652,22.281 48.654,21.874 49.126,20.971 49.156,20.919 
		48.999,20.939 48.073,20.719 48.046,19.987 47.329,20.54 47.089,20.484 46.616,19.736 46.38,20.314 46.208,20.734 45.253,20.23 
		45.4,21.3 44.322,21.342 44.982,22.195 44.07,22.769 	"/>
	<path fill="#1B1819" d="M41.945,29.908c-0.143-0.162-0.354-0.247-0.568-0.229c-0.213,0.02-0.404,0.14-0.518,0.322l-3.262,5.372
		l-7.232-8.243c-0.283-0.322-0.861-0.271-1.084,0.096l-8.479,13.958l-0.164,0.27l0.239,2.749l9.189-0.804l20.698-1.813
		c0.254-0.021,0.474-0.184,0.568-0.42c0.094-0.234,0.045-0.505-0.119-0.694L41.945,29.908z M32.2,32.67l-0.701,0.465
		c-0.067,0.046-0.149,0.074-0.231,0.082c-0.098,0.008-0.195-0.012-0.285-0.06l-0.741-0.402l-0.623,0.518
		c-0.148,0.123-0.355,0.147-0.529,0.068l-0.691-0.309c-0.133-0.061-0.231-0.173-0.272-0.311c-0.043-0.139-0.027-0.287,0.047-0.412
		l1.481-2.492c0.082-0.14,0.229-0.231,0.392-0.246h0.002c0.162-0.015,0.324,0.052,0.43,0.178l1.838,2.171
		c0.095,0.111,0.136,0.256,0.115,0.399C32.404,32.463,32.322,32.589,32.2,32.67z M43.749,35.43l-0.698,0.464
		c-0.072,0.05-0.15,0.073-0.232,0.081c-0.102,0.01-0.198-0.013-0.287-0.06l-0.743-0.402l-0.621,0.518
		c-0.15,0.124-0.357,0.15-0.531,0.071l-0.689-0.311c-0.131-0.061-0.229-0.172-0.274-0.311c-0.043-0.138-0.023-0.286,0.047-0.412
		l1.481-2.491c0.084-0.142,0.229-0.23,0.394-0.247l0,0c0.164-0.015,0.324,0.052,0.43,0.176l1.841,2.173
		c0.092,0.11,0.135,0.256,0.112,0.397C43.952,35.222,43.87,35.348,43.749,35.43z"/>
</g>
</svg>
