<?xml version="1.0" encoding="iso-8859-1"?>
<!-- Generator: Adobe Illustrator 17.1.0, SVG Export Plug-In . SVG Version: 6.00 Build 0)  -->
<!DOCTYPE svg PUBLIC "-//W3C//DTD SVG 1.1//EN" "http://www.w3.org/Graphics/SVG/1.1/DTD/svg11.dtd">
<svg version="1.1" id="Layer_1" xmlns="http://www.w3.org/2000/svg" xmlns:xlink="http://www.w3.org/1999/xlink" x="0px" y="0px"
	 viewBox="0 0 64 64" style="enable-background:new 0 0 64 64;" xml:space="preserve">
<g>
	<polygon points="55.211,14 60.626,8 3.2,8 9.329,14 	"/>
	<polygon points="9.289,52 3.289,58 60.732,58 55.078,52 	"/>
	<polygon points="57,15.003 57,51.124 62,56.43 62,9.462 	"/>
	<polygon points="8,15.496 2,9.623 2,56.461 8,50.461 	"/>
	<path d="M10,16v1.454v31.007V50h1.289h41.904H55v-0.999V17.219V16h-1.594H11.372H10z M45,37h-4v-5h4V37z M12,19.264V18h1.237H53v30
		h-2V32l-8-8.167L35,32v16H23V35.389c0.282-0.192,0.526-0.429,0.75-0.685c0.733,0.839,1.798,1.38,3,1.38
		c2.038,0,3.701-1.53,3.95-3.501c0.298,0.209,0.659,0.334,1.05,0.334c1.013,0,1.833-0.821,1.833-1.833
		c0-0.679-0.373-1.265-0.922-1.582c0.21-0.43,0.339-0.907,0.339-1.418c0-1.795-1.455-3.25-3.25-3.25
		c-0.706,0-1.355,0.231-1.888,0.614c-0.722-2.703-3.181-4.697-6.112-4.697c-1.096,0-2.126,0.279-3.025,0.768
		c-0.549-0.423-1.228-0.685-1.975-0.685c-1.795,0-3.25,1.455-3.25,3.25c0,1.013,0.473,1.906,1.199,2.502
		c-0.472,0.332-0.782,0.878-0.782,1.498c0,0.418,0.145,0.799,0.381,1.107c-1.062,0.535-1.798,1.623-1.798,2.893
		c0,1.795,1.455,3.25,3.25,3.25c0.741,0,1.416-0.258,1.962-0.675c0.734,0.865,1.815,1.425,3.038,1.425
		c0.086,0,0.166-0.02,0.25-0.025V48h-9V19.264z"/>
</g>
</svg>
