<?xml version="1.0" encoding="utf-8"?>
<!-- Generator: Adobe Illustrator 16.0.0, SVG Export Plug-In . SVG Version: 6.00 Build 0)  -->
<!DOCTYPE svg PUBLIC "-//W3C//DTD SVG 1.1//EN" "http://www.w3.org/Graphics/SVG/1.1/DTD/svg11.dtd">
<svg version="1.1" id="Layer_9" xmlns="http://www.w3.org/2000/svg" xmlns:xlink="http://www.w3.org/1999/xlink" x="0px" y="0px"
	 width="100px" height="100px" viewBox="0 0 100 100" enable-background="new 0 0 100 100" xml:space="preserve">
<path d="M77.029,43.044v3.994c0,2.004-1.626,3.629-3.631,3.629h-0.5l-3.891,36.658c0,2.006-1.626,3.629-3.63,3.629H31.659
	c-2.005,0-3.63-1.623-3.63-3.629l-2.895-36.658h-1.098c-2.004,0-3.629-1.625-3.629-3.629v-3.994c0-2.004,1.625-3.629,3.629-3.629
	h24.832c0.025-1.201,0.072-2.285,0.141-2.705c-0.02-1.576-0.502-2.844-1.439-3.766c-0.115-0.113-0.235-0.219-0.358-0.318
	c0.04,0.098,0.078,0.191,0.119,0.289c-13.017,5.77-19.422-3.732-19.422-3.732c-5.517-7.313-4.835-15.074-4.835-15.074
	s1.695,0.885,4.008,0.176C42.702,8.595,49.84,29.183,49.84,29.183l-0.57,0.855c-0.247-0.26-0.511-0.508-0.81-0.729
	c-0.454-0.35-0.991-0.619-1.532-0.83c-0.267-0.115-0.566-0.156-0.836-0.24c-0.256-0.043-0.512-0.07-0.764-0.102
	c-0.664-0.182-1.355-0.4-2.027-0.629c-0.708-0.24-1.412-0.498-2.109-0.775c-0.701-0.273-1.387-0.574-2.075-0.881
	c-0.681-0.316-1.357-0.646-2.009-1.021c-0.334-0.176-0.658-0.365-0.975-0.566c-0.316-0.203-0.649-0.385-0.954-0.604l-0.927-0.646
	c-0.301-0.225-0.588-0.469-0.882-0.705c-0.299-0.232-0.56-0.504-0.827-0.771c-0.268-0.266-0.545-0.523-0.77-0.828
	c-0.229-0.301-0.498-0.572-0.695-0.896l-0.582-0.977l0.545,1c0.18,0.336,0.43,0.627,0.643,0.943c0.209,0.322,0.471,0.6,0.725,0.887
	c0.252,0.285,0.5,0.578,0.787,0.832c0.278,0.262,0.544,0.539,0.83,0.795l0.877,0.742c0.291,0.252,0.608,0.465,0.912,0.699
	c0.305,0.236,0.616,0.459,0.938,0.67c0.631,0.439,1.284,0.84,1.933,1.256c0.659,0.395,1.321,0.789,2,1.152
	c0.676,0.369,1.362,0.721,2.058,1.057c0.619,0.299,1.234,0.582,1.883,0.854c1.232,0.25,2.846,0.803,4.105,2.039
	c0.529,0.521,0.945,1.121,1.259,1.785c1.857-3.943,5.556-6.389,7.812-7.576c0.087-0.061,0.177-0.115,0.27-0.176
	c0.092-0.043,0.188-0.074,0.287-0.105c0.789-0.387,1.307-0.58,1.331-0.59l0.022,0.064c0.389-0.176,0.771-0.354,1.154-0.539
	c0.695-0.336,1.383-0.686,2.059-1.057c0.678-0.363,1.34-0.758,1.999-1.152c0.648-0.416,1.302-0.818,1.933-1.256
	c0.322-0.211,0.633-0.434,0.938-0.67c0.304-0.234,0.621-0.447,0.912-0.699l0.878-0.742c0.286-0.256,0.552-0.533,0.829-0.795
	c0.287-0.254,0.535-0.547,0.787-0.834c0.255-0.285,0.517-0.563,0.725-0.885c0.213-0.316,0.463-0.607,0.643-0.943l0.546-1
	l-0.583,0.977c-0.197,0.322-0.467,0.596-0.695,0.896c-0.225,0.303-0.502,0.563-0.77,0.828s-0.527,0.539-0.827,0.77
	c-0.293,0.238-0.581,0.482-0.882,0.707l-0.926,0.646c-0.306,0.219-0.639,0.4-0.955,0.604c-0.316,0.199-0.641,0.391-0.974,0.566
	c-0.652,0.375-1.329,0.705-2.009,1.023c-0.689,0.305-1.375,0.607-2.075,0.877c-0.697,0.279-1.401,0.535-2.11,0.777
	c-0.672,0.227-1.363,0.447-2.026,0.629c-0.252,0.031-0.509,0.059-0.765,0.102c-0.27,0.084-0.568,0.125-0.835,0.24
	c-0.542,0.209-1.079,0.48-1.532,0.832c-0.299,0.219-0.563,0.467-0.811,0.725l-0.57-0.855c0,0,7.138-20.584,22.758-14.895
	c2.313,0.707,4.009-0.178,4.009-0.178s0.681,7.764-4.836,15.072c0,0-6.372,9.449-19.319,3.777
	c-3.466,2.264-5.324,6.428-5.791,10.701h22.811C75.403,39.415,77.029,41.04,77.029,43.044z"/>
</svg>
