<?xml version="1.0" encoding="iso-8859-1"?>
<!-- Generator: Adobe Illustrator 16.0.4, SVG Export Plug-In . SVG Version: 6.00 Build 0)  -->
<!DOCTYPE svg PUBLIC "-//W3C//DTD SVG 1.1//EN" "http://www.w3.org/Graphics/SVG/1.1/DTD/svg11.dtd">
<svg version="1.1" id="Capa_1" xmlns="http://www.w3.org/2000/svg" xmlns:xlink="http://www.w3.org/1999/xlink" x="0px" y="0px"
	 width="23.321px" height="21.351px" viewBox="0 0 23.321 21.351" style="enable-background:new 0 0 23.321 21.351;"
	 xml:space="preserve">
<g>
	<path style="fill-rule:evenodd;clip-rule:evenodd;fill:#231F20;stroke:#231F20;stroke-width:0.1508;stroke-miterlimit:2.6131;" d="
		M4.728,21.275h10.179l4.282-4.309v-5.811h-1.517v4.616h-4.394v3.989H6.244v-8.605H4.728V21.275L4.728,21.275z M19.188,9.536V0.075
		H4.728v9.461h1.517V1.59h11.428v7.946H19.188z"/>
	
		<rect x="19.217" y="6.346" style="fill-rule:evenodd;clip-rule:evenodd;fill:none;stroke:#231F20;stroke-width:0;stroke-miterlimit:2.6131;" width="3.411" height="0.794"/>
	
		<polygon style="fill-rule:evenodd;clip-rule:evenodd;fill:#231F20;stroke:#231F20;stroke-width:0.1006;stroke-miterlimit:2.6131;" points="
		19.188,4.794 23.271,4.794 23.271,15.728 19.188,15.728 19.188,11.155 19.192,11.155 19.192,15.06 19.264,15.06 20.717,15.06 
		20.717,9.536 20.714,9.536 19.192,9.536 19.188,9.536 	"/>
	
		<rect x="6.244" y="4.794" style="fill-rule:evenodd;clip-rule:evenodd;fill:#231F20;stroke:#231F20;stroke-width:0.1006;stroke-miterlimit:2.6131;" width="11.428" height="4.742"/>
	
		<polygon style="fill-rule:evenodd;clip-rule:evenodd;fill:#231F20;stroke:#231F20;stroke-width:0.1006;stroke-miterlimit:2.6131;" points="
		0.051,4.794 4.728,4.794 4.728,9.536 4.723,9.536 3.351,9.536 3.199,9.536 3.199,15.06 4.651,15.06 4.723,15.06 4.723,11.155 
		4.728,11.155 4.728,15.728 0.051,15.728 	"/>
</g>
<g>
</g>
<g>
</g>
<g>
</g>
<g>
</g>
<g>
</g>
<g>
</g>
<g>
</g>
<g>
</g>
<g>
</g>
<g>
</g>
<g>
</g>
<g>
</g>
<g>
</g>
<g>
</g>
<g>
</g>
</svg>
