<?xml version="1.0" encoding="UTF-8" standalone="no"?>
<!-- Generator: Adobe Illustrator 16.0.4, SVG Export Plug-In . SVG Version: 6.00 Build 0)  -->

<svg
   xmlns:dc="http://purl.org/dc/elements/1.1/"
   xmlns:cc="http://creativecommons.org/ns#"
   xmlns:rdf="http://www.w3.org/1999/02/22-rdf-syntax-ns#"
   xmlns:svg="http://www.w3.org/2000/svg"
   xmlns="http://www.w3.org/2000/svg"
   xmlns:sodipodi="http://sodipodi.sourceforge.net/DTD/sodipodi-0.dtd"
   xmlns:inkscape="http://www.inkscape.org/namespaces/inkscape"
   version="1.1"
   id="Capa_1"
   x="0px"
   y="0px"
   width="210"
   height="210"
   viewBox="0 0 210 210"
   enable-background="new 0 0 216 146"
   xml:space="preserve"
   inkscape:version="0.48.2 r9819"
   sodipodi:docname="random.svg"><metadata
   id="metadata15"><rdf:RDF><cc:Work
       rdf:about=""><dc:format>image/svg+xml</dc:format><dc:type
         rdf:resource="http://purl.org/dc/dcmitype/StillImage" /></cc:Work></rdf:RDF></metadata><defs
   id="defs13" /><sodipodi:namedview
   pagecolor="#ffffff"
   bordercolor="#666666"
   borderopacity="1"
   objecttolerance="10"
   gridtolerance="10"
   guidetolerance="10"
   inkscape:pageopacity="0"
   inkscape:pageshadow="2"
   inkscape:window-width="1020"
   inkscape:window-height="719"
   id="namedview11"
   showgrid="false"
   inkscape:zoom="1.6164384"
   inkscape:cx="108"
   inkscape:cy="73"
   inkscape:window-x="0"
   inkscape:window-y="0"
   inkscape:window-maximized="0"
   inkscape:current-layer="Capa_1" />
<g
   id="g3"
   transform="translate(-3.0932202,38.01695)">
	<path
   d="m 101.973,77.073 c 2.498,-5.92 4.616,-10.564 6.354,-13.932 1.304,-2.498 2.526,-4.603 3.667,-6.314 1.14,-1.711 2.525,-3.381 4.154,-5.01 1.631,-1.63 3.504,-2.853 5.623,-3.667 2.117,-0.815 4.48,-1.222 7.088,-1.222 h 20.856 v 15.643 c 0,0.706 0.257,1.317 0.773,1.833 0.516,0.516 1.127,0.774 1.833,0.774 0.761,0 1.386,-0.244 1.873,-0.733 L 180.266,38.374 C 180.756,37.885 181,37.261 181,36.5 c 0,-0.761 -0.244,-1.385 -0.734,-1.876 l -25.99,-25.99 c -0.651,-0.543 -1.305,-0.813 -1.955,-0.813 -0.762,0 -1.385,0.244 -1.875,0.733 -0.487,0.489 -0.731,1.113 -0.731,1.874 V 26.07 h -20.856 c -3.694,0 -7.17,0.449 -10.43,1.345 -3.259,0.896 -6.152,2.036 -8.677,3.422 -2.526,1.385 -4.97,3.245 -7.333,5.581 -2.363,2.335 -4.373,4.59 -6.029,6.762 -1.656,2.172 -3.395,4.888 -5.214,8.147 -1.819,3.259 -3.286,6.111 -4.399,8.555 -1.114,2.444 -2.458,5.459 -4.033,9.044 -2.499,5.92 -4.617,10.565 -6.355,13.932 -1.303,2.498 -2.526,4.604 -3.666,6.314 -1.14,1.711 -2.526,3.381 -4.155,5.01 -1.63,1.631 -3.504,2.853 -5.622,3.668 -2.118,0.814 -4.481,1.222 -7.088,1.222 h -18.25 c -0.761,0 -1.386,0.243 -1.874,0.733 -0.488,0.488 -0.733,1.112 -0.733,1.873 v 15.644 c 0,0.761 0.246,1.386 0.735,1.875 0.489,0.489 1.114,0.733 1.874,0.733 h 18.25 c 3.694,0 7.17,-0.449 10.429,-1.346 3.259,-0.896 6.152,-2.036 8.677,-3.422 2.526,-1.385 4.97,-3.245 7.333,-5.581 2.362,-2.335 4.373,-4.59 6.029,-6.762 1.656,-2.173 3.394,-4.888 5.214,-8.147 1.819,-3.259 3.286,-6.111 4.399,-8.555 1.113,-2.444 2.457,-5.459 4.032,-9.044 z"
   id="path5"
   inkscape:connector-curvature="0" />
	<path
   d="m 37.607,46.927 h 18.25 c 2.39,0 4.603,0.394 6.64,1.182 2.037,0.788 3.748,1.738 5.133,2.852 1.385,1.114 2.77,2.648 4.155,4.603 1.385,1.956 2.485,3.681 3.3,5.174 0.814,1.494 1.819,3.463 3.014,5.907 C 82.282,56.814 86.002,49.4 89.261,44.403 80.571,32.182 69.436,26.071 55.857,26.071 h -18.25 c -0.761,0 -1.386,0.244 -1.874,0.733 C 35.245,27.293 35,27.917 35,28.678 v 15.643 c 0,0.761 0.244,1.384 0.733,1.873 0.489,0.489 1.114,0.733 1.874,0.733 z"
   id="path7"
   inkscape:connector-curvature="0" />
	<path
   d="m 154.277,81.637 c -0.652,-0.543 -1.305,-0.813 -1.957,-0.813 -0.76,0 -1.385,0.244 -1.873,0.733 -0.488,0.488 -0.732,1.113 -0.732,1.873 v 15.644 h -20.857 c -2.391,0 -4.604,-0.394 -6.641,-1.183 -2.037,-0.787 -3.748,-1.737 -5.133,-2.852 -1.384,-1.113 -2.77,-2.648 -4.154,-4.604 -1.386,-1.955 -2.486,-3.68 -3.301,-5.174 -0.814,-1.492 -1.819,-3.463 -3.014,-5.906 -4.182,9.777 -7.875,17.19 -11.08,22.242 1.466,2.119 2.987,4.006 4.562,5.662 1.575,1.656 3.069,3.109 4.481,4.358 1.412,1.249 3.015,2.336 4.807,3.259 1.793,0.924 3.367,1.697 4.727,2.322 1.36,0.625 3.07,1.127 5.133,1.507 2.064,0.38 3.802,0.666 5.214,0.854 1.412,0.19 3.341,0.326 5.785,0.408 2.444,0.082 4.426,0.108 5.946,0.082 1.522,-0.027 3.722,-0.056 6.601,-0.082 2.879,-0.026 5.188,-0.041 6.926,-0.041 v 15.644 c 0,0.706 0.257,1.317 0.773,1.833 0.516,0.516 1.127,0.773 1.833,0.773 0.761,0 1.386,-0.244 1.873,-0.732 l 26.072,-26.071 c 0.488,-0.489 0.732,-1.113 0.732,-1.874 0,-0.761 -0.244,-1.385 -0.734,-1.873 L 154.277,81.637 z"
   id="path9"
   inkscape:connector-curvature="0" />
</g>
</svg>