<?xml version="1.0" encoding="utf-8"?>
<!-- Generator: Adobe Illustrator 16.0.0, SVG Export Plug-In . SVG Version: 6.00 Build 0)  -->
<!DOCTYPE svg PUBLIC "-//W3C//DTD SVG 1.1//EN" "http://www.w3.org/Graphics/SVG/1.1/DTD/svg11.dtd">
<svg version="1.1" id="Layer_1" xmlns="http://www.w3.org/2000/svg" xmlns:xlink="http://www.w3.org/1999/xlink" x="0px" y="0px"
	 width="126px" height="126px" viewBox="0 0 126 126" enable-background="new 0 0 126 126" xml:space="preserve">
<g>
	<path fill="#010101" d="M62.992,96.845c1.044,0,2.024-0.408,2.763-1.145L90.62,70.835c0.738-0.736,1.146-1.721,1.146-2.762
		s-0.407-2.025-1.146-2.762L65.759,40.448c-1.477-1.473-4.048-1.473-5.524,0L35.368,65.312c-0.738,0.736-1.145,1.721-1.145,2.762
		s0.406,2.025,1.145,2.762L60.23,95.7C60.969,96.437,61.949,96.845,62.992,96.845z M43.655,68.073l19.341-19.34l19.338,19.34
		l-19.342,19.34L43.655,68.073z"/>
	<path fill="#010101" d="M105.756,36.099c-8.541-11.42-21.019-18.832-35.135-20.873c-8.565-1.232-17.283-0.367-25.419,2.533
		L39.496,6.354c-0.566-1.129-1.747-1.949-3.188-1.82c-1.345,0.096-2.487,0.98-2.911,2.256l-7.369,22.117
		c-0.576,1.723,0.36,3.602,2.095,4.188l22.117,7.367c1.247,0.408,2.688,0.016,3.542-0.973c0.886-1.014,1.066-2.453,0.462-3.65
		l-5.522-11.041c6.673-2.217,13.79-2.85,20.785-1.836c12.051,1.736,22.701,8.066,29.992,17.82
		c7.277,9.734,10.327,21.736,8.586,33.801c-1.742,12.063-8.062,22.715-17.794,29.994c-9.72,7.273-21.776,10.344-33.808,8.607
		c-12.05-1.736-22.7-8.064-29.993-17.82c-5.811-7.768-8.948-16.986-9.074-26.654c-0.027-2.129-1.78-3.855-3.959-3.855
		c-2.153,0.029-3.882,1.803-3.854,3.959c0.148,11.328,3.824,22.129,10.631,31.236c8.54,11.418,21.018,18.832,35.135,20.873
		c2.573,0.369,5.175,0.557,7.735,0.557c11.537,0,22.556-3.682,31.864-10.645c11.423-8.543,18.836-21.018,20.871-35.135
		C117.879,61.587,114.296,47.521,105.756,36.099z"/>
</g>
</svg>
