<?xml version="1.0" encoding="utf-8"?>
<!-- Generator: Adobe Illustrator 16.0.0, SVG Export Plug-In . SVG Version: 6.00 Build 0)  -->
<!DOCTYPE svg PUBLIC "-//W3C//DTD SVG 1.1//EN" "http://www.w3.org/Graphics/SVG/1.1/DTD/svg11.dtd">
<svg version="1.1" id="Layer_1" xmlns="http://www.w3.org/2000/svg" xmlns:xlink="http://www.w3.org/1999/xlink" x="0px" y="0px"
	 width="96px" height="96px" viewBox="0 0 96 96" enable-background="new 0 0 96 96" xml:space="preserve">
<g>
	<path d="M32.032,39.803l2.463,8.699c-6.325,1.933-12.245,3.234-17.178,3.771c-1.604,0.176-3.079,0.265-4.384,0.265
		c-2.567,0-3.921-0.338-4.551-0.573c0.473-0.868,1.972-2.927,6.536-6.101c5.915-4.109,14.321-8.3,23.669-11.798l1.03-0.386
		l-2.537-6.778l-1.029,0.386c-1.609,0.602-39.356,14.886-34.71,27.309c1.285,3.438,5.183,5.179,11.583,5.179
		c1.555,0,3.296-0.104,5.177-0.307c5.324-0.58,11.652-1.961,18.364-4.003l2.452,8.662L51.03,47.56L32.032,39.803z"/>
	<path d="M94.89,40.393c-1.075-4.64-6.892-6.992-17.289-6.992c-11.13,0-23.274,2.608-26.731,3.409l-1.07,0.247l1.631,7.053
		l1.071-0.249c9.662-2.237,19.063-3.4,26.246-3.242c5.556,0.123,7.942,1.01,8.818,1.471c-0.584,0.801-2.341,2.646-7.276,5.194
		c-4.406,2.277-10.06,4.466-16.399,6.349l-2.753-8.612l-11.55,16.964l19.248,7.115l-2.741-8.573
		c6.722-2.007,12.76-4.354,17.519-6.813c1.675-0.865,3.184-1.741,4.483-2.604C93.431,47.572,95.716,43.968,94.89,40.393z"/>
</g>
</svg>
