<?xml version="1.0" encoding="utf-8"?>
<!-- Generator: Adobe Illustrator 16.0.0, SVG Export Plug-In . SVG Version: 6.00 Build 0)  -->
<!DOCTYPE svg PUBLIC "-//W3C//DTD SVG 1.1//EN" "http://www.w3.org/Graphics/SVG/1.1/DTD/svg11.dtd">
<svg version="1.1" id="Layer_1" xmlns="http://www.w3.org/2000/svg" xmlns:xlink="http://www.w3.org/1999/xlink" x="0px" y="0px"
	 width="96px" height="96px" viewBox="0 0 96 96" enable-background="new 0 0 96 96" xml:space="preserve">
<g>
	<path d="M92.159,19.047L54.965,35.482v18.93c-1.331-0.887-3.135-1.107-4.577-0.504c-0.019,0.008-0.036,0.018-0.054,0.027V35.482
		L13.14,19.047v34.313c-0.738-1.756-2.443-2.947-4.457-2.947H8.681L8.45,50.42c-2.473,0.133-4.435,2.1-4.563,4.59l-0.018,0.416
		c-0.064,0.783-0.018,1.672,0.163,2.953l0.042,0.227c0.068,0.383,0.171,0.961,0.336,1.428l0.052,0.178
		c0.065,0.223,0.133,0.451,0.267,0.822l0.374,0.92c0.641,1.453,1.436,2.791,2.358,3.967c1.058,1.371,2.205,2.605,3.404,3.66
		c1.337,1.188,2.733,2.27,4.151,3.211c1.616,1.074,3.128,1.973,4.618,2.746c1.687,0.883,3.333,1.66,4.876,2.303
		c1.826,0.785,3.652,1.443,5.057,1.936c1.907,0.643,3.459,1.121,4.87,1.506c0.821,0.232,1.632,0.447,2.356,0.623
		c0.794,0.207,1.576,0.389,2.304,0.551c1.399,0.322,2.814,0.611,4.191,0.855c1.131,0.215,2.184,0.377,3.228,0.541l0.888,0.117v6.742
		c0,1.961,1.169,3.713,2.97,4.455c0.589,0.246,1.215,0.373,1.858,0.373c1.289,0,2.501-0.504,3.414-1.416l16.17-16.168
		c0.913-0.912,1.415-2.125,1.415-3.416c0-1.115-0.396-2.16-1.088-3.016l20.015-8.844V19.047z M52.502,90.764v-9.734v-1.256
		c-0.345-0.039-1.001-0.117-1.926-0.223c-0.75-0.102-1.661-0.223-2.705-0.361c-1.021-0.162-2.169-0.334-3.417-0.568
		c-1.247-0.225-2.593-0.494-4.007-0.818c-0.708-0.158-1.433-0.326-2.17-0.516c-0.738-0.18-1.49-0.379-2.25-0.598
		c-1.522-0.414-3.081-0.91-4.651-1.438c-1.564-0.547-3.142-1.127-4.69-1.793c-1.552-0.648-3.075-1.377-4.543-2.146
		c-1.471-0.764-2.872-1.615-4.188-2.49c-1.317-0.875-2.525-1.83-3.611-2.797c-1.09-0.957-2.017-1.996-2.791-3
		c-0.783-1-1.352-2.033-1.764-2.967c-0.097-0.238-0.191-0.467-0.281-0.688c-0.078-0.227-0.138-0.451-0.201-0.66
		c-0.143-0.416-0.192-0.822-0.262-1.176c-0.097-0.717-0.127-1.279-0.095-1.66c0.018-0.379,0.028-0.58,0.028-0.58
		s0.032,0.199,0.093,0.572c0.047,0.371,0.191,0.906,0.425,1.551c0.137,0.318,0.257,0.674,0.47,1.031
		c0.101,0.178,0.196,0.367,0.311,0.557c0.124,0.182,0.252,0.371,0.384,0.566c0.554,0.76,1.245,1.563,2.133,2.303
		c0.879,0.742,1.883,1.479,3.039,2.127c1.15,0.648,2.398,1.268,3.743,1.799c1.347,0.529,2.754,1.025,4.222,1.428
		c1.466,0.406,2.966,0.77,4.488,1.053c1.514,0.301,3.048,0.52,4.555,0.709c1.514,0.174,3.002,0.318,4.449,0.398
		c0.721,0.051,1.432,0.084,2.129,0.104c0.695,0.031,1.376,0.043,2.039,0.047c1.323,0.021,2.575,0.004,3.73-0.035
		c1.151-0.027,2.208-0.092,3.142-0.143c0.912-0.072,1.705-0.135,2.359-0.184c0.829-0.078,1.443-0.137,1.812-0.172v-0.848v-9.734
		l16.171,16.17L52.502,90.764z"/>
	<polygon points="92.158,15.463 52.667,0.461 13.177,15.463 52.667,32.65 	"/>
</g>
</svg>
