<?xml version="1.0" encoding="iso-8859-1"?>
<!-- Generator: Adobe Illustrator 16.0.0, SVG Export Plug-In . SVG Version: 6.00 Build 0)  -->
<!DOCTYPE svg PUBLIC "-//W3C//DTD SVG 1.1//EN" "http://www.w3.org/Graphics/SVG/1.1/DTD/svg11.dtd">
<svg version="1.1" id="Layer_1" xmlns="http://www.w3.org/2000/svg" xmlns:xlink="http://www.w3.org/1999/xlink" x="0px" y="0px"
	 width="27.24px" height="26.935px" viewBox="0 0 27.24 26.935" style="enable-background:new 0 0 27.24 26.935;"
	 xml:space="preserve">
<path d="M21.828,0L0,21.418l5.414,5.517L27.24,5.517L21.828,0z M23.486,7.317l-0.748,0.735l-1.089-1.11l-0.691,0.679l1.089,1.109
	l-1.028,1.008l-1.676-1.709l-0.692,0.679l1.677,1.708L19.58,11.15l-1.088-1.109l-0.691,0.678l1.087,1.11l-1.009,0.99l-1.853-1.888
	l-0.693,0.679l1.854,1.888l-0.748,0.733l-1.265-1.289l-0.692,0.679l1.265,1.289l-1.026,1.007l-1.853-1.888l-0.692,0.679l1.854,1.888
	l-0.748,0.734l-1.265-1.29l-0.691,0.679l1.265,1.29l-0.948,0.93L9.79,17.049l-0.692,0.679l1.854,1.889l-0.748,0.733l-1.265-1.289
	L8.249,19.74l1.264,1.289l-1.026,1.008l-1.854-1.888l-0.691,0.678l1.853,1.889L7.046,23.45l-1.265-1.29l-0.69,0.679l1.265,1.29
	l-0.924,0.906l-3.53-3.598L21.81,1.901l3.53,3.597L24.177,6.64L22.5,4.931l-0.691,0.678L23.486,7.317z"/>
<g>
</g>
<g>
</g>
<g>
</g>
<g>
</g>
<g>
</g>
<g>
</g>
<g>
</g>
<g>
</g>
<g>
</g>
<g>
</g>
<g>
</g>
<g>
</g>
<g>
</g>
<g>
</g>
<g>
</g>
</svg>
