<?xml version="1.0" encoding="utf-8"?>
<!-- Generator: Adobe Illustrator 16.0.4, SVG Export Plug-In . SVG Version: 6.00 Build 0)  -->
<!DOCTYPE svg PUBLIC "-//W3C//DTD SVG 1.1//EN" "http://www.w3.org/Graphics/SVG/1.1/DTD/svg11.dtd">
<svg version="1.1" id="Layer_1" xmlns="http://www.w3.org/2000/svg" xmlns:xlink="http://www.w3.org/1999/xlink" x="0px" y="0px"
	 width="32px" height="32px" viewBox="0 0 32 32" enable-background="new 0 0 32 32" xml:space="preserve">
<g>
	<path d="M29.725,5.136V5.112V4.043c0-0.675-0.547-1.222-1.222-1.222h-3.921c-0.675,0-1.223,0.547-1.223,1.222v1.069v0.024H2.442
		c-1.229,0-2.226,0.996-2.226,2.226V26.23c0,1.629,1.321,2.949,2.95,2.949h25.859c1.629,0,2.949-1.32,2.949-2.949V7.386
		C31.975,6.144,30.967,5.136,29.725,5.136z M16.115,27.281c-5.602,0-10.157-4.543-10.157-10.129c0-5.583,4.556-10.125,10.157-10.125
		c5.601,0,10.158,4.542,10.158,10.125C26.273,22.738,21.716,27.281,16.115,27.281z"/>
	<path d="M16.115,10.838c-0.218,0-0.433,0.011-0.646,0.032c0.518,0.511,0.838,1.219,0.838,2.003c0,1.554-1.259,2.812-2.812,2.812
		c-1.266,0-2.337-0.837-2.69-1.988c-0.655,0.993-1.037,2.181-1.037,3.456c0,3.482,2.847,6.316,6.346,6.316
		c3.5,0,6.346-2.833,6.346-6.316C22.461,13.671,19.615,10.838,16.115,10.838z"/>
</g>
</svg>
