<?xml version="1.0" encoding="utf-8"?>
<!-- Generator: Adobe Illustrator 16.0.0, SVG Export Plug-In . SVG Version: 6.00 Build 0)  -->
<!DOCTYPE svg PUBLIC "-//W3C//DTD SVG 1.1//EN" "http://www.w3.org/Graphics/SVG/1.1/DTD/svg11.dtd">
<svg version="1.1" id="Layer_1" xmlns="http://www.w3.org/2000/svg" xmlns:xlink="http://www.w3.org/1999/xlink" x="0px" y="0px"
	 width="96px" height="96px" viewBox="0 0 96 96" enable-background="new 0 0 96 96" xml:space="preserve">
<g>
	<path d="M94.172,13.902V1.828H82.098V5.06H54.037V1.828H41.963V5.06H13.902V1.828H1.828v12.074H5.06v26.682H1.828v12.074H5.06
		v29.44H1.828v12.074h12.074V90.94h28.061v3.231h12.074V90.94h28.061v3.231h12.074V82.098H90.94v-29.44h3.231V40.584H90.94V13.902
		H94.172z M85.329,40.584h-3.231v12.074h3.231v29.44h-3.231v3.231H54.037v-3.231H41.963v3.231H13.902v-3.231h-3.231v-29.44h3.231
		V40.584h-3.231V13.902h3.231v-3.231h28.061v3.231h12.074v-3.231h28.061v3.231h3.231V40.584z"/>
	<rect x="20.505" y="19.383" width="40.59" height="40.59"/>
</g>
</svg>
