<?xml version="1.0" encoding="iso-8859-1"?>
<!-- Generator: Adobe Illustrator 16.0.0, SVG Export Plug-In . SVG Version: 6.00 Build 0)  -->
<!DOCTYPE svg PUBLIC "-//W3C//DTD SVG 1.1//EN" "http://www.w3.org/Graphics/SVG/1.1/DTD/svg11.dtd">
<svg version="1.1" id="Capa_1" xmlns="http://www.w3.org/2000/svg" xmlns:xlink="http://www.w3.org/1999/xlink" x="0px" y="0px"
	 width="26.228px" height="26.228px" viewBox="0 0 26.228 26.228" style="enable-background:new 0 0 26.228 26.228;"
	 xml:space="preserve">
<g>
	<path style="fill:#2D2D2D;" d="M26.098,25.466L0.763,0.131c-0.127-0.128-0.32-0.166-0.487-0.097C0.109,0.103,0,0.266,0,0.445
		v25.335c0,0.247,0.2,0.447,0.445,0.447h25.338c0.178,0,0.343-0.108,0.411-0.275C26.263,25.785,26.225,25.594,26.098,25.466z
		 M22.075,25.335h-0.061l-0.636,0v-1.002h-0.232v1.002h-0.63v-1.002h-0.233v1.002h-0.586v-2.004l-0.233-0.001v2.005h-0.546v-1.002
		h-0.233v1.002h-0.695v-1.003l-0.232,0.001v1.002h-2.6h-1.56h-1.779h-0.06l-0.637,0l0.002-1.002H10.89v1.002h-0.63v-1.002h-0.232
		v1.002H9.443v-2.004L9.209,23.33v2.005H8.663v-1.002H8.429v1.002H7.732v-1.003l-0.231,0.001v1.002h-2.6H3.344H0.893v-1.92h0.952
		v-0.229l-0.952-0.001V22.5l0.952,0.002v-0.23H0.893v-0.62h0.952v-0.229H0.893v-0.575h1.939v-0.231H0.893v-0.538h0.952v-0.229
		l-0.952,0v-0.686h0.952v-0.229H0.893v-0.62h0.952v-0.23H0.893v-0.629l1.939,0v-0.229H0.893v-0.62h0.952v-0.229H0.893v-0.685h0.952
		v-0.229H0.893v-0.62h0.952v-0.229H0.893v-0.631h1.939v-0.229l-1.939,0.001v-0.435l0.952,0.001v-0.23l-0.952,0v-0.685l0.952,0.001
		v-0.229H0.893v-0.621h0.952v-0.229H0.893v-0.576h1.939v-0.229H0.893V9.983h0.952V9.754l-0.952,0V9.069h0.952V8.84H0.893V8.22h0.952
		V7.991H0.893v-0.63l1.939,0V7.13H0.893V6.511h0.952v-0.23H0.893V5.597h0.952V5.368H0.893v-0.62h0.952v-0.23H0.893v-0.63h1.939
		V3.658L0.893,3.659V1.523l23.812,23.812H22.075z"/>
	<path style="fill:#2D2D2D;" d="M4.015,22.659h13.15c0.181,0,0.345-0.108,0.412-0.276c0.07-0.166,0.031-0.359-0.096-0.486
		L4.331,8.747C4.204,8.62,4.011,8.582,3.844,8.651C3.678,8.719,3.568,8.882,3.568,9.063v13.15
		C3.568,22.459,3.769,22.659,4.015,22.659z M4.462,10.139L16.09,21.767H4.462V10.139z"/>
	<polygon style="fill:#2D2D2D;" points="4.383,25.335 4.901,25.335 4.901,25.335 	"/>
	<polygon style="fill:#2D2D2D;" points="3.344,25.335 3.344,25.335 3.843,25.335 	"/>
	<rect x="3.109" y="24.333" style="fill:#2D2D2D;" width="0.234" height="1.002"/>
	<rect x="2.235" y="23.331" style="fill:#2D2D2D;" width="0.232" height="2.004"/>
	<rect x="11.818" y="24.333" style="fill:#2D2D2D;" width="0.233" height="1.002"/>
	<rect x="3.972" y="24.333" style="fill:#2D2D2D;" width="0.234" height="1.002"/>
	<rect x="5.763" y="23.331" style="fill:#2D2D2D;" width="0.234" height="2.004"/>
	<rect x="6.637" y="24.333" style="fill:#2D2D2D;" width="0.235" height="1.002"/>
	<rect x="4.901" y="24.333" style="fill:#2D2D2D;" width="0.234" height="1.003"/>
	<polygon style="fill:#2D2D2D;" points="14.639,25.335 15.157,25.335 15.157,25.335 	"/>
	<polygon style="fill:#2D2D2D;" points="13.598,25.335 13.598,25.335 14.098,25.335 	"/>
	<rect x="13.366" y="24.333" style="fill:#2D2D2D;" width="0.231" height="1.002"/>
	<rect x="12.493" y="23.331" style="fill:#2D2D2D;" width="0.231" height="2.004"/>
	<rect x="22.075" y="24.333" style="fill:#2D2D2D;" width="0.233" height="1.002"/>
	<rect x="14.229" y="24.333" style="fill:#2D2D2D;" width="0.233" height="1.002"/>
	<rect x="16.894" y="24.333" style="fill:#2D2D2D;" width="0.233" height="1.002"/>
	<rect x="16.02" y="23.33" style="fill:#2D2D2D;" width="0.234" height="2.005"/>
	<rect x="15.157" y="24.333" style="fill:#2D2D2D;" width="0.233" height="1.003"/>
</g>
<g>
</g>
<g>
</g>
<g>
</g>
<g>
</g>
<g>
</g>
<g>
</g>
<g>
</g>
<g>
</g>
<g>
</g>
<g>
</g>
<g>
</g>
<g>
</g>
<g>
</g>
<g>
</g>
<g>
</g>
</svg>
