<?xml version="1.0" encoding="utf-8"?>
<!-- Generator: Adobe Illustrator 16.0.4, SVG Export Plug-In . SVG Version: 6.00 Build 0)  -->
<!DOCTYPE svg PUBLIC "-//W3C//DTD SVG 1.1//EN" "http://www.w3.org/Graphics/SVG/1.1/DTD/svg11.dtd">
<svg version="1.1" id="Capa_1" xmlns="http://www.w3.org/2000/svg" xmlns:xlink="http://www.w3.org/1999/xlink" x="0px" y="0px"
	 width="23.303px" height="23.594px" viewBox="0 0 23.303 23.594" enable-background="new 0 0 23.303 23.594" xml:space="preserve">
<g>
	<path d="M11.387,13.609l1.372-1.375l-1.402-1.398l-1.37,1.371c-0.573-0.39-1.229-0.66-1.934-0.796V9.468H6.073v1.944
		c-0.703,0.137-1.358,0.406-1.932,0.796l-1.374-1.371l-1.398,1.398l1.368,1.375c-0.385,0.57-0.657,1.225-0.794,1.934H0v1.979h1.943
		c0.137,0.703,0.409,1.358,0.794,1.934l-1.368,1.371l1.398,1.398l1.373-1.371c0.573,0.388,1.229,0.66,1.933,0.797v1.943h1.979V21.65
		c0.705-0.137,1.359-0.408,1.934-0.797l1.37,1.369l1.402-1.397l-1.372-1.371c0.39-0.574,0.659-1.229,0.794-1.935h1.947v-1.977
		h-1.946C12.046,14.834,11.777,14.182,11.387,13.609z M7.064,18.691c-1.19,0-2.16-0.967-2.16-2.16s0.97-2.159,2.16-2.159
		c1.192,0,2.157,0.966,2.157,2.159S8.257,18.691,7.064,18.691z"/>
	<path d="M22.831,15.492l0.014-0.01l-9.63-9.681L13.2,1.246L8.54,0L8.044,0.497l2.478,2.472L8.108,5.388L5.632,2.914L5.134,3.408
		l1.25,4.655l4.432,0.015l-0.029,0.024l9.693,9.744l0.013-0.012c0.646,0.632,1.688,0.632,2.324-0.011
		C23.462,17.182,23.463,16.145,22.831,15.492z M22.205,17.208c-0.288,0.287-0.753,0.288-1.039,0
		c-0.285-0.287-0.288-0.749-0.003-1.037c0.289-0.286,0.754-0.286,1.042-0.001C22.49,16.455,22.493,16.919,22.205,17.208z"/>
</g>
</svg>
