<?xml version="1.0" encoding="iso-8859-1"?>
<!-- Generator: Adobe Illustrator 17.0.0, SVG Export Plug-In . SVG Version: 6.00 Build 0)  -->
<!DOCTYPE svg PUBLIC "-//W3C//DTD SVG 1.1//EN" "http://www.w3.org/Graphics/SVG/1.1/DTD/svg11.dtd">
<svg version="1.1" id="Capa_1" xmlns="http://www.w3.org/2000/svg" xmlns:xlink="http://www.w3.org/1999/xlink" x="0px" y="0px"
	 width="64px" height="64px" viewBox="0 0 64 64" style="enable-background:new 0 0 64 64;" xml:space="preserve">
<g>
	<path d="M14.477,20.813c-1.908-1.125-4.606-0.09-6.026,2.314c-1.104,1.866-1.117,4.023-0.182,5.416h6.016
		c0.401-0.382,0.763-0.815,1.067-1.33C16.776,24.806,16.385,21.941,14.477,20.813z"/>
	<path d="M31.216,23.128c-1.422-2.404-4.12-3.439-6.027-2.314c-1.907,1.128-2.298,3.992-0.875,6.4
		c0.305,0.515,0.668,1.011,1.068,1.393h5.93C32.333,27.219,32.352,25.048,31.216,23.128z"/>
	<path d="M23.821,27.611c-1.606-2.719-1.109-5.996,1.107-7.305c0.29-0.173,0.599-0.296,0.919-0.387
		c-0.356-0.405-0.739-0.768-1.14-1.1c2.196-1.539,3.637-4.086,3.637-6.972c0-4.701-3.81-8.512-8.511-8.512s-8.512,3.811-8.512,8.512
		c0,2.787,1.347,5.254,3.418,6.806c-0.447,0.352-0.871,0.746-1.264,1.185c0.5,0.075,0.981,0.208,1.416,0.467
		c2.218,1.309,2.715,4.586,1.108,7.305c-0.213,0.36-0.47,0.69-0.754,1.011h9.29C24.289,28.321,24.048,27.995,23.821,27.611z"/>
	<path d="M45.449,56.714c0.354-0.337,0.674-0.719,0.943-1.174c1.257-2.127,0.912-4.656-0.773-5.652
		c-1.684-0.992-4.066-0.078-5.321,2.045c-0.975,1.648-0.986,3.551-0.16,4.781H45.449z"/>
	<path d="M55.078,49.888c-1.684,0.996-2.029,3.525-0.773,5.652c0.268,0.455,0.589,0.893,0.942,1.229h5.236
		c0.902-1.226,0.919-3.142-0.084-4.837C59.144,49.81,56.762,48.896,55.078,49.888z"/>
	<path d="M54.848,49.44c0.256-0.151,0.529-0.261,0.811-0.341c-0.313-0.357-0.652-0.679-1.006-0.971
		c1.939-1.359,3.212-3.608,3.212-6.156c0-4.151-3.365-7.516-7.516-7.516c-4.15,0-7.516,3.364-7.516,7.516
		c0,2.461,1.189,4.64,3.018,6.01c-0.395,0.311-0.769,0.658-1.116,1.047c0.441,0.066,0.867,0.184,1.251,0.411
		c1.958,1.156,2.397,4.05,0.978,6.45c-0.188,0.318-0.415,0.609-0.666,0.893h8.204c-0.218-0.265-0.431-0.554-0.631-0.893
		C52.452,53.49,52.891,50.597,54.848,49.44z"/>
	<path d="M51.841,19.224c0.534,0.792,1.023,1.626,1.456,2.478l1.783-0.906c-0.469-0.924-1.001-1.828-1.581-2.688L51.841,19.224z"/>
	<path d="M54.439,24.338c0.326,0.899,0.598,1.827,0.809,2.758l1.95-0.443c-0.229-1.011-0.525-2.018-0.878-2.994L54.439,24.338z"/>
	<path d="M55.833,32.324h2c0-0.865-0.044-1.737-0.13-2.593l-1.99,0.201C55.792,30.722,55.833,31.526,55.833,32.324z"/>
	<path d="M32.325,6.833v2c0.958,0,1.924,0.059,2.871,0.174l0.241-1.986C34.411,6.896,33.364,6.833,32.325,6.833z"/>
	<path d="M43.38,11.587c0.841,0.449,1.666,0.957,2.45,1.508l1.149-1.637c-0.851-0.598-1.745-1.147-2.657-1.635L43.38,11.587z"/>
	<path d="M49.419,13.404l-1.34,1.484c0.71,0.642,1.387,1.332,2.012,2.054l1.512-1.309C50.925,14.851,50.19,14.101,49.419,13.404z"/>
	<path d="M41.483,8.524c-0.969-0.372-1.971-0.688-2.978-0.938l-0.482,1.941c0.927,0.23,1.85,0.521,2.743,0.864L41.483,8.524z"/>
	<path d="M13.873,49.925l1.447-1.381c-0.662-0.693-1.285-1.433-1.853-2.197l-1.605,1.193C12.479,48.37,13.155,49.173,13.873,49.925z
		"/>
	<path d="M24.945,54.646c-0.909-0.302-1.808-0.661-2.669-1.07l-0.857,1.807c0.936,0.444,1.911,0.835,2.898,1.162L24.945,54.646z"/>
	<path d="M36.646,57.469l-0.336-1.971c-0.938,0.159-1.901,0.264-2.86,0.309l0.095,1.998C34.584,57.755,35.627,57.643,36.646,57.469z
		"/>
	<path d="M18.686,53.876l1.072-1.689c-0.807-0.512-1.59-1.079-2.329-1.687l-1.271,1.545C16.96,52.704,17.811,53.32,18.686,53.876z"
		/>
	<path d="M30.426,57.762l0.148-1.994c-0.955-0.071-1.914-0.201-2.85-0.387l-0.389,1.961C28.351,57.544,29.391,57.685,30.426,57.762z
		"/>
	<path d="M10.629,41.359l-1.846,0.77c0.399,0.957,0.861,1.899,1.374,2.799l1.738-0.988C11.423,43.109,10.997,42.241,10.629,41.359z"
		/>
	<path d="M8.834,32.342h-2c0,0.227,0.003,0.453,0.009,0.68l1.999-0.055C8.837,32.76,8.834,32.551,8.834,32.342z"/>
	<path d="M9.093,35.833l-1.979,0.295c0.153,1.026,0.371,2.054,0.649,3.052l1.927-0.535C9.435,37.725,9.234,36.779,9.093,35.833z"/>
</g>
</svg>
