<?xml version="1.0" encoding="utf-8"?>
<!-- Generator: Adobe Illustrator 16.0.4, SVG Export Plug-In . SVG Version: 6.00 Build 0)  -->
<!DOCTYPE svg PUBLIC "-//W3C//DTD SVG 1.1//EN" "http://www.w3.org/Graphics/SVG/1.1/DTD/svg11.dtd">
<svg version="1.1" id="Layer_1" xmlns="http://www.w3.org/2000/svg" xmlns:xlink="http://www.w3.org/1999/xlink" x="0px" y="0px"
	 width="26.566px" height="27.949px" viewBox="0 0 26.566 27.949" enable-background="new 0 0 26.566 27.949" xml:space="preserve">
<path d="M8.999,19.485h15.503v1.935H7.443L4.3,7.153H0V5.218h5.854L8.999,19.485z M10.76,22.708c-1.447,0-2.62,1.172-2.62,2.619
	s1.173,2.621,2.62,2.621s2.62-1.174,2.62-2.621S12.207,22.708,10.76,22.708z M21.561,22.708c-1.446,0-2.62,1.172-2.62,2.619
	s1.174,2.621,2.62,2.621c1.447,0,2.62-1.174,2.62-2.621S23.008,22.708,21.561,22.708z M9.978,18.035L7.68,6.133h3.76L19.774,0
	l3.729,5.064l-0.161,1.069h3.227l-2.687,11.902H9.978z M22.895,5.477l-0.892,0.656h0.794L22.895,5.477z M12.348,6.132h1.959
	l-0.118-0.16l0.38-0.279l0.323,0.439h0.481L14.88,5.463l0.38-0.279l0.697,0.948h0.544l-0.889-1.207l0.38-0.279l1.095,1.486h0.626
	l-1.301-1.768l0.379-0.28l1.507,2.048h0.544l-1.698-2.308l0.379-0.278l1.903,2.586h1.668l1.639-1.205l-3.071-4.176L12.348,6.132z
	 M21.06,5.305l-2.088-2.839l-0.381,0.279l2.089,2.839L21.06,5.305z M20.33,5.845L18.24,3.005l-0.378,0.279l2.091,2.839L20.33,5.845z
	"/>
</svg>
