<?xml version="1.0" encoding="iso-8859-1"?>
<!-- Generator: Adobe Illustrator 16.0.4, SVG Export Plug-In . SVG Version: 6.00 Build 0)  -->
<!DOCTYPE svg PUBLIC "-//W3C//DTD SVG 1.1//EN" "http://www.w3.org/Graphics/SVG/1.1/DTD/svg11.dtd">
<svg version="1.1" id="Capa_1" xmlns="http://www.w3.org/2000/svg" xmlns:xlink="http://www.w3.org/1999/xlink" x="0px" y="0px"
	 width="15px" height="13.003px" viewBox="0 0 15 13.003" style="enable-background:new 0 0 15 13.003;" xml:space="preserve">
<path style="fill:#010002;" d="M12.349,12.308L12.944,13L1.937,13.003l0.135-0.851l1.209-0.671l-0.188-1.424l1.604-0.14l0.083-0.741
	l1.863-0.16L6.75,7.684l0.32-0.426l0.745,0.16l0.086,0.709l1.192-0.075l0.075,1.341l1.341,0.522l0.075,1.043
	c0.115,0.16,0.7-0.096,0.802,0.053c0.104,0.15-0.093-0.147,0,0c-0.131,0.618,0.783,0.723,0.783,0.723L12.349,12.308z M10.893,7.835
	l-0.562-0.19c-0.191,0.147-0.262,0.3-0.207,0.46l0.281,0.324l0.424-0.141c0.153-0.051,0.206-0.148,0.16-0.284
	C10.974,7.956,10.943,7.899,10.893,7.835z M10.535,6.342c-0.124-0.06-0.252-0.07-0.391-0.024C10.071,6.342,9.995,6.391,9.91,6.464
	l0.022,0.665l0.645-0.08C10.746,6.856,10.81,6.7,10.771,6.58C10.737,6.484,10.66,6.404,10.535,6.342z M12.512,7.266l0.004,0.013
	c-0.024,0.008-0.141-0.019-0.352-0.085c-0.102-0.035-0.204-0.073-0.307-0.113c-0.146,0.049-0.236,0.195-0.271,0.435
	c-0.035,0.241-0.012,0.483,0.068,0.724c0.021,0.066,0.072,0.137,0.152,0.219l0.138,0.129l0.237-0.013
	c0.268-0.116,0.42-0.18,0.461-0.194c0.097-0.058,0.162-0.18,0.195-0.362c0.033-0.183,0.021-0.357-0.037-0.526
	C12.737,7.3,12.642,7.223,12.512,7.266z M11.473,9.247l-0.14,0.505c0.104,0.091,0.253,0.154,0.452,0.183l0.471-0.157l-0.238-0.714
	L11.473,9.247z M13.869,8.335l-0.141,0.506c0.104,0.091,0.253,0.153,0.453,0.184l0.471-0.157l-0.239-0.714L13.869,8.335z
	 M14.216,12.131l-0.14,0.505c0.104,0.091,0.253,0.153,0.452,0.184L15,12.663l-0.239-0.714L14.216,12.131z M14.083,9.887
	c-0.273-0.304-0.61-0.389-1.013-0.254l-0.06,0.02c-0.19,0.168-0.348,0.414-0.479,0.732c-0.128,0.303-0.165,0.542-0.107,0.716
	c0.005,0.014,0.13,0.127,0.372,0.345c0.258,0.211,0.401,0.353,0.432,0.423l0.763-0.255c0.088-0.029,0.174-0.07,0.255-0.124
	c0.083-0.053,0.151-0.115,0.208-0.182c0.056-0.066,0.097-0.134,0.123-0.202c0.024-0.068,0.028-0.131,0.007-0.193
	C14.418,10.417,14.251,10.076,14.083,9.887z M6.295,6.646C6.167,7.408,5.776,8.112,5.776,8.112s-0.804,0.061-1.55-0.142
	C3.481,7.767,2.335,5.878,2.335,5.878l1.176-0.754L2.096,2.781L0.994,2.54L0.503,1.773L0.289,1.91L0,1.459L2.277,0l0.289,0.45
	L2.352,0.587l0.493,0.768L2.601,2.469l1.411,2.335l1.171-0.752C5.183,4.052,6.422,5.884,6.295,6.646z M1.232,2.199L2.22,2.416
	l0.216-0.987L2.03,0.794L0.826,1.566L1.232,2.199z"/>
<g>
</g>
<g>
</g>
<g>
</g>
<g>
</g>
<g>
</g>
<g>
</g>
<g>
</g>
<g>
</g>
<g>
</g>
<g>
</g>
<g>
</g>
<g>
</g>
<g>
</g>
<g>
</g>
<g>
</g>
</svg>
