<?xml version="1.0" encoding="utf-8"?>
<!-- Generator: Adobe Illustrator 16.0.4, SVG Export Plug-In . SVG Version: 6.00 Build 0)  -->
<!DOCTYPE svg PUBLIC "-//W3C//DTD SVG 1.1//EN" "http://www.w3.org/Graphics/SVG/1.1/DTD/svg11.dtd">
<svg version="1.1" id="Capa_1" xmlns="http://www.w3.org/2000/svg" xmlns:xlink="http://www.w3.org/1999/xlink" x="0px" y="0px"
	 width="64px" height="64px" viewBox="0 0 64 64" enable-background="new 0 0 64 64" xml:space="preserve">
<g>
	<path d="M9,31.098v3.587l8.463-1.352l2.69-0.061L32,34.221v-8.678C32,20.825,28.175,17,23.456,17h-8.913
		C9.825,17,6,20.825,6,25.544v2.003C7.696,27.823,9,29.304,9,31.098z M21.906,22.193c0.381,0,0.69,0.309,0.69,0.69
		c0,0.381-0.309,0.69-0.69,0.69c-0.381,0-0.69-0.309-0.69-0.69C21.216,22.502,21.525,22.193,21.906,22.193z M21.906,28.444
		c0.381,0,0.69,0.309,0.69,0.69c0,0.381-0.309,0.69-0.69,0.69c-0.381,0-0.69-0.309-0.69-0.69
		C21.216,28.753,21.525,28.444,21.906,28.444z M15.655,22.193c0.381,0,0.69,0.309,0.69,0.69c0,0.381-0.309,0.69-0.69,0.69
		c-0.381,0-0.69-0.309-0.69-0.69C14.965,22.502,15.274,22.193,15.655,22.193z M15.655,28.444c0.381,0,0.69,0.309,0.69,0.69
		c0,0.381-0.309,0.69-0.69,0.69c-0.381,0-0.69-0.309-0.69-0.69C14.965,28.753,15.274,28.444,15.655,28.444z"/>
	<path d="M9.078,47.003c0.101,0.195,0.214,0.45,0.305,0.45c0.044,0,0.088-0.033,0.122-0.098L10.72,45H8.037L9.078,47.003z"/>
	<path d="M47.392,33.061L55,34.648v-3.551c0-1.957,1.741-3.609,3.803-3.609c0.067,0,0.131,0.017,0.197,0.02v-1.965
		C59,20.825,55.175,17,50.456,17h-8.913C36.825,17,33,20.825,33,25.544v8.65l11.742-1.157L47.392,33.061z M48.784,22.193
		c0.381,0,0.69,0.309,0.69,0.69c0,0.381-0.31,0.69-0.69,0.69c-0.382,0-0.69-0.309-0.69-0.69
		C48.094,22.502,48.402,22.193,48.784,22.193z M48.784,28.444c0.381,0,0.69,0.309,0.69,0.69c0,0.381-0.31,0.69-0.69,0.69
		c-0.382,0-0.69-0.309-0.69-0.69C48.094,28.753,48.402,28.444,48.784,28.444z M42.533,29.824c-0.381,0-0.69-0.309-0.69-0.69
		c0-0.381,0.31-0.69,0.69-0.69s0.689,0.309,0.689,0.69C43.223,29.515,42.914,29.824,42.533,29.824z M42.533,23.573
		c-0.381,0-0.69-0.309-0.69-0.69c0-0.381,0.31-0.69,0.69-0.69s0.689,0.309,0.689,0.69C43.223,23.264,42.914,23.573,42.533,23.573z"
		/>
	<path d="M55.605,47.002c0.101,0.195,0.213,0.45,0.305,0.45c0.044,0,0.088-0.033,0.122-0.099L57.245,45h-2.681L55.605,47.002z"/>
	<path d="M58.803,28.488c-1.493,0-2.803,1.219-2.803,2.609v4.783l-8.716-1.83l-2.498-0.015l-12.369,1.214l-12.293-0.978
		l-2.572,0.057L8,35.857v-4.759c0-1.463-1.126-2.609-2.563-2.609c-1.41,0-3.112,1.164-3.112,2.609c0,1.532,0.732,2.369,2.238,2.56
		L5,33.714v4.488C5.334,38.078,5.691,38,6.068,38H30h0.932h27.366c0.251,0,0.482,0.029,0.702,0.072v-3.615v-0.743l0.438-0.056
		c1.461-0.186,2.058-0.927,2.058-2.56C61.495,29.683,60.262,28.488,58.803,28.488z"/>
	<path d="M58.298,39H30.932H30H6.068C4.928,39,4,39.928,4,41.068v0.863C4,43.072,4.928,44,6.068,44H30h0.932h27.366
		C59.779,44,60,42.85,60,42.164v-1.49C60,39.548,59.443,39,58.298,39z"/>
</g>
</svg>
