<?xml version="1.0" encoding="iso-8859-1"?>
<!-- Generator: Adobe Illustrator 17.1.0, SVG Export Plug-In . SVG Version: 6.00 Build 0)  -->
<!DOCTYPE svg PUBLIC "-//W3C//DTD SVG 1.1//EN" "http://www.w3.org/Graphics/SVG/1.1/DTD/svg11.dtd">
<svg version="1.1" id="Layer_1" xmlns="http://www.w3.org/2000/svg" xmlns:xlink="http://www.w3.org/1999/xlink" x="0px" y="0px"
	 viewBox="0 0 64 64" style="enable-background:new 0 0 64 64;" xml:space="preserve">
<polygon points="53,24 47,24 47,27 41,27 41,30 35,30 35,33 29,33 29,36 23,36 23,39 17,39 17,42 11,42 11,45 5,45 5,49 11,49 
	12,49 17,49 18,49 23,49 24,49 29,49 30,49 35,49 36,49 41,49 42,49 47,49 48,49 53,49 54,49 60,49 60,21 53,21 "/>
<path d="M42.5,20.5c0.276,0,0.5-0.224,0.5-0.5v-3.781l4.543-2.298c0.144-0.073,0.201-0.248,0.129-0.392l-0.188-0.372
	c-0.073-0.144-0.248-0.201-0.392-0.129L14.523,29.505c-0.008,0-0.015-0.005-0.023-0.005c-0.17,0-0.313,0.09-0.403,0.22l-6.639,3.359
	c-0.144,0.073-0.201,0.248-0.129,0.392l0.188,0.372c0.073,0.144,0.248,0.201,0.392,0.129L14,30.89V34c0,0.276,0.224,0.5,0.5,0.5
	S15,34.276,15,34v-3.616l14-7.082V27c0,0.276,0.224,0.5,0.5,0.5S30,27.276,30,27v-4c0-0.066-0.014-0.128-0.037-0.185L42,16.725V20
	C42,20.276,42.224,20.5,42.5,20.5z"/>
</svg>
