<?xml version="1.0" encoding="iso-8859-1"?>
<!-- Generator: Adobe Illustrator 17.1.0, SVG Export Plug-In . SVG Version: 6.00 Build 0)  -->
<!DOCTYPE svg PUBLIC "-//W3C//DTD SVG 1.1//EN" "http://www.w3.org/Graphics/SVG/1.1/DTD/svg11.dtd">
<svg version="1.1" id="Layer_1" xmlns="http://www.w3.org/2000/svg" xmlns:xlink="http://www.w3.org/1999/xlink" x="0px" y="0px"
	 viewBox="0 0 800 800" style="enable-background:new 0 0 800 800;" xml:space="preserve">
<path d="M406.057,57.143h-17.6c-9.404,0-17.028-7.624-17.028-17.028v-0.572C371.429,17.704,353.725,0,331.885,0h-0.914
	c-21.839,0-39.543,17.704-39.543,39.542v0.572c0,9.404-7.624,17.028-17.028,17.028h-17.6c-18.746,0-33.943,15.197-33.943,33.943
	v0.686c0,18.747,15.197,33.943,33.943,33.943h149.258c18.746,0,33.943-15.197,33.943-33.943v-0.686
	C440,72.34,424.803,57.143,406.057,57.143z M331.429,57.143c-9.468,0-17.143-7.675-17.143-17.143s7.675-17.143,17.143-17.143
	S348.571,30.532,348.571,40S340.896,57.143,331.429,57.143z M407.749,720H120c-25.248,0-45.714-20.467-45.714-45.714V125.714
	C74.286,100.467,94.752,80,108.571,80h92.619C200.417,83.797,200,87.731,200,91.775c0,31.317,25.48,56.797,56.802,56.797h149.252
	c31.323,0,56.802-25.48,56.802-57.489c0-3.795-0.407-7.494-1.12-11.083h69.692c36.676,0,57.143,20.467,57.143,45.714V469.15
	c-3.799-0.236-7.571-0.579-11.429-0.579c-15.809,0-31.073,2.228-45.714,6.018V205.714h-400v457.143h263.436
	C396.116,682.945,400.505,702.173,407.749,720z M577.143,502.857c-82.054,0-148.571,66.518-148.571,148.571S495.089,800,577.143,800
	s148.571-66.518,148.571-148.571S659.196,502.857,577.143,502.857z M674.224,620.904l-91.429,102.857
	c-4.503,5.067-10.776,7.667-17.093,7.667c-5.017,0-10.061-1.641-14.269-5.011l-57.143-45.714
	c-9.855-7.879-11.456-22.266-3.566-32.121c7.879-9.866,22.271-11.462,32.126-3.571l40.195,32.154l77.015-86.641
	c8.376-9.431,22.829-10.29,32.266-1.897C681.763,597.02,682.612,611.462,674.224,620.904z M474.286,400H291.429
	c-6.312,0-11.429-5.117-11.429-11.429v-11.429c0-6.312,5.117-11.429,11.429-11.429h182.857c6.312,0,11.429,5.117,11.429,11.429
	v11.429C485.714,394.883,480.598,400,474.286,400z M474.286,297.143H291.429c-6.312,0-11.429-5.117-11.429-11.429v-11.429
	c0-6.312,5.117-11.429,11.429-11.429h182.857c6.312,0,11.429,5.117,11.429,11.429v11.429
	C485.714,292.026,480.598,297.143,474.286,297.143z M417.143,491.429H291.429c-6.312,0-11.429-5.117-11.429-11.429v-11.429
	c0-6.312,5.117-11.429,11.429-11.429h125.714c6.312,0,11.429,5.117,11.429,11.429V480
	C428.571,486.312,423.455,491.429,417.143,491.429z M394.286,594.286H291.429c-6.312,0-11.429-5.117-11.429-11.429v-11.429
	c0-6.312,5.117-11.429,11.429-11.429h102.857c6.312,0,11.429,5.117,11.429,11.429v11.429
	C405.714,589.169,400.598,594.286,394.286,594.286z M258.119,254.878l-42.09,47.351c-2.073,2.333-4.961,3.53-7.869,3.53
	c-2.31,0-4.632-0.755-6.569-2.307l-26.306-21.045c-4.537-3.627-5.274-10.25-1.642-14.787c3.627-4.542,10.253-5.277,14.79-1.644
	l18.504,14.802l35.454-39.886c3.856-4.342,10.51-4.737,14.854-0.873C261.59,243.883,261.98,250.531,258.119,254.878z
	 M258.119,356.558l-42.09,47.351c-2.073,2.333-4.961,3.53-7.869,3.53c-2.31,0-4.632-0.755-6.569-2.307l-26.306-21.045
	c-4.537-3.627-5.274-10.25-1.642-14.787c3.627-4.542,10.253-5.277,14.79-1.644l18.504,14.802l35.454-39.886
	c3.856-4.342,10.51-4.737,14.854-0.873C261.59,345.563,261.98,352.212,258.119,356.558z M258.119,453.799l-42.09,47.351
	c-2.073,2.333-4.961,3.53-7.869,3.53c-2.31,0-4.632-0.755-6.569-2.307l-26.306-21.045c-4.537-3.627-5.274-10.25-1.642-14.787
	c3.627-4.542,10.253-5.277,14.79-1.644l18.504,14.802l35.454-39.886c3.856-4.342,10.51-4.737,14.854-0.873
	C261.59,442.804,261.98,449.452,258.119,453.799z M258.119,551.726l-42.09,47.351c-2.073,2.333-4.961,3.53-7.869,3.53
	c-2.31,0-4.632-0.755-6.569-2.307l-26.306-21.045c-4.537-3.627-5.274-10.25-1.642-14.787c3.627-4.542,10.253-5.277,14.79-1.644
	l18.504,14.802l35.454-39.886c3.856-4.342,10.51-4.737,14.854-0.873C261.59,540.731,261.98,547.38,258.119,551.726z"/>
</svg>
