<?xml version="1.0" encoding="utf-8"?>
<!-- Generator: Adobe Illustrator 16.0.4, SVG Export Plug-In . SVG Version: 6.00 Build 0)  -->
<!DOCTYPE svg PUBLIC "-//W3C//DTD SVG 1.1//EN" "http://www.w3.org/Graphics/SVG/1.1/DTD/svg11.dtd">
<svg version="1.1" id="Capa_1" xmlns="http://www.w3.org/2000/svg" xmlns:xlink="http://www.w3.org/1999/xlink" x="0px" y="0px"
	 width="64px" height="64px" viewBox="0 0 64 64" enable-background="new 0 0 64 64" xml:space="preserve">
<g>
	<path d="M42.064,6.372h-7.881V5.033c0-1.552-1.259-2.81-2.811-2.81h-6.4c-1.553,0-2.81,1.258-2.81,2.81v1.339h-7.881
		c-3.575,0-6.484,2.909-6.484,6.483v42.14c0,3.573,2.909,6.481,6.484,6.481h27.782c3.574,0,6.483-2.908,6.483-6.481v-42.14
		C48.548,9.281,45.641,6.372,42.064,6.372z M28.173,3.491c0.774,0,1.402,0.628,1.402,1.402c0,0.773-0.628,1.401-1.402,1.401
		s-1.401-0.628-1.401-1.401C26.771,4.119,27.398,3.491,28.173,3.491z M20.587,10.354H35.76v5.921H20.587V10.354z M42.066,57.771
		H14.282c-1.533,0-2.78-1.246-2.78-2.776v-42.14c0-1.532,1.247-2.779,2.78-2.779h2.65v6.62c0,1.782,1.449,3.231,3.232,3.231h16.018
		c1.782,0,3.231-1.449,3.231-3.231v-6.62h2.651c1.531,0,2.777,1.247,2.777,2.779v42.14h0.002
		C44.844,56.525,43.598,57.771,42.066,57.771z"/>
	<path d="M21.778,26.152l-0.649,0.774c-0.219-0.558-0.759-0.955-1.394-0.955h-4.312c-0.827,0-1.5,0.673-1.5,1.5v4.75
		c0,0.827,0.673,1.5,1.5,1.5h4.312c0.827,0,1.5-0.673,1.5-1.5v-2.54l1.962-2.34c0.329-0.392,0.277-0.975-0.114-1.305
		C22.69,25.711,22.107,25.762,21.778,26.152z M20.236,32.222L20.236,32.222c-0.001,0.275-0.226,0.5-0.501,0.5h-4.312
		c-0.275,0-0.5-0.226-0.5-0.5v-4.75c0-0.275,0.225-0.5,0.5-0.5h4.312c0.275,0,0.5,0.225,0.5,0.5v0.521l-1.249,1.489
		c-0.328,0.393-0.898,0.427-1.272,0.079l-0.77-0.713c-0.373-0.349-0.963-0.327-1.308,0.048c-0.349,0.374-0.326,0.96,0.049,1.309
		l2.16,2.007c0.171,0.16,0.398,0.247,0.63,0.247c0.02,0,0.037,0,0.059-0.001c0.253-0.017,0.488-0.136,0.651-0.329l1.051-1.253
		V32.222z"/>
	<path d="M21.778,36.225l-0.717,0.854c-0.249-0.481-0.747-0.815-1.326-0.815h-4.312c-0.827,0-1.5,0.674-1.5,1.5v4.75
		c0,0.827,0.673,1.5,1.5,1.5h4.312c0.827,0,1.5-0.673,1.5-1.5v-2.759l1.962-2.34c0.329-0.392,0.277-0.976-0.114-1.306
		C22.69,35.782,22.107,35.834,21.778,36.225z M20.236,42.514L20.236,42.514c-0.001,0.275-0.226,0.5-0.501,0.5h-4.312
		c-0.275,0-0.5-0.225-0.5-0.5v-4.75c0-0.274,0.225-0.5,0.5-0.5h4.312c0.275,0,0.5,0.226,0.5,0.5v0.301l-1.249,1.49
		c-0.328,0.391-0.898,0.428-1.272,0.078l-0.77-0.713c-0.373-0.35-0.963-0.327-1.308,0.048c-0.349,0.375-0.326,0.962,0.049,1.31
		l2.16,2.007c0.171,0.161,0.398,0.248,0.63,0.248c0.02,0,0.037,0,0.059-0.003c0.253-0.016,0.488-0.135,0.651-0.328l1.051-1.253
		V42.514z"/>
	<path d="M21.778,46.35l-0.744,0.887c-0.258-0.453-0.74-0.764-1.299-0.764h-4.312c-0.827,0-1.5,0.672-1.5,1.5v4.75
		c0,0.826,0.673,1.5,1.5,1.5h4.312c0.827,0,1.5-0.674,1.5-1.5v-2.845l1.962-2.34c0.329-0.392,0.277-0.976-0.114-1.306
		C22.69,45.906,22.107,45.958,21.778,46.35z M20.236,52.723L20.236,52.723c-0.001,0.274-0.226,0.5-0.501,0.5h-4.312
		c-0.275,0-0.5-0.226-0.5-0.5v-4.75c0-0.275,0.225-0.5,0.5-0.5h4.312c0.275,0,0.5,0.225,0.5,0.5v0.217l-1.249,1.488
		c-0.328,0.393-0.898,0.428-1.272,0.08l-0.77-0.714c-0.373-0.349-0.963-0.327-1.308,0.048c-0.349,0.375-0.326,0.961,0.049,1.309
		l2.16,2.008c0.171,0.16,0.398,0.248,0.63,0.248c0.02,0,0.037,0,0.059-0.002c0.253-0.016,0.488-0.135,0.651-0.329l1.051-1.253
		V52.723z"/>
	<path d="M41.781,29.216H26.81c-0.513,0-0.927,0.413-0.927,0.925c0,0.514,0.414,0.927,0.927,0.927h14.972
		c0.513,0,0.927-0.413,0.927-0.927C42.708,29.629,42.294,29.216,41.781,29.216z"/>
	<path d="M41.781,38.286H26.81c-0.513,0-0.927,0.414-0.927,0.927c0,0.512,0.414,0.926,0.927,0.926h14.972
		c0.513,0,0.927-0.414,0.927-0.926C42.708,38.7,42.294,38.286,41.781,38.286z"/>
	<path d="M41.781,47.357H26.81c-0.513,0-0.927,0.414-0.927,0.928c0,0.511,0.414,0.925,0.927,0.925h14.972
		c0.513,0,0.927-0.414,0.927-0.925C42.708,47.771,42.294,47.357,41.781,47.357z"/>
</g>
</svg>
