<?xml version="1.0" encoding="iso-8859-1"?>
<!-- Generator: Adobe Illustrator 17.1.0, SVG Export Plug-In . SVG Version: 6.00 Build 0)  -->
<!DOCTYPE svg PUBLIC "-//W3C//DTD SVG 1.1//EN" "http://www.w3.org/Graphics/SVG/1.1/DTD/svg11.dtd">
<svg version="1.1" id="Layer_1" xmlns="http://www.w3.org/2000/svg" xmlns:xlink="http://www.w3.org/1999/xlink" x="0px" y="0px"
	 viewBox="0 0 64 64" style="enable-background:new 0 0 64 64;" xml:space="preserve">
<g>
	<path d="M51.587,27.406l-5.535-1.236L44.01,20.88l6.568-7.624c-3.311-0.591-6.839,0.521-9.193,3.254
		c-2.62,3.042-3.046,7.224-1.433,10.634c-0.03,0.033-0.066,0.057-0.096,0.091l-6.184,7.179l5.455,5.925l6.79-7.882
		c0.029-0.034,0.048-0.073,0.076-0.108c3.611,1.09,7.684,0.049,10.304-2.992c2.354-2.733,2.932-6.386,1.857-9.573L51.587,27.406z"/>
	<path d="M17.992,52.616c-1.352,1.569-1.175,3.937,0.394,5.289l0.379,0.326c1.569,1.352,3.937,1.175,5.289-0.394l8.504-9.872
		l-5.455-5.925L17.992,52.616z"/>
	<path d="M38.47,41.101l-5.455-5.925l-7.208-7.828c-0.03-0.033-0.068-0.055-0.099-0.087c0.07-0.162,0.134-0.327,0.195-0.492
		c0.062-0.169,0.12-0.339,0.173-0.51c1.001-3.239,0.31-6.906-2.152-9.58c-2.443-2.654-6.006-3.649-9.295-2.949l6.816,7.403
		l-1.866,5.355l-5.491,1.418l-6.816-7.403c-0.969,3.221-0.271,6.853,2.173,9.507c2.461,2.672,6.056,3.664,9.365,2.935
		c0.176-0.039,0.352-0.082,0.526-0.13c0.17-0.047,0.339-0.097,0.507-0.154c0.029,0.034,0.049,0.072,0.079,0.105l7.837,8.511
		l5.455,5.925l9.399,10.208c0.739,0.803,1.748,1.21,2.76,1.21c0.908,0,1.818-0.328,2.539-0.991l0.368-0.339
		c1.524-1.403,1.622-3.775,0.219-5.299L38.47,41.101z"/>
</g>
</svg>
