<?xml version="1.0" encoding="iso-8859-1"?>
<!-- Generator: Adobe Illustrator 16.0.4, SVG Export Plug-In . SVG Version: 6.00 Build 0)  -->
<!DOCTYPE svg PUBLIC "-//W3C//DTD SVG 1.1//EN" "http://www.w3.org/Graphics/SVG/1.1/DTD/svg11.dtd">
<svg version="1.1" id="Capa_1" xmlns="http://www.w3.org/2000/svg" xmlns:xlink="http://www.w3.org/1999/xlink" x="0px" y="0px"
	 width="15px" height="14.781px" viewBox="0 0 15 14.781" style="enable-background:new 0 0 15 14.781;" xml:space="preserve">
<g>
	<path style="fill:#010002;" d="M0,9.466h2.945c-0.196,0.262-0.314,0.582-0.314,0.936H1.18L0,10.103V9.466z M15,7.798v2.604h-1.25
		c0-0.037-0.005-0.072-0.008-0.109c-0.014-0.213-0.072-0.416-0.165-0.6c-0.259-0.506-0.783-0.852-1.39-0.852
		c-0.863,0-1.563,0.699-1.563,1.561H5.755c0-0.354-0.118-0.674-0.315-0.936h4.656V4.048h2.611v0.625l0.833,2.5L15,7.798z
		 M12.915,7.173l-0.623-1.875h-1.459v1.875H12.915z M5.338,10.402c0,0.633-0.513,1.146-1.144,1.146
		c-0.634,0-1.146-0.516-1.146-1.146s0.513-1.145,1.146-1.145C4.825,9.257,5.338,9.771,5.338,10.402z M4.818,10.402
		c0-0.344-0.281-0.625-0.624-0.625c-0.347,0-0.628,0.281-0.628,0.625c0,0.348,0.281,0.625,0.628,0.625
		C4.537,11.027,4.818,10.749,4.818,10.402z M13.333,10.402c0,0.633-0.515,1.146-1.146,1.146c-0.636,0-1.146-0.516-1.146-1.146
		s0.514-1.145,1.146-1.145C12.818,9.257,13.333,9.771,13.333,10.402z M12.812,10.402c0-0.344-0.28-0.625-0.625-0.625
		c-0.348,0-0.625,0.281-0.625,0.625c0,0.348,0.277,0.625,0.625,0.625C12.532,11.027,12.812,10.749,12.812,10.402z M9.559,3.232H0
		v5.875h9.559V3.232z"/>
</g>
</svg>
