<?xml version="1.0" encoding="iso-8859-1"?>
<!-- Generator: Adobe Illustrator 17.1.0, SVG Export Plug-In . SVG Version: 6.00 Build 0)  -->
<!DOCTYPE svg PUBLIC "-//W3C//DTD SVG 1.1//EN" "http://www.w3.org/Graphics/SVG/1.1/DTD/svg11.dtd">
<svg version="1.1" id="Layer_1" xmlns="http://www.w3.org/2000/svg" xmlns:xlink="http://www.w3.org/1999/xlink" x="0px" y="0px"
	 viewBox="0 0 64 64" style="enable-background:new 0 0 64 64;" xml:space="preserve">
<g>
	<path d="M0,48h2v3h2v-3h4v2h2v-2h43v2h2v-2h3v3h2v-3h3V37H0V48z M42,39h18v7h-5h-2H42V39z M22,39h18v3H22V39z M22,43h18v3H22V43z
		 M2,39h18v7H10H8H2V39z"/>
	<polygon points="28,32 28,34 26,34 26,36 37,36 37,34 35,34 35,32 	"/>
	<path d="M44,16H19v15h25V16z M42,29H21V18h21V29z"/>
	<path d="M54,4H9v7h45V4z M13,10c-1.381,0-2.5-1.119-2.5-2.5C10.5,6.119,11.619,5,13,5s2.5,1.119,2.5,2.5
		C15.5,8.881,14.381,10,13,10z M21,10c-1.381,0-2.5-1.119-2.5-2.5C18.5,6.119,19.619,5,21,5s2.5,1.119,2.5,2.5
		C23.5,8.881,22.381,10,21,10z M27,8.438c-0.518,0-0.938-0.42-0.938-0.938S26.482,6.562,27,6.562s0.938,0.42,0.938,0.938
		S27.518,8.438,27,8.438z M37,8.438c-0.518,0-0.938-0.42-0.938-0.938S36.482,6.562,37,6.562s0.938,0.42,0.938,0.938
		S37.518,8.438,37,8.438z M42,10c-1.381,0-2.5-1.119-2.5-2.5C39.5,6.119,40.619,5,42,5s2.5,1.119,2.5,2.5
		C44.5,8.881,43.381,10,42,10z M50,10c-1.381,0-2.5-1.119-2.5-2.5C47.5,6.119,48.619,5,50,5s2.5,1.119,2.5,2.5
		C52.5,8.881,51.381,10,50,10z"/>
	<path d="M16,20H7v16h9V20z M11.5,22.875c0.621,0,1.125,0.504,1.125,1.125c0,0.621-0.504,1.125-1.125,1.125S10.375,24.621,10.375,24
		C10.375,23.379,10.879,22.875,11.5,22.875z M11.5,34c-1.657,0-3-1.343-3-3s1.343-3,3-3s3,1.343,3,3S13.157,34,11.5,34z"/>
	<circle cx="11.5" cy="31" r="1.125"/>
	<circle cx="21" cy="7.5" r="0.938"/>
	<circle cx="13" cy="7.5" r="0.938"/>
	<circle cx="42" cy="7.5" r="0.938"/>
	<circle cx="50" cy="7.5" r="0.938"/>
	<path d="M47,36h9V20h-9V36z M51.5,22.875c0.621,0,1.125,0.504,1.125,1.125c0,0.621-0.504,1.125-1.125,1.125
		S50.375,24.621,50.375,24C50.375,23.379,50.879,22.875,51.5,22.875z M51.5,28c1.657,0,3,1.343,3,3s-1.343,3-3,3s-3-1.343-3-3
		S49.843,28,51.5,28z"/>
	<circle cx="51.5" cy="31" r="1.125"/>
</g>
</svg>
