<?xml version="1.0" encoding="utf-8"?>
<!-- Generator: Adobe Illustrator 16.0.0, SVG Export Plug-In . SVG Version: 6.00 Build 0)  -->
<!DOCTYPE svg PUBLIC "-//W3C//DTD SVG 1.1//EN" "http://www.w3.org/Graphics/SVG/1.1/DTD/svg11.dtd">
<svg version="1.1" id="Layer_1" xmlns="http://www.w3.org/2000/svg" xmlns:xlink="http://www.w3.org/1999/xlink" x="0px" y="0px"
	 width="96px" height="96px" viewBox="0 0 96 96" enable-background="new 0 0 96 96" xml:space="preserve">
<g>
	<path d="M12.153,0.875v94.25h71.693V0.875H12.153z M78.683,89.96H17.317V6.04H40.6v25.446h-9.621L48,51.97l17.021-20.485H55.4V6.04
		h23.282V89.96z"/>
	<path d="M46.024,70.365v-0.067c2.669-0.934,3.97-2.735,3.97-5.037c0-2.969-2.569-5.405-7.206-5.405
		c-2.803,0-5.405,0.801-6.707,1.636l1.034,3.669c0.901-0.534,2.77-1.301,4.538-1.301c2.134,0,3.203,0.968,3.203,2.27
		c0,1.834-2.169,2.469-3.87,2.501h-1.968v3.636h2.068c2.235,0,4.37,0.968,4.37,3.103c0,1.635-1.334,2.902-3.969,2.902
		c-2.069,0-4.138-0.868-5.038-1.334l-1.034,3.803c1.267,0.802,3.636,1.536,6.439,1.536c5.505,0,8.874-2.803,8.874-6.64
		C50.729,72.801,48.626,70.833,46.024,70.365z"/>
	<path d="M49.52,60.597l2.069,3.489l5.768,0.006c5.208,0,9.041,2.18,9.009,6.669c0,5.162-2.886,7.598-7.31,7.566
		c-0.609,0-1.282,0-1.699-0.096V67.929h-4.906v13.892c1.218,0.161,3.014,0.321,5.546,0.321c4.231,0,7.695-0.897,9.971-2.789
		c2.084-1.764,3.591-4.617,3.591-8.752c0-3.816-1.411-6.477-3.655-8.144c-2.084-1.571-4.744-2.309-8.848-2.309
		C56.586,60.148,51.315,60.308,49.52,60.597z"/>
</g>
</svg>
