<?xml version="1.0" encoding="iso-8859-1"?>
<!-- Generator: Adobe Illustrator 17.1.0, SVG Export Plug-In . SVG Version: 6.00 Build 0)  -->
<!DOCTYPE svg PUBLIC "-//W3C//DTD SVG 1.1//EN" "http://www.w3.org/Graphics/SVG/1.1/DTD/svg11.dtd">
<svg version="1.1" id="Layer_1" xmlns="http://www.w3.org/2000/svg" xmlns:xlink="http://www.w3.org/1999/xlink" x="0px" y="0px"
	 viewBox="0 0 64 64" style="enable-background:new 0 0 64 64;" xml:space="preserve">
<path d="M56.046,13.267c-4.153-2.397-9.878-2.498-14.938-0.263c-4.682,2.069-8.057,6.628-10.052,10.054
	c-0.898-0.219-1.859,0.208-2.276,1.077c-0.399,0.831-0.166,1.795,0.498,2.371c-0.182,0.405-0.293,0.677-0.335,0.783l-9.69,21.284
	c-0.977-0.45-2.141-0.049-2.623,0.922c-0.491,0.989-0.088,2.189,0.901,2.681l0.066,0.033L15.417,57H10c-1.104,0-2,0.896-2,2
	s0.896,2,2,2h10c1.104,0,2-0.896,2-2s-0.896-2-2-2h-0.188l1.387-3.047c0.183,0.053,0.368,0.089,0.553,0.089
	c0.735,0,1.443-0.407,1.793-1.11c0.458-0.922,0.132-2.019-0.714-2.563l10.041-22.055c0.271,0.125,0.554,0.187,0.835,0.187
	c0.745,0,1.46-0.418,1.804-1.135c0.458-0.953,0.086-2.083-0.82-2.597c1.711-2.883,4.45-6.522,8.035-8.106
	c3.854-1.703,8.298-1.677,11.321,0.068c2.223,1.283,3.5,3.324,3.798,6.068c0.558,5.139,0.085,8.585-1.402,10.244
	c-0.137,0.153-0.288,0.284-0.442,0.408v4.477c1.232-0.416,2.415-1.095,3.419-2.214c2.312-2.575,3.097-6.941,2.402-13.346
	C61.392,18.399,59.34,15.167,56.046,13.267z"/>
<path d="M50.35,47c1.305,0,2.539,0.297,3.65,0.815v-9.421v-4.058V32c0-1.105,0.105-1-1-1h-3.917c-1.105,0-12.25,0.917-15.194,15.47
	L32,58.5c0,1.105,0.895,2.5,2,2.5h9.491c-1.142-1.471-1.829-3.311-1.829-5.312C41.662,50.897,45.56,47,50.35,47z"/>
<path d="M55,50.892c-0.307-0.297-0.641-0.565-1-0.8C52.949,49.404,51.696,49,50.35,49c-3.688,0-6.688,3-6.688,6.688
	c0,2.166,1.04,4.09,2.642,5.312c0.558,0.426,1.183,0.765,1.858,1c0.687,0.239,1.421,0.375,2.188,0.375s1.501-0.136,2.188-0.375
	c0.708-0.246,1.363-0.607,1.941-1.062c0.544-0.428,1.023-0.935,1.412-1.509c0.724-1.069,1.148-2.357,1.148-3.742
	c0-1.31-0.384-2.529-1.037-3.561C55.715,51.676,55.381,51.261,55,50.892z M50.35,52.333c1.852,0,3.354,1.502,3.354,3.354
	c0,1.852-1.502,3.354-3.354,3.354c-1.852,0-3.354-1.502-3.354-3.354C46.996,53.835,48.497,52.333,50.35,52.333z"/>
</svg>
