<?xml version="1.0" encoding="utf-8"?>
<!-- Generator: Adobe Illustrator 16.0.4, SVG Export Plug-In . SVG Version: 6.00 Build 0)  -->
<!DOCTYPE svg PUBLIC "-//W3C//DTD SVG 1.1//EN" "http://www.w3.org/Graphics/SVG/1.1/DTD/svg11.dtd">
<svg version="1.1" id="Capa_1" xmlns="http://www.w3.org/2000/svg" xmlns:xlink="http://www.w3.org/1999/xlink" x="0px" y="0px"
	 width="20.004px" height="17.979px" viewBox="0 0 20.004 17.979" enable-background="new 0 0 20.004 17.979" xml:space="preserve">
<path d="M20.004,10.844c-0.049-0.033-0.1-0.077-0.145-0.143c-0.142-0.196-0.855-0.658-0.979-0.769
	c-0.12-0.108-0.034-0.942-0.034-1.139c0-0.197-0.035-0.68-0.035-0.789c0-0.111-0.14-0.438-0.14-0.438s-0.278-0.308-0.366-0.418
	c-0.086-0.109-0.228-0.35-0.349-0.327S17.137,6.777,16.837,6.8c-0.295,0.021-0.452,0.109-0.506,0.218
	c-0.054,0.11-0.455,0.482-0.541,0.614c-0.088,0.131-0.156,0.131-0.174,0.22c-0.019,0.087-0.158,0.897-0.142,1.184
	c0.019,0.285-0.053,0.768-0.121,0.854c-0.069,0.087-0.524,0.591-0.771,0.767c-0.055,0.039-0.139,0.106-0.234,0.188h-1.162
	c-0.305-0.157-1.104-0.566-1.24-0.634c-0.168-0.078-0.424-0.266-0.465-0.45c-0.045-0.188-0.063-0.454-0.063-0.642
	c0-0.185,0.063-0.877-0.104-1.012c-0.17-0.133-0.105-0.24-0.254-0.373s-0.427,0.054-0.511,0.054S10.359,8,10.187,8.055
	c-0.169,0.053-0.253,0.133-0.275,0.212c-0.02,0.082,0.043,1.12-0.02,1.12c-0.064,0-0.086-0.827-0.17-0.854S9.658,9.36,9.53,9.627
	c-0.128,0.267-0.254,0.507-0.424,0.587c-0.152,0.07-0.606,0.439-0.732,0.632H6.828c-0.128-0.145-0.245-0.303-0.329-0.45
	c-0.175-0.31-0.646-0.769-0.697-0.833C5.748,9.494,5.73,9.188,5.73,9.036S5.626,8.619,5.556,8.487
	C5.487,8.357,5.521,7.13,5.521,6.932c0-0.198-0.087-0.329-0.175-0.329c-0.086,0-0.086,1.227-0.086,1.38s-0.298-0.24-0.42-0.329
	C4.718,7.568,4.702,6.427,4.667,6.23c-0.035-0.198-0.21-0.131-0.386-0.219C4.108,5.924,3.81,5.967,3.341,5.944
	C2.867,5.924,2.484,5.747,2.309,6.011C2.134,6.273,2.152,8.75,2.118,9.101c-0.035,0.351-0.209,0.24-0.455,0.438
	C1.481,9.686,0.489,10.446,0,10.819v1.291h20.004V10.844z"/>
</svg>
