<?xml version="1.0" encoding="utf-8"?>
<!-- Generator: Adobe Illustrator 16.0.0, SVG Export Plug-In . SVG Version: 6.00 Build 0)  -->
<!DOCTYPE svg PUBLIC "-//W3C//DTD SVG 1.1//EN" "http://www.w3.org/Graphics/SVG/1.1/DTD/svg11.dtd">
<svg version="1.1" id="Layer_13" xmlns="http://www.w3.org/2000/svg" xmlns:xlink="http://www.w3.org/1999/xlink" x="0px" y="0px"
	 width="100px" height="100px" viewBox="0 0 100 100" enable-background="new 0 0 100 100" xml:space="preserve">
<path d="M83.362,26.932V16.667H73.097v2.794H26.903v-2.794H16.638v10.265h3.423v46.136h-3.423v10.265h10.265v-3.422h46.193v3.422
	h10.265V73.068h-2.851V26.932H83.362z M74.237,17.808h7.984v7.984h-7.984V17.808z M17.779,17.808h7.984v7.984h-7.984V17.808z
	 M25.763,82.192h-7.984v-7.984h7.984V82.192z M82.222,82.192h-7.984v-7.984h7.984V82.192z M77.089,73.068h-3.992v3.422H26.903
	v-3.422h-3.421V26.932h3.421v-4.049h46.193v4.049h3.992V73.068z"/>
</svg>
