<?xml version="1.0" encoding="utf-8"?>
<!-- Generator: Adobe Illustrator 16.0.0, SVG Export Plug-In . SVG Version: 6.00 Build 0)  -->
<!DOCTYPE svg PUBLIC "-//W3C//DTD SVG 1.1//EN" "http://www.w3.org/Graphics/SVG/1.1/DTD/svg11.dtd">
<svg version="1.1" id="Layer_13" xmlns="http://www.w3.org/2000/svg" xmlns:xlink="http://www.w3.org/1999/xlink" x="0px" y="0px"
	 width="100px" height="100px" viewBox="0 0 100 100" enable-background="new 0 0 100 100" xml:space="preserve">
<path d="M89.773,45.5h-3.279C84.457,28.793,71.461,15.688,54.75,13.533v-3.306h-9v3.249C29.028,15.405,15.549,28.791,13.506,45.5
	h-3.279v9h3.279C15.505,70.885,28.242,83.971,44.6,86.38l0.9,0.132v3.262h9V86.5c0.217-0.026,0.434-0.054,0.649-0.084
	C71.659,84.102,84.48,71.009,86.494,54.5h3.279V45.5z M46.75,11.227h7v7h-7V11.227z M11.227,46.5h7v7h-7V46.5z M53.5,88.773h-7v-7h7
	V88.773z M54.734,83.445c-0.078,0.011-0.156,0.02-0.234,0.03v-2.702h-9v2.706l-0.464-0.068C30.137,81.217,18.512,69.375,16.531,54.5
	h2.695v-9h-2.694c2.012-15.06,14.144-27.103,29.218-29.001v2.728h9v-2.662C69.788,18.677,81.471,30.46,83.469,45.5h-2.695v9h2.695
	C81.479,69.489,69.772,81.336,54.734,83.445z M88.773,53.5h-7v-7h7V53.5z"/>
</svg>
