<?xml version="1.0" encoding="utf-8"?>
<!-- Generator: Adobe Illustrator 17.0.2, SVG Export Plug-In . SVG Version: 6.00 Build 0)  -->
<!DOCTYPE svg PUBLIC "-//W3C//DTD SVG 1.1//EN" "http://www.w3.org/Graphics/SVG/1.1/DTD/svg11.dtd">
<svg version="1.1" id="Capa_1" xmlns="http://www.w3.org/2000/svg" xmlns:xlink="http://www.w3.org/1999/xlink" x="0px" y="0px"
	 width="64px" height="64px" viewBox="0 0 64 64" enable-background="new 0 0 64 64" xml:space="preserve">
<g>
	<path d="M35.354,17.901v-1.916l19.289-4.194c0.624,0.784,1.575,1.296,2.655,1.296c1.882,0,3.408-1.526,3.408-3.408
		s-1.526-3.408-3.408-3.408c-1.598,0-2.93,1.105-3.298,2.589l-18.647,4.054v-2.019h-9.083v3.994L6.981,19.083
		c-0.624-0.784-1.575-1.296-2.655-1.296c-1.882,0-3.408,1.526-3.408,3.408s1.526,3.408,3.408,3.408c1.598,0,2.93-1.105,3.298-2.589
		l12.563-2.731C8.201,28.299,6.618,42.711,6.69,50.146H3.937v9.083h9.083v-9.083H9.665c-0.046-2.917,0.169-7.015,1.287-11.39
		c2.328-9.108,7.477-15.732,15.318-19.773v0.996h5.279l9.904,32.88l4.718-7.315l7.719,9.848l8.312-6.146l-7.835-10.007l8.977-2.588
		L35.354,17.901z M10.021,53.146v3.083H6.937v-1.77v-1.313h2.876H10.021z M29.271,14.237v-0.341h1.571h1.512v1.996l-1.793-1.201
		l-0.728-0.487l-0.03-0.02l0.008,0.028l0.834,2.768h-1.375v-2.566V14.237z M57.938,48.667l-3.486,2.577l-8.518-10.867l-3.482,5.397
		l-7.36-24.439l21.224,14.22l-7.053,2.033L57.938,48.667z"/>
</g>
</svg>
