<?xml version="1.0" encoding="UTF-8" standalone="no"?>
<!-- Generator: Adobe Illustrator 16.0.0, SVG Export Plug-In . SVG Version: 6.00 Build 0)  -->

<svg
   xmlns:dc="http://purl.org/dc/elements/1.1/"
   xmlns:cc="http://creativecommons.org/ns#"
   xmlns:rdf="http://www.w3.org/1999/02/22-rdf-syntax-ns#"
   xmlns:svg="http://www.w3.org/2000/svg"
   xmlns="http://www.w3.org/2000/svg"
   xmlns:sodipodi="http://sodipodi.sourceforge.net/DTD/sodipodi-0.dtd"
   xmlns:inkscape="http://www.inkscape.org/namespaces/inkscape"
   version="1.1"
   id="Layer_13"
   x="0px"
   y="0px"
   width="80"
   height="80"
   viewBox="0 0 80 80"
   enable-background="new 0 0 100 100"
   xml:space="preserve"
   inkscape:version="0.48.5 r10040"
   sodipodi:docname="vector-triangle.svg"><metadata
     id="metadata9"><rdf:RDF><cc:Work
         rdf:about=""><dc:format>image/svg+xml</dc:format><dc:type
           rdf:resource="http://purl.org/dc/dcmitype/StillImage" /></cc:Work></rdf:RDF></metadata><defs
     id="defs7" /><sodipodi:namedview
     pagecolor="#ffffff"
     bordercolor="#666666"
     borderopacity="1"
     objecttolerance="10"
     gridtolerance="10"
     guidetolerance="10"
     inkscape:pageopacity="0"
     inkscape:pageshadow="2"
     inkscape:window-width="1047"
     inkscape:window-height="688"
     id="namedview5"
     showgrid="false"
     inkscape:zoom="2.36"
     inkscape:cx="50"
     inkscape:cy="50"
     inkscape:window-x="0"
     inkscape:window-y="0"
     inkscape:window-maximized="0"
     inkscape:current-layer="Layer_13" /><path
     d="M 71.617,61.75 C 71.585,61.651 71.545,61.555 71.488,61.462 L 44.25,17.408 V 9.25 h -9 v 8.157 L 7.905,61.635 C 7.882,61.672 7.869,61.712 7.85,61.75 H 2.315 v 9 h 9 v -3 h 57.37 v 3 h 9 v -9 H 71.617 z M 36.25,10.25 h 7 v 7 h -7 v -7 z m -25.935,59.5 h -7 v -7 h 7 v 7 z m 1,-5 V 61.824 L 38.078,18.539 c 0.057,-0.093 0.088,-0.191 0.119,-0.289 h 3.095 c 0.034,0.101 0.075,0.2 0.134,0.295 l 27.26,44.089 V 64.75 H 11.315 z m 65.37,5 h -7 v -7 h 7 v 7 z"
     id="path3"
     inkscape:connector-curvature="0" /></svg>