<?xml version="1.0" encoding="utf-8"?>
<!-- Generator: Adobe Illustrator 16.0.0, SVG Export Plug-In . SVG Version: 6.00 Build 0)  -->
<!DOCTYPE svg PUBLIC "-//W3C//DTD SVG 1.1//EN" "http://www.w3.org/Graphics/SVG/1.1/DTD/svg11.dtd">
<svg version="1.1" id="Layer_1" xmlns="http://www.w3.org/2000/svg" xmlns:xlink="http://www.w3.org/1999/xlink" x="0px" y="0px"
	 width="96px" height="96px" viewBox="0 0 96 96" enable-background="new 0 0 96 96" xml:space="preserve">
<g>
	<path d="M76.383,61.198c9.088,0,16.482-7.394,16.482-16.482c0-9.089-7.395-16.483-16.482-16.483S59.9,35.626,59.9,44.715
		c0,2.26,0.459,4.416,1.286,6.378L41.371,65.238c-2.615-2.097-5.881-3.4-9.441-3.582l-4.667-20.844
		c4.517-2.943,7.515-8.03,7.515-13.811c0-9.089-7.395-16.482-16.482-16.482S1.813,17.913,1.813,27.001
		c0,8.909,7.109,16.171,15.95,16.456L22.39,64.12c-4.667,2.914-7.787,8.082-7.787,13.977c0,9.089,7.394,16.482,16.482,16.482
		c9.088,0,16.482-7.394,16.482-16.482c0-1.629-0.247-3.201-0.688-4.688l20.704-14.78C70.133,60.246,73.146,61.198,76.383,61.198z
		 M18.295,36.098c-5.016,0-9.097-4.081-9.097-9.097c0-5.016,4.081-9.097,9.097-9.097s9.097,4.081,9.097,9.097
		C27.392,32.018,23.311,36.098,18.295,36.098z M31.085,87.193c-5.016,0-9.097-4.081-9.097-9.097S26.069,69,31.085,69
		c5.015,0,9.097,4.081,9.097,9.097S36.1,87.193,31.085,87.193z M76.383,35.619c5.016,0,9.097,4.081,9.097,9.097
		c0,5.016-4.081,9.096-9.097,9.096s-9.097-4.081-9.097-9.096C67.286,39.699,71.367,35.619,76.383,35.619z"/>
	<path d="M87.241,87.015c6.219-8.491,3.862-23.134,3.756-23.772l-6.071,1.011c0.598,3.624,1.221,13.931-2.717,19.184l-7.286-5.181
		l2.784,16.48l16.48-2.784L87.241,87.015z"/>
	<path d="M47.785,15.853c6.534,0.626,13.734,8.029,16.01,10.912l4.836-3.808c-0.4-0.509-9.637-12.111-20.102-13.233l1.026-8.46
		L36.399,11.571l10.308,13.156L47.785,15.853z"/>
</g>
</svg>
