<?xml version="1.0" encoding="UTF-8" standalone="no"?>
<!-- Generator: Adobe Illustrator 16.0.0, SVG Export Plug-In . SVG Version: 6.00 Build 0)  -->

<svg
   xmlns:dc="http://purl.org/dc/elements/1.1/"
   xmlns:cc="http://creativecommons.org/ns#"
   xmlns:rdf="http://www.w3.org/1999/02/22-rdf-syntax-ns#"
   xmlns:svg="http://www.w3.org/2000/svg"
   xmlns="http://www.w3.org/2000/svg"
   xmlns:sodipodi="http://sodipodi.sourceforge.net/DTD/sodipodi-0.dtd"
   xmlns:inkscape="http://www.inkscape.org/namespaces/inkscape"
   version="1.1"
   id="Layer_13"
   x="0px"
   y="0px"
   width="80"
   height="80"
   viewBox="0 0 80 80"
   enable-background="new 0 0 100 100"
   xml:space="preserve"
   inkscape:version="0.48.2 r9819"
   sodipodi:docname="vector-square.svg"><metadata
   id="metadata9"><rdf:RDF><cc:Work
       rdf:about=""><dc:format>image/svg+xml</dc:format><dc:type
         rdf:resource="http://purl.org/dc/dcmitype/StillImage" /></cc:Work></rdf:RDF></metadata><defs
   id="defs7" /><sodipodi:namedview
   pagecolor="#ffffff"
   bordercolor="#666666"
   borderopacity="1"
   objecttolerance="10"
   gridtolerance="10"
   guidetolerance="10"
   inkscape:pageopacity="0"
   inkscape:pageshadow="2"
   inkscape:window-width="1430"
   inkscape:window-height="836"
   id="namedview5"
   showgrid="false"
   inkscape:zoom="6.675088"
   inkscape:cx="15.278336"
   inkscape:cy="38.920867"
   inkscape:window-x="0"
   inkscape:window-y="0"
   inkscape:window-maximized="0"
   inkscape:current-layer="Layer_13" />
<path
   d="M 73.774111,16.969321 V 6.7043208 h -10.265 v 2.794 h -46.194 v -2.794 H 7.0501114 V 16.969321 h 3.4229996 v 46.136 H 7.0501114 v 10.265 H 17.315111 v -3.422 h 46.193 v 3.422 h 10.265 v -10.265 h -2.851 v -46.136 h 2.852 z m -9.125,-9.1240002 h 7.984 v 7.9840002 h -7.984 V 7.8453208 z m -56.4579996,0 H 16.175111 V 15.829321 H 8.1911114 V 7.8453208 z M 16.175111,72.229321 H 8.1911114 v -7.984 h 7.9839996 v 7.984 z m 56.459,0 h -7.984 v -7.984 h 7.984 v 7.984 z m -5.133,-9.124 h -3.992 v 3.422 h -46.194 v -3.422 h -3.421 v -46.136 h 3.421 v -4.049 h 46.193 v 4.049 h 3.992 v 46.136 z"
   id="path3"
   inkscape:connector-curvature="0" />
</svg>