<?xml version="1.0" encoding="utf-8"?>
<!-- Generator: Adobe Illustrator 16.0.0, SVG Export Plug-In . SVG Version: 6.00 Build 0)  -->
<!DOCTYPE svg PUBLIC "-//W3C//DTD SVG 1.1//EN" "http://www.w3.org/Graphics/SVG/1.1/DTD/svg11.dtd">
<svg version="1.1" id="Layer_13" xmlns="http://www.w3.org/2000/svg" xmlns:xlink="http://www.w3.org/1999/xlink" x="0px" y="0px"
	 width="100px" height="100px" viewBox="0 0 100 100" enable-background="new 0 0 100 100" xml:space="preserve">
<path d="M81.617,71.75c-0.032-0.099-0.072-0.195-0.129-0.288L54.25,27.408V19.25h-9v8.157L17.905,71.635
	c-0.023,0.037-0.036,0.077-0.055,0.115h-5.535v9h9v-3h57.37v3h9v-9H81.617z M46.25,20.25h7v7h-7V20.25z M20.315,79.75h-7v-7h7V79.75
	z M21.315,74.75v-2.926l26.763-43.285c0.057-0.093,0.088-0.191,0.119-0.289h3.095c0.034,0.101,0.075,0.2,0.134,0.295l27.26,44.089
	v2.116H21.315z M86.685,79.75h-7v-7h7V79.75z"/>
</svg>
