<?xml version="1.0" encoding="utf-8"?>
<!-- Generator: Adobe Illustrator 16.0.0, SVG Export Plug-In . SVG Version: 6.00 Build 0)  -->
<!DOCTYPE svg PUBLIC "-//W3C//DTD SVG 1.1//EN" "http://www.w3.org/Graphics/SVG/1.1/DTD/svg11.dtd">
<svg version="1.1" id="Layer_13" xmlns="http://www.w3.org/2000/svg" xmlns:xlink="http://www.w3.org/1999/xlink" x="0px" y="0px"
	 width="100px" height="100px" viewBox="0 0 100 100" enable-background="new 0 0 100 100" xml:space="preserve">
<path d="M79.113,17.063h-9v9h2.696c0.073,1.716,0.09,9.353-4.937,14.856c-3.647,3.994-9.188,6.019-16.465,6.019
	c-24.391,0-27.188,23.487-27.469,27h-3.053v9h9v-9h-2.945c0.283-3.704,2.82-24,24.467-24c8.155,0,14.44-2.354,18.68-6.996
	c5.688-6.229,5.815-14.532,5.726-16.879h3.3V17.063z M28.887,81.938h-7v-7h7V81.938z M78.113,25.063h-7v-7h7V25.063z"/>
</svg>
