<?xml version="1.0" encoding="utf-8"?>
<!-- Generator: Adobe Illustrator 16.0.0, SVG Export Plug-In . SVG Version: 6.00 Build 0)  -->
<!DOCTYPE svg PUBLIC "-//W3C//DTD SVG 1.1//EN" "http://www.w3.org/Graphics/SVG/1.1/DTD/svg11.dtd">
<svg version="1.1" id="Capa_1" xmlns="http://www.w3.org/2000/svg" xmlns:xlink="http://www.w3.org/1999/xlink" x="0px" y="0px"
	 width="20.816px" height="24.585px" viewBox="0 0 20.816 24.585" enable-background="new 0 0 20.816 24.585" xml:space="preserve">
<path d="M9.41,20.915c0.258,2.305-0.333,3.233-1.944,3.5c-1.61,0.271-3.177-1.112-3.505-3.083c-0.151-0.905-0.447-2.655-0.631-3.461
	c-0.292-1.282-1.072-2.952-1.375-3.94c-0.069-0.225-0.858-1.842-1.041-2.734C0.613,9.748,1.544,8.331,2.991,8.027l2.531-0.524
	c0.38-0.081,1.51-0.159,1.51-0.159C8.586,7.334,9.342,8.134,9.35,9.689c0.004,0.899-0.813,2.256-1.446,2.356
	c-0.635,0.1-0.914,0.029-1.344,0.031c-0.618,0.003-0.925,0.927-0.995,1.431c-0.038,0.272-0.047,1.545,0.752,3.162
	C7.117,18.282,9.066,17.835,9.41,20.915z M7.526,6.941C8.169,6.938,8.688,6.17,8.683,5.227C8.678,4.284,8.153,3.521,7.51,3.525
	C6.865,3.529,6.347,4.296,6.353,5.239C6.357,6.181,6.882,6.944,7.526,6.941z M3.713,7.202C4.097,7.11,4.296,6.584,4.161,6.027
	C4.024,5.472,3.609,5.094,3.228,5.184C2.846,5.277,2.647,5.803,2.781,6.358C2.917,6.916,3.331,7.295,3.713,7.202z M5.395,6.779
	c0.458-0.065,0.744-0.658,0.644-1.323C5.94,4.794,5.493,4.313,5.04,4.377c-0.453,0.07-0.742,0.662-0.642,1.325
	C4.499,6.364,4.943,6.845,5.395,6.779z M1.106,7.89C0.958,7.518,0.633,7.301,0.381,7.402C0.124,7.504,0.04,7.887,0.189,8.257
	c0.149,0.37,0.477,0.586,0.729,0.486C1.171,8.641,1.257,8.259,1.106,7.89z M2.19,7.889c0.32-0.128,0.427-0.615,0.238-1.083
	C2.239,6.334,1.824,6.057,1.507,6.188C1.183,6.315,1.078,6.803,1.264,7.271C1.454,7.742,1.867,8.017,2.19,7.889z M9.41,20.915
	c0.258,2.305-0.333,3.233-1.944,3.5c-1.61,0.271-3.177-1.112-3.505-3.083c-0.151-0.905-0.447-2.655-0.631-3.461
	c-0.292-1.282-1.072-2.952-1.375-3.94c-0.069-0.225-0.858-1.842-1.041-2.734C0.613,9.748,1.544,8.331,2.991,8.027l2.531-0.524
	c0.38-0.081,1.51-0.159,1.51-0.159C8.586,7.334,9.342,8.134,9.35,9.689c0.004,0.899-0.813,2.256-1.446,2.356
	c-0.635,0.1-0.914,0.029-1.344,0.031c-0.618,0.003-0.925,0.927-0.995,1.431c-0.038,0.272-0.047,1.545,0.752,3.162
	C7.117,18.282,9.066,17.835,9.41,20.915z M7.526,6.941C8.169,6.938,8.688,6.17,8.683,5.227C8.678,4.284,8.153,3.521,7.51,3.525
	C6.865,3.529,6.347,4.296,6.353,5.239C6.357,6.181,6.882,6.944,7.526,6.941z M3.713,7.202C4.097,7.11,4.296,6.584,4.161,6.027
	C4.024,5.472,3.609,5.094,3.228,5.184C2.846,5.277,2.647,5.803,2.781,6.358C2.917,6.916,3.331,7.295,3.713,7.202z M5.395,6.779
	c0.458-0.065,0.744-0.658,0.644-1.323C5.94,4.794,5.493,4.313,5.04,4.377c-0.453,0.07-0.742,0.662-0.642,1.325
	C4.499,6.364,4.943,6.845,5.395,6.779z M1.106,7.89C0.958,7.518,0.633,7.301,0.381,7.402C0.124,7.504,0.04,7.887,0.189,8.257
	c0.149,0.37,0.477,0.586,0.729,0.486C1.171,8.641,1.257,8.259,1.106,7.89z M2.19,7.889c0.32-0.128,0.427-0.615,0.238-1.083
	C2.239,6.334,1.824,6.057,1.507,6.188C1.183,6.315,1.078,6.803,1.264,7.271C1.454,7.742,1.867,8.017,2.19,7.889z M14.498,13.281
	c0.8-1.617,0.791-2.89,0.752-3.162c-0.069-0.504-0.376-1.428-0.994-1.431c-0.431-0.002-0.709,0.069-1.345-0.031
	c-0.633-0.1-1.449-1.456-1.445-2.356c0.009-1.555,0.765-2.354,2.317-2.346c0,0,1.13,0.079,1.511,0.16l2.531,0.524
	c1.446,0.304,2.379,1.721,2.076,3.169c-0.184,0.892-0.972,2.509-1.041,2.734c-0.304,0.988-1.083,2.658-1.375,3.94
	c-0.184,0.806-0.48,2.556-0.631,3.461c-0.328,1.971-1.895,3.354-3.505,3.083c-1.61-0.267-2.201-1.196-1.943-3.5
	C11.751,14.447,13.699,14.893,14.498,13.281z M14.463,1.851c0.006-0.944-0.513-1.71-1.156-1.714
	c-0.644-0.004-1.169,0.759-1.174,1.702s0.514,1.711,1.157,1.714C13.934,3.555,14.459,2.792,14.463,1.851z M18.035,2.97
	c0.134-0.556-0.065-1.082-0.446-1.175c-0.382-0.09-0.797,0.288-0.935,0.844c-0.134,0.557,0.065,1.083,0.449,1.175
	C17.485,3.907,17.899,3.527,18.035,2.97z M16.418,2.313c0.1-0.664-0.189-1.255-0.643-1.325c-0.452-0.064-0.899,0.417-0.998,1.079
	c-0.1,0.665,0.187,1.258,0.644,1.323C15.873,3.457,16.317,2.976,16.418,2.313z M19.897,5.355c0.253,0.1,0.58-0.117,0.729-0.487
	c0.149-0.37,0.065-0.753-0.191-0.855c-0.252-0.101-0.577,0.115-0.726,0.488C19.559,4.87,19.645,5.252,19.897,5.355z M19.552,3.882
	c0.187-0.468,0.081-0.956-0.242-1.083c-0.317-0.132-0.732,0.145-0.922,0.617C18.2,3.885,18.305,4.372,18.627,4.5
	C18.949,4.628,19.362,4.353,19.552,3.882z M14.498,13.281c0.8-1.617,0.791-2.89,0.752-3.162c-0.069-0.504-0.376-1.428-0.994-1.431
	c-0.431-0.002-0.709,0.069-1.345-0.031c-0.633-0.1-1.449-1.456-1.445-2.356c0.009-1.555,0.765-2.354,2.317-2.346
	c0,0,1.13,0.079,1.511,0.16l2.531,0.524c1.446,0.304,2.379,1.721,2.076,3.169c-0.184,0.892-0.972,2.509-1.041,2.734
	c-0.304,0.988-1.083,2.658-1.375,3.94c-0.184,0.806-0.48,2.556-0.631,3.461c-0.328,1.971-1.895,3.354-3.505,3.083
	c-1.61-0.267-2.201-1.196-1.943-3.5C11.751,14.447,13.699,14.893,14.498,13.281z M14.463,1.851c0.006-0.944-0.513-1.71-1.156-1.714
	c-0.644-0.004-1.169,0.759-1.174,1.702s0.514,1.711,1.157,1.714C13.934,3.555,14.459,2.792,14.463,1.851z M18.035,2.97
	c0.134-0.556-0.065-1.082-0.446-1.175c-0.382-0.09-0.797,0.288-0.935,0.844c-0.134,0.557,0.065,1.083,0.449,1.175
	C17.485,3.907,17.899,3.527,18.035,2.97z M16.418,2.313c0.1-0.664-0.189-1.255-0.643-1.325c-0.452-0.064-0.899,0.417-0.998,1.079
	c-0.1,0.665,0.187,1.258,0.644,1.323C15.873,3.457,16.317,2.976,16.418,2.313z M19.897,5.355c0.253,0.1,0.58-0.117,0.729-0.487
	c0.149-0.37,0.065-0.753-0.191-0.855c-0.252-0.101-0.577,0.115-0.726,0.488C19.559,4.87,19.645,5.252,19.897,5.355z M19.552,3.882
	c0.187-0.468,0.081-0.956-0.242-1.083c-0.317-0.132-0.732,0.145-0.922,0.617C18.2,3.885,18.305,4.372,18.627,4.5
	C18.949,4.628,19.362,4.353,19.552,3.882z"/>
</svg>
