<?xml version="1.0" encoding="iso-8859-1"?>
<!-- Generator: Adobe Illustrator 17.1.0, SVG Export Plug-In . SVG Version: 6.00 Build 0)  -->
<!DOCTYPE svg PUBLIC "-//W3C//DTD SVG 1.1//EN" "http://www.w3.org/Graphics/SVG/1.1/DTD/svg11.dtd">
<svg version="1.1" id="Layer_1" xmlns="http://www.w3.org/2000/svg" xmlns:xlink="http://www.w3.org/1999/xlink" x="0px" y="0px"
	 viewBox="0 0 64 64" style="enable-background:new 0 0 64 64;" xml:space="preserve">
<path d="M55,14c1.063,0,2.045,0.339,2.856,0.907l-1.844-8.298C55.582,4.377,53.985,3,51.844,3H14.031
	c-1.915,0-3.577,1.483-4.043,3.607l-1.715,7.719C8.814,14.125,9.391,14,10,14H55z M49.125,5.625C50.713,5.625,52,6.912,52,8.5
	s-1.287,2.875-2.875,2.875S46.25,10.088,46.25,8.5S47.537,5.625,49.125,5.625z M40.125,5.625C41.713,5.625,43,6.912,43,8.5
	s-1.287,2.875-2.875,2.875S37.25,10.088,37.25,8.5S38.537,5.625,40.125,5.625z M29,6h5v2h-5V6z M29,10h5v2h-5V10z"/>
<path d="M10,60h45c1.654,0,3-1.346,3-3V19c0-0.398-0.082-0.777-0.223-1.125c-0.037-0.092-0.088-0.177-0.134-0.264
	c-0.114-0.216-0.25-0.415-0.411-0.596c-0.091-0.103-0.19-0.197-0.294-0.286c-0.03,0.224-0.074,0.445-0.127,0.664
	c-0.111,0.458-0.272,0.9-0.481,1.309c-0.046,0.091-0.092,0.182-0.143,0.269C55.494,20.156,54.369,21,52.848,21H14.152
	c-1.3,0-2.611-0.677-3.586-1.676c-0.072-0.074-0.141-0.15-0.21-0.228c-0.419-0.474-0.76-1.01-0.996-1.574
	c-0.183-0.436-0.301-0.888-0.34-1.344c-0.241,0.084-0.472,0.187-0.68,0.326c-0.181,0.121-0.345,0.262-0.496,0.418
	c-0.084,0.087-0.157,0.183-0.23,0.279C7.234,17.704,7,18.323,7,19v38C7,58.654,8.346,60,10,60z M32.667,25.25
	c8.547,0,15.5,6.953,15.5,15.5s-6.953,15.5-15.5,15.5s-15.5-6.953-15.5-15.5S24.12,25.25,32.667,25.25z"/>
<path d="M14.152,19H52.5h0.348c0.189,0,0.363-0.031,0.526-0.086c1.069-0.359,1.575-1.79,1.617-2.914H11.02
	C11.129,17.434,12.729,19,14.152,19z"/>
<path d="M32.667,53.25c6.893,0,12.5-5.607,12.5-12.5s-5.607-12.5-12.5-12.5s-12.5,5.607-12.5,12.5S25.774,53.25,32.667,53.25z
	 M38.708,34.146c0.84,0,1.521,0.681,1.521,1.521c0,0.84-0.681,1.521-1.521,1.521c-0.84,0-1.521-0.681-1.521-1.521
	C37.188,34.827,37.868,34.146,38.708,34.146z M33.708,31.146c0.84,0,1.521,0.681,1.521,1.521c0,0.84-0.681,1.521-1.521,1.521
	c-0.84,0-1.521-0.681-1.521-1.521C32.188,31.827,32.868,31.146,33.708,31.146z M23.468,39.323c1.045-0.776,3.007-1.904,5.591-1.879
	c1.894,0.018,2.831,0.694,3.78,1.396c-0.012-0.088-0.027-0.175-0.027-0.266c0-1.099,0.891-1.99,1.99-1.99s1.99,0.891,1.99,1.99
	c0,0.733-0.4,1.366-0.99,1.711c0.397,0.076,0.836,0.125,1.342,0.134c2.685,0.047,3.898-1.33,4.436-2.391
	c0.263,0.862,0.407,1.775,0.407,2.723c0,5.147-4.172,9.319-9.319,9.319c-5.147,0-9.319-4.172-9.319-9.319
	C23.347,40.263,23.396,39.789,23.468,39.323z"/>
</svg>
