<?xml version="1.0" encoding="iso-8859-1"?>
<!-- Generator: Adobe Illustrator 17.1.0, SVG Export Plug-In . SVG Version: 6.00 Build 0)  -->
<!DOCTYPE svg PUBLIC "-//W3C//DTD SVG 1.1//EN" "http://www.w3.org/Graphics/SVG/1.1/DTD/svg11.dtd">
<svg version="1.1" id="Layer_1" xmlns="http://www.w3.org/2000/svg" xmlns:xlink="http://www.w3.org/1999/xlink" x="0px" y="0px"
	 viewBox="0 0 64 64" style="enable-background:new 0 0 64 64;" xml:space="preserve">
<g>
	<rect x="22" y="16" width="22" height="36"/>
	<path d="M45,53v0.578l16,7.297V7.125l-16,8.453V53z M52,15.272l6-2.602v13.353l-6,1.155V15.272z M52,28.369l6-1.01v13.353l-6-0.436
		V28.369z M52,41.466l6,0.581V55.4l-6-2.028V41.466z M47,17.89l4-1.983v11.538l-4,0.896V17.89z M47,29.386l4-0.787v11.538l-4-0.3
		V29.386z M47,40.883l4,0.409V52.83l-4-1.496V40.883z"/>
	<path d="M5,60.875l16-7.297V53V16v-0.422L5,7.125V60.875z M15,15.907l4,1.983v10.451l-4-0.896V15.907z M15,28.599l4,0.787v10.451
		l-4,0.3V28.599z M15,41.291l4-0.409v10.451l-4,1.496V41.291z M8,12.67l6,2.602v11.906l-6-1.155V12.67z M8,27.358l6,1.01v11.906
		l-6,0.436V27.358z M8,42.047l6-0.581v11.906L8,55.4V42.047z"/>
</g>
</svg>
