<?xml version="1.0" encoding="iso-8859-1"?>
<!-- Generator: Adobe Illustrator 17.1.0, SVG Export Plug-In . SVG Version: 6.00 Build 0)  -->
<!DOCTYPE svg PUBLIC "-//W3C//DTD SVG 1.1//EN" "http://www.w3.org/Graphics/SVG/1.1/DTD/svg11.dtd">
<svg version="1.1" id="Layer_1" xmlns="http://www.w3.org/2000/svg" xmlns:xlink="http://www.w3.org/1999/xlink" x="0px" y="0px"
	 viewBox="0 0 64 64" style="enable-background:new 0 0 64 64;" xml:space="preserve">
<polygon points="39,48 22,48 24,62 37,62 "/>
<path d="M19.591,30.91c-1.599,4.18,9.211,4.18,7.358,0c0.446,1.007,1.21,1.315,2.051,1.186V44h-9.167L21,47h19l1.417-3H32V31.957
	c1.105,0.369,2.124,0.173,2.591-1.047c-1.599,4.18,9.211,4.18,7.358,0c1.853,4.18,9.141-3.604,4.961-5.298
	c4.18,1.694,4.18-9.116,0-7.358c3.69-1.552-1.556-7.641-4.111-6.171c-0.4-1.389-1.293-2.357-2.678-1.9
	c-0.015-0.004-0.029-0.009-0.044-0.013c3.795-1.895-3.302-9.199-5.127-5.079c1.853-4.18-8.957-4.18-7.358,0
	c-1.563-4.086-9.314,3.068-5.757,5.033c-0.026,0.006-0.053,0.011-0.078,0.017c-1.402-0.385-2.277,0.725-2.625,2.212
	c-2.277-2.337-8.909,4.275-5.04,5.902c-4.18-1.758-4.18,9.052,0,7.358C9.91,27.306,17.992,35.09,19.591,30.91z"/>
</svg>
