<?xml version="1.0" encoding="UTF-8"?>
<svg xmlns="http://www.w3.org/2000/svg" width="382" height="382">
<path
	d="m 222.1,75.5 c -9.9,-2.6 -20.3,-4 -31,-4 -10.7,0 -21.1,1.4 -31,4 L 124.21818,48.835493 141.7,6.6 c 15.8,-4.2 32.3,-6.5 49.4,-6.5 17.1,0 33.7,2.2 49.4,6.5 l 14.82333,41.543787 z"
	fill="#fefe33"/>
<path
	d="m 160.1,306.8 c 9.9,2.6 20.3,4 31,4 10.7,0 21.1,-1.4 31,-4 L 254.11887,332.22743 240.6,375.7 c -15.8,4.2 -32.3,6.5 -49.4,6.5 -17.1,0 -33.7,-2.2 -49.4,-6.5 l -13.33036,-41.77618 z"
	fill="#8601af"/>
<path
	d="m 106.5,106.5 c -7.2,7.2 -13.6,15.5 -19,24.8 -5.4,9.3 -9.3,19 -12,28.9 L 34.16976,174.1354 6.6,141.7 C 10.8,125.9 17.2,110.5 25.7,95.6 34.3,80.8 44.5,67.6 56,56 l 41.506667,8.146667 z"
	fill="#66b032"/>
<path
	d="m 160.1,75.5 c -9.9,2.7 -19.6,6.6 -28.9,12 -9.3,5.4 -17.6,11.8 -24.8,19 L 56,56 C 67.6,44.5 80.8,34.2 95.6,25.7 110.4,17.1 125.9,10.8 141.7,6.6 l 18.4,68.9 z"
	fill="#d0ea2b"/>
<path
	d="m 275.8,275.8 c 7.2,-7.2 13.6,-15.5 19,-24.8 5.4,-9.3 9.3,-19 12,-28.9 L 345.49728,202.05634 375.7,240.6 c -4.2,15.8 -10.6,31.2 -19.1,46.1 -8.6,14.8 -18.8,28 -30.3,39.6 l -50.41,-5.00333 z"
	fill="#fe2712"/>
<path
	d="m 222.1,306.8 c 9.9,-2.7 19.6,-6.6 28.9,-12 9.3,-5.4 17.6,-11.8 24.8,-19 l 50.4,50.4 c -11.5,11.5 -24.8,21.8 -39.6,30.3 -14.8,8.5 -30.3,14.9 -46.1,19.1 l -18.4,-68.8 z"
	fill="#a7194b"/>
<path
	d="m 75.5,222.1 c 2.7,9.9 6.6,19.6 12,28.9 5.4,9.3 11.8,17.6 19,24.8 L 99.874083,318.51977 56,326.2 C 44.5,314.7 34.2,301.4 25.7,286.6 17.2,271.8 10.8,256.3 6.6,240.5 l 27.66487,-31.20495 z"
	fill="#0247fe"/>
<path
	d="m 75.5,160.1 c -2.6,9.9 -4,20.3 -4,31 0,10.7 1.4,21.1 4,31 L 6.6,240.6 C 2.4,224.8 0.1,208.3 0.1,191.2 c 0,-17.1 2.2,-33.7 6.5,-49.4 l 68.9,18.3 z"
	fill="#0392ce"/>
<path
	d="m 306.8,160.1 c -2.7,-9.9 -6.6,-19.6 -12,-28.9 -5.4,-9.3 -11.8,-17.6 -19,-24.8 L 280.085,63.195 326.2,56 c 11.5,11.5 21.8,24.8 30.3,39.6 8.6,14.8 14.9,30.3 19.1,46.1 l -27.57169,40.11964 z"
	fill="#fb9902"/>
<path
	d="m 306.8,222.1 c 2.6,-9.9 4.1,-20.3 4.1,-31 0,-10.7 -1.4,-21.1 -4.1,-31 l 68.9,-18.5 c 4.2,15.8 6.5,32.3 6.5,49.4 0,17.1 -2.2,33.7 -6.5,49.4 l -68.9,-18.3 z"
	fill="#fd5308"/>
<path
	d="m 106.5,275.8 c 7.2,7.2 15.5,13.6 24.8,19 9.3,5.4 19,9.3 28.9,12 l -18.5,68.9 C 125.9,371.5 110.5,365.1 95.6,356.6 80.8,348 67.6,337.8 56,326.3 l 50.5,-50.5 z"
	fill="#3d01a4"/>
<path
	d="m 275.8,106.5 c -7.2,-7.2 -15.5,-13.6 -24.8,-19 -9.3,-5.4 -19,-9.3 -28.9,-12 L 240.6,6.6 c 15.8,4.2 31.2,10.6 46.1,19.1 14.8,8.6 28,18.8 39.6,30.3 l -50.5,50.5 z"
	fill="#fabc02"/>
</svg>
